<svg width="155" height="18" viewBox="0 0 155 18" fill="none" xmlns="http://www.w3.org/2000/svg">
<path d="M150.517 10.3547C150.533 9.74169 150.331 9.21758 149.912 8.78242C149.492 8.34647 148.952 8.12929 148.291 8.12929C147.888 8.12929 147.533 8.1934 147.227 8.32243C146.92 8.45225 146.658 8.61734 146.44 8.81849C146.222 9.02044 146.053 9.25444 145.932 9.5205C145.811 9.78656 145.742 10.0646 145.726 10.3547H150.517ZM153.59 15.5325C153.009 16.2746 152.275 16.8476 151.388 17.2499C150.501 17.653 149.581 17.8549 148.63 17.8549C147.726 17.8549 146.876 17.7099 146.077 17.4198C145.279 17.1289 144.585 16.7146 143.996 16.1736C143.408 15.6335 142.944 14.9844 142.605 14.2263C142.267 13.4681 142.097 12.6211 142.097 11.6859C142.097 10.7498 142.267 9.90357 142.605 9.14545C142.944 8.38734 143.408 7.73821 143.996 7.19728C144.585 6.65714 145.279 6.24202 146.077 5.95112C146.876 5.66101 147.726 5.51596 148.63 5.51596C149.468 5.51596 150.23 5.66101 150.916 5.95112C151.601 6.24202 152.182 6.65714 152.658 7.19728C153.134 7.73821 153.501 8.38734 153.759 9.14545C154.017 9.90357 154.146 10.7498 154.146 11.6859V12.823H145.726C145.871 13.5162 146.186 14.0684 146.67 14.4795C147.154 14.8914 147.751 15.0966 148.461 15.0966C149.057 15.0966 149.561 14.9635 149.973 14.6975C150.384 14.4314 150.742 14.0892 151.049 13.6693L153.59 15.5325ZM137.234 10.3547C137.25 9.74169 137.049 9.21758 136.63 8.78242C136.21 8.34647 135.67 8.12929 135.009 8.12929C134.605 8.12929 134.25 8.1934 133.944 8.32243C133.637 8.45225 133.375 8.61734 133.157 8.81849C132.939 9.02044 132.77 9.25444 132.649 9.5205C132.528 9.78656 132.459 10.0646 132.444 10.3547H137.234ZM140.307 15.5325C139.726 16.2746 138.992 16.8476 138.105 17.2499C137.218 17.653 136.299 17.8549 135.347 17.8549C134.444 17.8549 133.593 17.7099 132.794 17.4198C131.996 17.1289 131.302 16.7146 130.714 16.1736C130.125 15.6335 129.661 14.9844 129.323 14.2263C128.984 13.4681 128.815 12.6211 128.815 11.6859C128.815 10.7498 128.984 9.90357 129.323 9.14545C129.661 8.38734 130.125 7.73821 130.714 7.19728C131.302 6.65714 131.996 6.24202 132.794 5.95112C133.593 5.66101 134.444 5.51596 135.347 5.51596C136.186 5.51596 136.948 5.66101 137.634 5.95112C138.319 6.24202 138.899 6.65714 139.375 7.19728C139.851 7.73821 140.218 8.38734 140.476 9.14545C140.735 9.90357 140.864 10.7498 140.864 11.6859V12.823H132.444C132.589 13.5162 132.903 14.0684 133.387 14.4795C133.871 14.8914 134.468 15.0966 135.178 15.0966C135.775 15.0966 136.279 14.9635 136.69 14.6975C137.101 14.4314 137.46 14.0892 137.766 13.6693L140.307 15.5325ZM122.694 15.4836C122.694 15.1783 122.75 14.8874 122.863 14.6133C122.976 14.3393 123.133 14.1012 123.335 13.8993C123.537 13.6981 123.774 13.5403 124.049 13.4273C124.323 13.3151 124.613 13.2582 124.919 13.2582C125.226 13.2582 125.516 13.3151 125.79 13.4273C126.064 13.5403 126.302 13.6981 126.504 13.8993C126.706 14.1012 126.863 14.3393 126.976 14.6133C127.088 14.8874 127.145 15.1783 127.145 15.4836C127.145 15.7906 127.088 16.0807 126.976 16.3555C126.863 16.6296 126.706 16.8676 126.504 17.0688C126.302 17.2707 126.064 17.4278 125.79 17.5408C125.516 17.653 125.226 17.7099 124.919 17.7099C124.613 17.7099 124.323 17.653 124.049 17.5408C123.774 17.4278 123.537 17.2707 123.335 17.0688C123.133 16.8676 122.976 16.6296 122.863 16.3555C122.75 16.0807 122.694 15.7906 122.694 15.4836ZM118.267 4.62081C117.96 4.23374 117.544 3.94764 117.021 3.76172C116.496 3.5766 116 3.48364 115.532 3.48364C115.258 3.48364 114.976 3.5165 114.685 3.58061C114.395 3.64472 114.121 3.74569 113.863 3.88273C113.605 4.02057 113.395 4.20168 113.234 4.42687C113.072 4.65286 112.992 4.92774 112.992 5.2499C112.992 5.76599 113.186 6.16108 113.573 6.43515C113.96 6.71003 114.447 6.94324 115.036 7.13717C115.625 7.33031 116.259 7.52424 116.936 7.71738C117.613 7.91131 118.246 8.18539 118.835 8.5404C119.424 8.89542 119.912 9.37144 120.299 9.96768C120.686 10.5647 120.879 11.3629 120.879 12.363C120.879 13.3151 120.701 14.1453 120.347 14.8553C119.992 15.5646 119.512 16.1536 118.908 16.6208C118.303 17.0888 117.601 17.4358 116.803 17.6618C116.004 17.887 115.161 18 114.274 18C113.161 18 112.129 17.8309 111.178 17.4919C110.226 17.1537 109.339 16.6056 108.516 15.8475L111.202 12.8952C111.589 13.4112 112.076 13.8111 112.666 14.0924C113.254 14.3753 113.863 14.5164 114.492 14.5164C114.798 14.5164 115.109 14.4795 115.423 14.4074C115.738 14.3352 116.02 14.2263 116.271 14.0804C116.521 13.9354 116.722 13.7502 116.876 13.5242C117.029 13.2991 117.105 13.0322 117.105 12.7261C117.105 12.21 116.908 11.8029 116.513 11.5039C116.117 11.2058 115.621 10.9518 115.024 10.7418C114.427 10.5327 113.782 10.3227 113.089 10.1127C112.395 9.90357 111.75 9.62148 111.154 9.26646C110.557 8.91145 110.061 8.44344 109.665 7.86243C109.27 7.28222 109.072 6.51609 109.072 5.56485C109.072 4.64485 109.254 3.83865 109.617 3.14465C109.98 2.45145 110.464 1.87124 111.069 1.40323C111.674 0.93522 112.371 0.584213 113.161 0.350207C113.951 0.117003 114.766 -1.98682e-07 115.605 -1.98682e-07C116.573 -1.98682e-07 117.508 0.137038 118.412 0.411112C119.315 0.685188 120.129 1.14518 120.855 1.7903L118.267 4.62081ZM106.919 10.9598C106.919 11.976 106.766 12.9112 106.46 13.7663C106.153 14.6213 105.697 15.3634 105.093 15.9917C104.488 16.6208 103.734 17.1137 102.83 17.4679C101.927 17.8229 100.886 18 99.709 18C98.5157 18 97.4667 17.8229 96.5636 17.4679C95.6604 17.1137 94.9063 16.6208 94.302 15.9917C93.697 15.3634 93.241 14.6213 92.9349 13.7663C92.6279 12.9112 92.4749 11.976 92.4749 10.9598V0.435154H96.2494V10.8147C96.2494 11.3469 96.3344 11.8389 96.5035 12.2909C96.6726 12.7421 96.9106 13.1332 97.2175 13.4633C97.5236 13.7943 97.8907 14.0532 98.3178 14.2383C98.7449 14.4234 99.2089 14.5164 99.709 14.5164C100.209 14.5164 100.668 14.4234 101.088 14.2383C101.507 14.0532 101.87 13.7943 102.177 13.4633C102.483 13.1332 102.721 12.7421 102.891 12.2909C103.06 11.8389 103.145 11.3469 103.145 10.8147V0.435154H106.919V10.9598ZM75.7571 0.435154H79.5308V7.54828L86.1848 0.435154H91.1205L83.4993 8.39535L91.7737 17.5648H86.4997L79.5308 9.43556V17.5648H75.7571V0.435154ZM70.7973 4.62081C70.4912 4.23374 70.0753 3.94764 69.5511 3.76172C69.027 3.5766 68.531 3.48364 68.063 3.48364C67.7889 3.48364 67.5068 3.5165 67.2167 3.58061C66.9266 3.64472 66.6517 3.74569 66.3937 3.88273C66.1356 4.02057 65.9265 4.20168 65.7654 4.42687C65.6035 4.65286 65.5226 4.92774 65.5226 5.2499C65.5226 5.76599 65.7165 6.16108 66.1036 6.43515C66.4906 6.71003 66.9787 6.94324 67.5677 7.13717C68.1559 7.33031 68.789 7.52424 69.467 7.71738C70.1442 7.91131 70.7773 8.18539 71.3663 8.5404C71.9545 8.89542 72.4426 9.37144 72.8296 9.96768C73.2167 10.5647 73.4106 11.3629 73.4106 12.363C73.4106 13.3151 73.2327 14.1453 72.8785 14.8553C72.5235 15.5646 72.0435 16.1536 71.4384 16.6208C70.8342 17.0888 70.1321 17.4358 69.334 17.6618C68.535 17.887 67.6919 18 66.8056 18C65.6925 18 64.6603 17.8309 63.7082 17.4919C62.757 17.1537 61.8698 16.6056 61.0468 15.8475L63.7331 12.8952C64.1201 13.4112 64.6074 13.8111 65.1964 14.0924C65.7854 14.3753 66.3937 14.5164 67.0228 14.5164C67.3297 14.5164 67.6398 14.4795 67.9548 14.4074C68.2689 14.3352 68.551 14.2263 68.8018 14.0804C69.0511 13.9354 69.253 13.7502 69.4061 13.5242C69.5592 13.2991 69.6361 13.0322 69.6361 12.7261C69.6361 12.21 69.4381 11.8029 69.0431 11.5039C68.648 11.2058 68.1519 10.9518 67.5549 10.7418C66.9586 10.5327 66.3135 10.3227 65.6195 10.1127C64.9263 9.90357 64.2812 9.62148 63.6842 9.26646C63.0871 8.91145 62.5911 8.44344 62.1968 7.86243C61.8009 7.28222 61.6038 6.51609 61.6038 5.56485C61.6038 4.64485 61.7849 3.83865 62.1479 3.14465C62.5109 2.45145 62.995 1.87124 63.5992 1.40323C64.2043 0.93522 64.9023 0.584213 65.6925 0.350207C66.4826 0.117003 67.2968 -1.98682e-07 68.1359 -1.98682e-07C69.104 -1.98682e-07 70.0392 0.137038 70.9424 0.411112C71.8455 0.685188 72.6605 1.14518 73.3866 1.7903L70.7973 4.62081ZM47.8367 0.435154H59.4745V3.91879H51.6112V7.11313H59.0393V10.5968H51.6112V14.0804H59.9096V17.5648H47.8367V0.435154ZM30.9739 0.435154H34.7484V7.54828L41.4015 0.435154H46.3373L38.7161 8.39535L46.9904 17.5648H41.7165L34.7484 9.43556V17.5648H30.9739V0.435154Z" fill="white" fill-opacity="0.8"/>
<path fill-rule="evenodd" clip-rule="evenodd" d="M23.9431 0.435173L20.3336 10.4389L16.7458 0.435173H8.58608C7.0947 0.435173 5.69227 0.815834 4.47015 1.48499C3.50207 1.97865 2.73514 2.62056 2.13891 3.35383C0.808601 4.86605 -6.48096e-07 6.84869 -6.48096e-07 9.02126C-6.48096e-07 13.7631 3.84426 17.5665 8.58608 17.5665H11.5713L13.2526 12.9056H8.54521C8.20061 12.9056 7.86884 12.8567 7.55069 12.7734C7.54989 12.7734 7.54989 12.7734 7.54989 12.7734C6.93041 12.6107 6.37104 12.3005 5.91105 11.8838C5.89502 11.8702 5.87899 11.8558 5.86376 11.8413C5.80206 11.7836 5.74275 11.7235 5.68505 11.6626C5.66342 11.6402 5.64258 11.617 5.62174 11.5937C5.56885 11.5344 5.51756 11.4743 5.46788 11.4126C5.44544 11.3838 5.4246 11.3541 5.40296 11.3252C5.35729 11.2643 5.31081 11.2034 5.26913 11.1393C5.2491 11.1089 5.23147 11.0768 5.21143 11.0456C5.14732 10.9422 5.08882 10.8364 5.03433 10.7274C5.00467 10.6681 4.97502 10.6096 4.94858 10.5495C4.92774 10.5022 4.90931 10.4533 4.89088 10.4045C4.86603 10.3411 4.84119 10.277 4.81955 10.2113C4.80433 10.164 4.7899 10.1152 4.77548 10.0671C4.75544 9.99735 4.73781 9.92683 4.72178 9.8555C4.71056 9.80902 4.70015 9.76254 4.69133 9.71606C4.6761 9.63592 4.66408 9.55498 4.65447 9.47324C4.64886 9.43317 4.64245 9.3931 4.63844 9.35303C4.62722 9.23042 4.62001 9.1062 4.62001 8.98039C4.62001 8.85537 4.62722 8.73195 4.63844 8.60934C4.64245 8.57007 4.64886 8.53161 4.65367 8.49234C4.66328 8.4098 4.6753 8.32805 4.69053 8.24792C4.69934 8.20304 4.70896 8.15816 4.71938 8.11408C4.73541 8.03955 4.75464 7.96663 4.77548 7.8945C4.7883 7.84962 4.80112 7.80555 4.81555 7.76147C4.83879 7.68855 4.86603 7.61642 4.89408 7.5459C4.91011 7.50583 4.92373 7.46576 4.94056 7.42729C4.98464 7.32391 5.03352 7.22294 5.08561 7.12517C5.10805 7.0843 5.1329 7.04583 5.15694 7.00576C5.1906 6.94646 5.22506 6.88796 5.26272 6.83106C5.29478 6.78137 5.33004 6.73409 5.3645 6.68681C5.39575 6.64273 5.42781 6.59866 5.46147 6.55698C5.50154 6.5065 5.54241 6.45681 5.58408 6.40873C5.61453 6.37347 5.64659 6.33901 5.67864 6.30455C5.72592 6.25406 5.77321 6.20357 5.82369 6.15549C5.84854 6.13145 5.87498 6.10901 5.90063 6.08577C6.09857 5.90465 6.31495 5.74357 6.54655 5.60574C6.56338 5.59612 6.5794 5.5857 6.59703 5.57608C6.66996 5.53361 6.74609 5.49434 6.82303 5.45748C6.84707 5.44546 6.87031 5.43344 6.89515 5.42222C6.97208 5.38696 7.04982 5.3533 7.12996 5.32204C7.1524 5.31403 7.17484 5.30602 7.19727 5.298C7.28222 5.26675 7.36717 5.2371 7.45452 5.21145C7.80152 5.11128 8.16615 5.05518 8.54521 5.05518H13.2526L17.762 17.5665H22.9053L29.0864 0.435173H23.9431Z" fill="white"/>
</svg>
