<svg width="85" height="30" viewBox="0 0 85 30" fill="none" xmlns="http://www.w3.org/2000/svg">
<path fill-rule="evenodd" clip-rule="evenodd" d="M18.1142 18.9706C17.7145 19.9303 17.1535 20.7748 16.4474 21.4806C15.741 22.1877 14.8961 22.748 13.9374 23.1474C12.9781 23.5474 11.9384 23.7499 10.8471 23.7499H6.43774V7.85316H10.8471C11.9384 7.85316 12.9787 8.06316 13.9394 8.47639C14.8984 8.88961 15.7426 9.46348 16.4484 10.1825C17.1545 10.9022 17.7152 11.7599 18.1145 12.7315C18.5139 13.7048 18.7165 14.7635 18.7165 15.8803C18.7165 16.9715 18.5139 18.0112 18.1142 18.9706ZM21.2139 6.168C19.9377 4.95671 18.4006 3.98155 16.6448 3.27122C14.889 2.56187 12.9913 2.20251 11.0042 2.20251H0V29.4012H11.0042C12.9919 29.4012 14.89 29.048 16.6458 28.3512C18.4016 27.6538 19.9387 26.6857 21.2139 25.4745C22.4894 24.2638 23.5158 22.8122 24.2645 21.1609C25.0116 19.5125 25.3903 17.7357 25.3903 15.8803C25.3903 13.9728 25.0116 12.1628 24.2642 10.5009C23.5161 8.83768 22.4897 7.37961 21.2139 6.168Z" fill="#3858F5"/>
<path fill-rule="evenodd" clip-rule="evenodd" d="M33.4463 17.0654L33.5089 16.8563C33.8324 15.7786 34.394 14.9299 35.1785 14.335C35.9647 13.7389 36.9105 13.437 37.9901 13.437C39.0443 13.437 39.9843 13.7525 40.7834 14.3754C41.5785 14.9963 42.1589 15.8286 42.5085 16.8499L42.5821 17.0654H33.4463ZM45.5192 11.7444C44.6079 10.7692 43.5072 9.98858 42.2485 9.4231C40.9901 8.85858 39.5969 8.57181 38.1079 8.57181C36.616 8.57181 35.2014 8.846 33.9043 9.38503C32.6063 9.92471 31.4663 10.6802 30.516 11.6305C29.5656 12.5815 28.8031 13.7218 28.2505 15.0195C27.6982 16.317 27.4182 17.7173 27.4182 19.1834C27.4182 20.6479 27.7111 22.0476 28.2889 23.3447C28.8676 24.6431 29.6624 25.7834 30.6514 26.7341C31.6401 27.6841 32.8327 28.4402 34.1966 28.9808C35.5608 29.5205 37.0353 29.7947 38.5798 29.7947C40.2811 29.7947 41.8305 29.5463 43.184 29.0576C44.484 28.5876 45.7737 27.8305 47.0198 26.8073L43.0672 23.2976C42.5772 23.7589 41.9879 24.1254 41.3127 24.3876C40.5895 24.6689 39.7756 24.8118 38.8947 24.8118C37.6601 24.8118 36.5708 24.4915 35.6566 23.8592C34.7434 23.2279 34.0627 22.4047 33.6334 21.4108L33.5353 21.1837H48.444V19.7737C48.444 18.176 48.1831 16.6676 47.6679 15.2883C47.1527 13.9131 46.4298 12.7202 45.5192 11.7444Z" fill="#3858F5"/>
<mask id="mask0" mask-type="alpha" maskUnits="userSpaceOnUse" x="0" y="0" width="85" height="30">
<path fill-rule="evenodd" clip-rule="evenodd" d="M0 29.7948H84.3468V-3.05176e-05H0V29.7948Z" fill="white"/>
</mask>
<g mask="url(#mask0)">
<path fill-rule="evenodd" clip-rule="evenodd" d="M51.3601 29.4013H57.4046V0.180939H51.3601V29.4013Z" fill="#3858F5"/>
<path fill-rule="evenodd" clip-rule="evenodd" d="M83.3719 5.69925C84.0187 5.05247 84.3467 4.25763 84.3467 3.33667C84.3467 2.41699 84.0187 1.62183 83.3719 0.97473C82.7248 0.327956 81.9299 0.000213623 81.0096 0.000213623C80.089 0.000213623 79.2948 0.327956 78.6477 0.97473C78.0009 1.62118 77.6729 2.41634 77.6729 3.33667C77.6729 4.25828 78.0009 5.05312 78.6477 5.69925C79.2941 6.3457 80.0887 6.67376 81.0096 6.67376C81.9303 6.67376 82.7254 6.3457 83.3719 5.69925Z" fill="#3858F5"/>
<path fill-rule="evenodd" clip-rule="evenodd" d="M70.3877 7.62262C70.3877 6.78682 70.6609 6.15456 71.1993 5.74391C71.7242 5.34359 72.498 5.14037 73.4996 5.14037C73.9225 5.14037 74.3319 5.16004 74.7158 5.20004C75.0451 5.23456 75.4271 5.29424 75.8535 5.37875V0.437785C75.459 0.346172 74.9722 0.264559 74.4042 0.19585C73.77 0.117462 73.1751 0.0784302 72.6348 0.0784302C69.9632 0.0784302 67.8896 0.72585 66.4719 2.00295C65.0596 3.2752 64.3435 5.12714 64.3435 7.5052V8.92585H59.7822V13.9088H64.3435V29.4017H70.3877V13.9088H77.9877V29.4017H84.0319V8.92585H70.3877V7.62262Z" fill="#3858F5"/>
</g>
</svg>
