<?xml version="1.0" standalone="no"?>
<!DOCTYPE svg PUBLIC "-//W3C//DTD SVG 20010904//EN"
 "http://www.w3.org/TR/2001/REC-SVG-20010904/DTD/svg10.dtd">
<svg version="1.0" xmlns="http://www.w3.org/2000/svg"
 width="1200.000000pt" height="1165.000000pt" viewBox="0 0 1200.000000 1165.000000"
 preserveAspectRatio="xMidYMid meet">

<g transform="translate(0.000000,1165.000000) scale(0.100000,-0.100000)"
fill="#000000" stroke="none">
<path d="M5650 11640 c-1809 -113 -3435 -978 -4498 -2392 -655 -872 -1035
-1869 -1134 -2978 -19 -212 -16 -743 5 -950 44 -429 123 -808 245 -1187 45
-139 47 -150 35 -186 -13 -40 -6 -69 23 -92 7 -5 40 -80 75 -165 361 -900 927
-1680 1662 -2292 936 -780 2082 -1258 3317 -1383 205 -21 1058 -21 1255 0
1605 170 3042 924 4038 2119 391 469 701 990 929 1561 34 84 70 159 83 171 15
14 26 38 30 70 4 27 32 130 61 228 88 294 149 581 196 917 22 155 23 195 23
729 0 565 0 565 -28 760 -158 1111 -602 2103 -1325 2960 -140 166 -513 538
-682 680 -967 814 -2129 1297 -3405 1415 -205 19 -705 27 -905 15z m821 -130
c1261 -97 2420 -566 3394 -1376 165 -137 569 -541 705 -703 779 -939 1224
-2031 1311 -3219 15 -205 6 -769 -14 -937 -37 -298 -86 -563 -148 -795 -31
-116 -34 -122 -39 -85 -8 50 -24 81 -55 101 -30 19 -102 15 -223 -12 -98 -22
-118 -16 -165 54 -16 24 -47 55 -70 69 l-40 25 67 29 c38 16 72 29 77 29 23 0
93 57 115 95 35 61 32 117 -10 197 -49 92 -33 122 111 209 104 63 126 96 127
190 1 60 -2 71 -30 106 -17 21 -40 42 -52 48 -12 5 -22 15 -22 21 0 7 27 47
59 91 72 95 79 118 53 169 -27 54 -49 71 -107 84 -94 22 -100 25 -117 60 -13
25 -18 59 -18 120 0 102 -22 160 -69 184 -66 35 -119 15 -217 -82 -89 -88
-114 -95 -198 -56 -98 45 -170 34 -199 -30 -8 -17 -17 -71 -20 -120 -9 -125
-18 -136 -110 -136 -84 0 -118 -17 -154 -77 -33 -54 -29 -101 18 -237 25 -73
38 -127 35 -141 -6 -23 -15 -29 -115 -68 -78 -32 -96 -60 -96 -155 0 -70 4
-86 44 -170 61 -133 60 -217 -2 -193 -51 20 -86 2 -183 -91 -84 -79 -97 -88
-131 -88 -25 0 -53 10 -82 30 -51 35 -112 40 -150 14 -22 -16 -23 -16 -17 2
142 471 202 920 177 1337 -41 695 -243 1298 -626 1872 -578 865 -1500 1466
-2545 1659 -274 50 -402 61 -740 60 -270 0 -339 -3 -485 -23 -376 -50 -656
-122 -987 -253 -1193 -472 -2075 -1480 -2352 -2688 -75 -327 -107 -691 -87
-986 18 -267 48 -443 133 -777 27 -110 47 -201 45 -204 -3 -2 -14 0 -25 6 -34
18 -86 13 -136 -14 -80 -43 -104 -35 -206 60 -77 73 -111 88 -177 83 -51 -5
-55 -3 -65 21 -13 35 4 89 50 166 51 83 62 111 69 176 9 93 -34 143 -154 179
-87 26 -98 83 -42 211 25 58 32 89 33 141 1 61 -2 69 -29 99 -39 42 -83 59
-147 59 -29 0 -58 4 -64 8 -23 15 -34 53 -34 122 0 39 -6 86 -14 105 -30 72
-111 88 -203 42 -29 -15 -62 -27 -74 -27 -37 0 -90 32 -148 88 -100 98 -152
115 -210 66 -35 -29 -48 -69 -56 -175 -7 -88 -31 -135 -72 -145 -44 -11 -125
-54 -155 -82 -55 -51 -48 -96 31 -201 22 -30 46 -70 52 -89 11 -34 11 -36 -30
-70 -53 -44 -71 -79 -71 -141 0 -42 5 -56 31 -86 17 -19 61 -52 96 -72 84 -47
129 -91 137 -138 6 -31 2 -44 -24 -85 -56 -87 -50 -162 17 -221 20 -17 79 -51
132 -76 l96 -45 -24 -16 c-14 -9 -52 -45 -87 -79 -71 -72 -80 -74 -189 -43
-89 26 -151 26 -192 0 -54 -33 -56 -96 -8 -210 29 -67 44 -163 28 -173 -11 -7
-89 267 -138 486 -180 798 -188 1550 -25 2358 138 684 425 1368 822 1964 559
837 1317 1507 2223 1965 757 384 1538 590 2420 640 174 10 572 4 766 -10z
m-191 -2040 c163 -12 329 -34 470 -61 1526 -293 2711 -1463 2985 -2945 73
-395 75 -882 5 -1274 -57 -318 -211 -780 -284 -853 -29 -29 -65 -101 -66 -130
0 -24 -100 -221 -168 -331 -105 -171 -196 -290 -376 -494 -95 -108 -101 -112
-130 -105 -47 11 -76 7 -105 -14 -33 -25 -71 -98 -71 -139 0 -26 -11 -43 -52
-83 -29 -28 -64 -54 -78 -57 -48 -13 -80 -35 -106 -74 -18 -28 -67 -67 -153
-124 -498 -331 -1051 -537 -1671 -622 -178 -25 -656 -30 -847 -10 -655 69
-1229 273 -1784 634 -96 63 -129 90 -142 117 -17 35 -68 75 -98 75 -9 0 -42
23 -73 50 -31 28 -61 50 -67 50 -5 0 -9 23 -9 50 0 117 -57 170 -156 147 -29
-8 -35 -3 -121 90 -242 265 -411 492 -527 706 -36 67 -45 94 -49 150 -4 62 -9
73 -40 105 -23 25 -52 80 -90 172 -137 332 -224 673 -257 1009 -15 151 -12
514 5 676 90 844 467 1609 1091 2215 778 754 1876 1151 2964 1070z m4987
-3250 c41 -15 54 -48 62 -168 6 -79 12 -109 28 -130 25 -34 79 -62 121 -62 45
0 90 -25 98 -55 5 -20 -8 -48 -55 -127 -33 -56 -61 -113 -61 -126 0 -34 23
-71 74 -122 77 -75 61 -117 -72 -188 -90 -48 -131 -89 -157 -155 l-17 -46 41
-89 c23 -49 41 -100 41 -114 0 -39 -47 -74 -164 -119 -126 -48 -152 -69 -234
-188 -31 -47 -64 -89 -73 -94 -9 -5 -33 -7 -53 -3 l-38 7 6 43 c9 59 -10 132
-41 156 l-25 19 86 300 c47 166 86 306 86 313 0 25 -20 -14 -140 -272 -68
-146 -127 -270 -132 -276 -5 -6 -29 -14 -54 -17 -82 -9 -148 -65 -180 -152 -8
-21 -27 152 -23 210 9 138 7 146 -51 245 -48 82 -55 102 -55 147 0 66 27 97
117 133 82 33 103 63 103 143 0 47 -8 81 -33 140 -17 43 -32 93 -32 111 0 57
68 106 147 106 78 0 123 52 123 142 0 26 5 70 11 98 9 40 16 53 36 61 40 15
65 11 123 -21 30 -16 66 -29 78 -30 42 0 95 32 161 98 34 35 75 70 90 78 31
17 22 16 58 4z m-10467 -17 c14 -9 59 -48 100 -88 41 -39 90 -77 109 -85 31
-13 37 -11 107 23 130 64 161 49 170 -84 7 -104 18 -139 50 -170 23 -21 34
-24 95 -21 66 2 72 1 100 -27 38 -39 38 -70 -6 -187 -60 -160 -44 -213 80
-269 83 -38 105 -64 112 -129 5 -38 -2 -60 -43 -148 -53 -113 -62 -177 -32
-233 15 -27 15 -32 0 -60 -9 -18 -18 -69 -22 -130 -5 -92 -6 -96 -14 -55 -5
25 -14 56 -21 70 -31 59 -104 100 -178 100 -25 0 -49 6 -54 13 -5 6 -65 131
-133 277 -175 377 -177 376 -45 -43 64 -204 91 -303 83 -306 -25 -8 -57 -50
-69 -89 -10 -36 -10 -44 9 -77 l22 -36 -26 -9 c-68 -26 -120 10 -202 139 -45
71 -78 96 -177 136 -141 55 -165 75 -165 135 0 29 12 63 41 116 34 62 40 80
35 110 -9 47 -64 99 -155 149 -81 44 -131 96 -131 136 0 16 15 41 39 68 40 43
71 97 71 123 0 24 -47 114 -77 149 -17 19 -34 44 -38 57 -17 57 27 102 100
102 50 0 99 25 115 58 7 15 16 75 20 133 8 101 19 145 44 161 19 13 61 9 86
-9z m1079 -1537 c47 -46 96 -89 108 -95 37 -19 83 -12 134 19 114 70 149 47
163 -109 8 -81 37 -145 74 -159 15 -6 49 -13 77 -16 61 -8 122 -46 131 -83 5
-19 -5 -63 -34 -149 -69 -202 -58 -242 79 -269 59 -13 80 -22 102 -46 38 -41
33 -71 -35 -208 -28 -57 -53 -122 -55 -145 -7 -57 30 -144 64 -152 37 -10 53
-42 53 -106 0 -70 -15 -83 -105 -93 -33 -4 -67 -11 -76 -16 -10 -5 -33 1 -66
17 -43 22 -53 32 -73 81 -29 70 -329 654 -342 668 -19 18 -3 -33 125 -407 69
-203 121 -368 117 -368 -5 0 -22 -11 -38 -25 l-30 -25 -22 35 c-25 40 -85 75
-127 75 -15 0 -47 -9 -69 -19 l-42 -19 -4 62 c-7 108 -68 161 -182 158 -64 -1
-86 7 -128 46 -37 34 -36 70 2 150 58 123 33 181 -119 276 -97 62 -141 105
-141 139 0 12 20 40 48 66 97 91 101 134 26 246 -26 39 -49 85 -51 106 -5 35
-4 37 38 56 24 11 64 27 89 34 61 19 77 51 95 188 20 149 31 171 94 171 29 0
46 -12 120 -84z m8432 54 c17 -23 26 -62 49 -214 11 -74 35 -108 86 -121 21
-6 60 -19 87 -29 46 -18 47 -20 47 -61 0 -28 -6 -47 -17 -56 -9 -8 -34 -41
-55 -73 -55 -86 -52 -110 22 -185 49 -50 60 -67 60 -94 0 -44 -55 -97 -135
-132 -63 -28 -127 -82 -151 -127 -22 -43 -17 -78 23 -135 29 -43 36 -62 36
-100 0 -43 -4 -50 -43 -85 -38 -34 -48 -38 -95 -38 -127 0 -210 -68 -216 -177
l-3 -41 -35 19 c-20 10 -47 19 -61 19 -41 -1 -105 -36 -130 -71 -13 -19 -25
-36 -27 -38 -2 -3 -13 5 -26 16 -12 11 -29 24 -38 29 -15 8 1 57 123 392 77
211 137 386 134 390 -3 3 -7 3 -9 1 -15 -19 -338 -627 -358 -673 -21 -49 -34
-66 -73 -90 -47 -28 -49 -28 -82 -13 -19 9 -34 21 -34 27 0 5 -18 10 -39 10
-67 0 -71 4 -71 81 0 69 0 70 34 90 43 25 81 99 80 154 -1 28 -18 72 -57 148
-93 175 -76 241 67 262 32 5 59 17 80 35 28 26 31 33 29 87 -1 38 -14 94 -37
162 -20 57 -36 115 -36 128 0 14 13 38 29 54 26 26 37 29 93 30 129 2 148 22
159 171 6 98 8 103 39 130 36 33 50 32 121 -13 74 -47 110 -39 191 38 25 25
73 63 105 84 68 44 107 47 134 9z m-8853 -94 c97 -50 101 -141 10 -209 -69
-52 -200 6 -214 94 -14 85 118 160 204 115z m9246 -17 c45 -39 55 -84 30 -135
-27 -53 -64 -78 -115 -76 -141 6 -188 173 -64 228 54 24 110 18 149 -17z
m-9743 -60 c12 -12 32 -44 45 -73 50 -110 116 -134 222 -83 18 8 26 7 45 -10
12 -12 41 -26 65 -32 37 -10 42 -15 42 -40 0 -16 13 -53 28 -83 16 -30 32 -66
36 -81 3 -14 15 -35 27 -45 15 -14 18 -26 13 -46 -3 -14 -12 -26 -18 -26 -18
0 -63 -50 -75 -83 -18 -48 -13 -111 12 -148 12 -18 58 -56 102 -85 44 -28 97
-67 118 -85 33 -29 38 -39 32 -62 -4 -15 -11 -27 -16 -27 -4 0 -111 54 -236
119 -125 65 -230 115 -232 109 -1 -5 -1 -10 0 -12 2 -1 97 -79 212 -174 155
-129 207 -178 207 -195 1 -38 36 -103 69 -126 l31 -23 -40 -45 c-22 -25 -40
-51 -40 -58 0 -6 -9 -20 -20 -30 -10 -9 -24 -34 -31 -54 -21 -65 -28 -63 -44
16 -7 33 -44 71 -99 101 -25 13 -51 15 -126 12 -230 -9 -227 -10 -267 34 l-36
39 7 74 c6 72 5 76 -22 103 -32 32 -88 45 -227 55 -121 8 -150 18 -169 59 -20
42 -20 77 -1 123 8 19 15 51 15 69 0 28 -7 39 -38 62 -38 27 -89 51 -146 68
-16 5 -38 21 -49 35 -18 26 -19 28 -1 64 10 21 39 53 65 72 26 18 52 46 57 61
12 34 -4 89 -45 157 -45 74 -58 119 -43 156 24 57 64 62 190 24 141 -42 183
-33 240 54 53 79 101 100 141 60z m10191 -9 c108 -142 131 -150 293 -105 50
14 103 25 118 25 82 0 89 -56 23 -173 -73 -128 -72 -168 6 -254 65 -71 75 -99
50 -132 -10 -14 -40 -33 -67 -43 -59 -21 -120 -61 -140 -92 -13 -20 -14 -33
-4 -82 6 -33 12 -81 13 -108 2 -73 -24 -86 -201 -95 -223 -13 -258 -41 -237
-187 8 -53 -14 -96 -60 -118 -40 -19 -88 -20 -208 -5 -141 18 -221 -16 -234
-103 -8 -45 -22 -58 -37 -33 -5 10 -24 34 -42 54 -18 20 -35 48 -39 63 -3 15
-17 40 -30 55 l-24 27 38 43 c21 24 43 64 51 92 13 46 24 57 209 211 107 89
201 168 209 176 34 32 -2 20 -100 -32 -139 -74 -355 -184 -362 -184 -4 0 -14
11 -23 25 -16 25 -16 27 7 51 13 14 66 51 117 81 96 58 147 106 158 148 11 43
-6 95 -43 135 -19 22 -43 56 -53 76 -17 32 -17 38 -4 51 8 8 26 36 39 62 13
25 33 60 44 76 12 17 21 44 21 62 0 28 4 33 36 42 20 6 47 20 60 32 l23 21 46
-22 c78 -38 149 -6 196 87 53 106 106 131 151 73z m-8778 -122 c6 -31 4 -38
-9 -38 -11 0 -15 11 -15 47 0 53 14 48 24 -9z m7288 7 c-9 -25 -20 -45 -24
-45 -12 0 -10 7 12 50 27 53 33 51 12 -5z m1968 -241 l-30 -89 5 63 c3 43 12
74 26 93 12 17 23 28 25 26 3 -2 -9 -44 -26 -93z m-9040 -198 c0 -6 16 -37 35
-69 19 -32 35 -59 35 -61 0 -2 -18 0 -41 4 -56 10 -74 31 -73 84 1 62 10 82
29 66 8 -7 15 -18 15 -24z m6869 -52 c1 -43 -19 -65 -67 -74 -23 -4 -42 -5
-42 -1 0 3 21 36 47 74 50 72 61 73 62 1z m-8919 -208 c0 -18 -17 8 -24 34
l-7 25 15 -25 c9 -14 15 -29 16 -34z m10957 14 c-11 -30 -27 -41 -27 -18 0 10
28 48 36 48 1 0 -3 -13 -9 -30z m-8628 -196 c41 -49 111 -126 155 -171 57 -59
77 -86 69 -94 -7 -7 -23 4 -54 40 -78 88 -172 124 -227 85 -26 -18 -52 -65
-52 -94 0 -11 -7 -20 -15 -20 -18 0 -85 58 -85 74 0 7 22 59 50 115 27 56 53
121 56 143 6 33 9 38 18 27 6 -8 44 -55 85 -105z m6371 76 c0 -8 18 -43 40
-78 70 -110 79 -211 22 -234 -15 -5 -35 -14 -44 -19 -15 -8 -18 -5 -18 16 0
34 -24 80 -52 99 -49 34 -111 14 -192 -63 l-49 -46 58 75 c32 41 94 123 138
183 77 103 96 116 97 67z m-6987 -185 c32 -60 48 -99 37 -85 -26 35 -121 229
-97 199 2 -2 29 -53 60 -114z m7512 5 c-9 -16 -18 -30 -21 -30 -2 0 2 14 11
30 9 17 18 30 21 30 2 0 -2 -13 -11 -30z m-8838 -36 c21 -13 23 -22 23 -108 0
-111 11 -131 92 -166 56 -24 50 -24 280 -4 73 6 77 6 102 -19 17 -17 26 -37
26 -57 0 -31 37 -79 70 -93 12 -4 10 -10 -10 -26 -22 -18 -39 -21 -148 -21
-136 0 -175 -10 -210 -55 -43 -54 -21 -129 62 -215 29 -30 61 -66 70 -80 24
-37 20 -82 -9 -110 -14 -13 -25 -18 -25 -12 0 7 -31 54 -68 104 -162 220 -325
482 -444 717 -43 85 -78 158 -78 164 0 16 240 -1 267 -19z m10133 22 c0 -3 -4
-8 -10 -11 -5 -3 -10 -1 -10 4 0 6 5 11 10 11 6 0 10 -2 10 -4z m300 -8 c0
-15 -151 -287 -278 -497 -152 -255 -312 -491 -332 -491 -9 0 -60 69 -60 82 0
4 32 44 70 90 110 129 133 196 88 253 -34 44 -75 55 -202 55 -95 0 -117 3
-136 18 l-22 18 31 31 c23 23 31 41 31 67 0 26 7 40 27 56 27 21 34 22 193 15
160 -6 166 -6 210 17 64 33 93 91 87 176 -6 84 9 104 89 113 106 11 204 10
204 -3z m-2205 -62 c47 -20 55 -41 56 -148 0 -152 27 -193 133 -207 76 -10 81
-17 56 -74 -11 -25 -20 -61 -18 -80 1 -21 -6 -45 -20 -64 -59 -83 -53 -122 34
-205 86 -83 85 -104 -8 -175 -29 -23 -72 -46 -94 -52 -47 -12 -107 -71 -130
-127 -29 -69 -12 -156 40 -203 43 -40 35 -57 -27 -53 -40 3 -70 -3 -127 -26
-41 -16 -94 -32 -117 -36 l-43 -6 -30 54 c-33 58 -46 72 -71 77 -13 3 -6 45
52 289 37 157 68 291 68 298 2 28 -15 9 -35 -41 -12 -28 -70 -161 -129 -295
l-108 -243 -41 39 c-66 64 -144 78 -222 43 -23 -10 -54 -35 -69 -56 l-29 -37
-12 25 c-14 25 -9 42 42 165 17 39 18 115 4 143 -6 11 -24 25 -41 32 l-30 12
33 16 c18 9 46 21 61 28 62 25 73 121 27 256 -36 105 -37 127 -9 166 28 39 51
50 127 59 91 12 100 24 119 151 17 122 29 146 80 155 30 6 46 1 93 -25 67 -36
87 -38 139 -11 37 19 131 113 131 132 0 8 55 37 73 38 4 0 23 -6 42 -14z
m-6160 -76 c47 -44 99 -87 117 -96 42 -22 104 -14 154 20 48 32 84 33 113 2
18 -19 23 -41 30 -117 8 -102 28 -153 63 -165 13 -5 54 -8 92 -9 l69 0 24 -44
c29 -55 29 -72 -2 -168 -46 -145 -28 -227 59 -274 44 -24 47 -27 27 -34 -28
-8 -61 -61 -61 -96 0 -33 32 -134 58 -182 17 -32 18 -44 9 -78 -10 -42 -27
-37 -27 8 0 26 -47 67 -96 83 -20 7 -65 10 -100 8 -52 -3 -72 -10 -110 -37
-25 -17 -47 -31 -48 -29 -2 2 -56 125 -121 273 -65 149 -122 274 -126 279 -16
18 -9 -25 50 -309 l59 -280 -23 -18 c-13 -10 -40 -40 -59 -67 -44 -61 -57 -62
-164 -15 -84 37 -115 42 -174 30 -34 -6 -38 -5 -38 13 0 11 11 29 24 39 43 34
66 83 66 141 0 99 -44 153 -179 222 -81 40 -131 87 -131 122 0 11 21 41 47 67
27 25 56 57 65 71 30 43 21 97 -25 147 -14 16 -18 30 -14 50 3 15 -1 54 -10
86 -18 66 -13 76 42 77 53 2 98 24 122 59 20 30 23 46 23 138 0 111 8 139 43
153 48 19 67 11 152 -70z m-1120 -92 c32 -25 55 -74 55 -117 0 -42 -41 -86
-97 -104 -58 -19 -81 -11 -127 46 -57 71 -27 148 70 182 54 19 67 18 99 -7z
m8355 6 c27 -9 61 -27 76 -41 24 -22 26 -29 20 -71 -7 -57 -31 -91 -78 -115
-34 -17 -37 -17 -80 2 -47 20 -82 59 -93 104 -9 33 25 91 69 118 37 23 27 22
86 3z m-8098 -174 c10 0 33 -21 53 -47 28 -39 35 -57 35 -96 0 -139 141 -234
267 -182 20 9 52 27 70 41 l32 25 21 -42 21 -41 -42 -36 c-23 -21 -49 -41 -56
-46 -19 -11 -43 -68 -43 -103 0 -21 15 -42 64 -89 l63 -60 -31 -22 c-18 -12
-37 -22 -44 -22 -6 0 -133 38 -281 85 -149 47 -273 85 -276 85 -25 0 30 -33
240 -145 l245 -130 0 -48 c0 -103 78 -174 204 -186 54 -5 60 -8 67 -33 9 -34
-8 -177 -23 -196 -18 -21 -40 -10 -67 37 -53 90 -126 101 -290 44 -131 -45
-197 -49 -235 -14 -14 13 -28 38 -30 55 -3 17 -8 48 -11 70 -4 21 -17 49 -30
62 -20 20 -34 24 -87 24 -35 0 -106 -11 -158 -25 -110 -29 -150 -31 -190 -10
-39 20 -53 67 -45 152 9 82 -4 98 -86 114 -120 22 -135 26 -156 37 -51 28 -49
62 9 135 15 18 22 41 22 65 -2 47 -44 131 -93 185 -56 63 -71 88 -71 124 0 51
25 60 172 65 109 3 132 7 155 24 40 30 73 82 73 117 l0 30 30 -44 c39 -60 95
-90 164 -90 87 0 135 18 196 76 60 58 75 66 105 60 11 -3 28 -5 37 -5z m7878
-36 c28 -26 50 -52 50 -59 0 -15 39 -33 88 -41 80 -13 184 38 227 110 16 26
26 35 29 26 2 -8 10 -37 18 -64 7 -27 23 -57 36 -66 32 -26 108 -40 211 -40
107 0 141 -18 141 -76 0 -28 -11 -45 -65 -102 -106 -113 -120 -178 -60 -272
37 -58 41 -71 25 -99 -13 -25 -53 -38 -137 -45 -39 -3 -83 -10 -96 -15 -35
-13 -56 -66 -50 -122 11 -93 -34 -159 -108 -159 -21 0 -73 11 -116 25 -171 54
-254 19 -284 -123 -14 -69 -41 -87 -124 -86 -42 1 -90 13 -158 38 -112 41
-161 45 -218 16 -30 -16 -45 -33 -59 -65 -13 -31 -25 -45 -38 -45 -22 0 -31
21 -53 115 -12 52 -12 64 1 92 13 28 20 33 51 33 114 0 211 83 225 191 l6 45
232 128 c127 71 233 130 235 132 22 20 -44 1 -259 -71 -140 -47 -263 -85 -274
-85 -12 0 -36 9 -55 21 l-34 20 51 47 c95 89 82 164 -46 264 -12 10 -22 29
-22 42 0 30 20 76 32 76 5 0 25 -17 46 -39 66 -69 188 -77 261 -16 40 34 70
100 72 158 3 64 45 133 91 146 61 17 77 13 128 -35z m-7505 -6 c27 -24 44 -77
45 -139 0 -89 -114 -119 -211 -54 -74 48 -72 115 4 180 34 29 48 35 88 35 35
0 55 -6 74 -22z m7135 7 c64 -33 94 -108 66 -163 -20 -38 -88 -72 -145 -72
-35 0 -48 6 -72 31 -28 30 -33 51 -30 124 3 46 60 95 111 95 23 0 54 -7 70
-15z m-5670 -417 c36 -19 101 -50 145 -69 44 -18 82 -35 85 -37 2 -2 -12 -20
-33 -40 -20 -20 -48 -49 -61 -64 -16 -18 -35 -28 -53 -28 -37 0 -162 60 -195
93 -15 15 -56 35 -97 47 -106 33 -123 72 -77 173 13 29 26 60 29 69 5 14 21 7
99 -46 51 -34 122 -78 158 -98z m4344 103 c29 -65 34 -126 11 -157 -7 -12 -41
-31 -73 -42 -32 -12 -74 -33 -93 -47 -55 -40 -171 -95 -202 -95 -44 0 -63 15
-95 74 l-29 55 91 45 c50 25 150 86 221 135 72 49 133 90 136 90 4 1 18 -25
33 -58z m-3943 -341 c77 -138 132 -169 210 -116 58 40 81 41 118 10 41 -35 49
-54 61 -167 12 -104 36 -164 82 -202 30 -26 34 -26 128 -20 64 5 104 4 118 -4
33 -18 51 -85 55 -212 l3 -117 -75 5 c-107 7 -160 -18 -204 -95 l-23 -41 -218
165 c-119 90 -214 159 -210 152 4 -6 -9 1 -30 17 -20 15 -39 25 -42 22 -5 -5
51 -61 319 -317 l78 -74 -28 -14 c-47 -24 -61 -42 -79 -96 -26 -82 -27 -82
-143 -61 -82 15 -108 16 -139 7 -51 -16 -49 -17 -56 18 -8 43 -90 127 -135
140 -20 5 -72 13 -116 16 -104 8 -139 19 -170 55 -31 37 -32 75 -4 136 49 107
31 150 -83 206 -42 21 -83 46 -93 57 -17 18 -15 21 43 87 32 37 64 78 71 90
22 42 13 103 -29 192 -44 97 -46 149 -6 176 30 22 60 18 170 -20 152 -53 200
-47 252 36 13 22 39 48 57 59 43 27 61 14 118 -90z m3449 30 c57 -89 122 -100
245 -44 71 33 160 43 189 21 29 -21 24 -62 -19 -157 -62 -136 -58 -213 11
-250 14 -8 32 -28 40 -45 7 -16 19 -38 26 -47 17 -24 -9 -50 -94 -95 -113 -59
-128 -94 -82 -186 29 -57 35 -117 13 -143 -24 -29 -90 -52 -189 -64 -52 -7
-106 -18 -120 -25 -47 -24 -119 -96 -132 -130 l-12 -35 -98 0 c-78 0 -100 -3
-104 -15 -8 -19 -48 -19 -64 0 -7 8 -19 15 -26 15 -8 0 -20 24 -30 57 -11 38
-29 70 -51 92 l-34 34 187 188 c104 104 185 191 181 195 -6 7 -76 -42 -352
-244 l-150 -110 -16 37 c-32 72 -101 106 -205 99 l-64 -4 -2 76 c-5 165 9 220
63 247 14 8 65 13 127 13 90 0 104 2 123 21 33 33 49 82 63 195 15 114 30 145
77 170 36 18 71 15 142 -12 43 -17 50 -18 75 -4 15 8 50 51 79 95 29 44 66 92
83 108 29 26 32 26 59 13 16 -9 43 -38 61 -66z m-4580 -40 c53 -120 57 -132
31 -95 -24 35 -97 216 -77 194 2 -2 22 -47 46 -99z m-1958 1 c2 -17 1 -28 -4
-25 -8 5 -12 54 -4 54 2 0 6 -13 8 -29z m3256 -19 c51 -23 40 -42 -24 -42 -37
0 -47 5 -68 33 -15 19 -26 36 -26 39 0 9 72 -9 118 -30z m3018 -7 c-23 -29
-33 -35 -66 -35 -21 0 -41 4 -44 9 -6 8 125 74 132 66 3 -3 -7 -20 -22 -40z
m24 -9 c0 -2 -8 -10 -17 -17 -16 -13 -17 -12 -4 4 13 16 21 21 21 13z m-4847
-24 c41 -28 56 -53 57 -95 0 -74 -54 -137 -119 -137 -46 0 -103 38 -125 83
-28 61 -19 91 46 137 48 35 99 39 141 12z m6673 -3 c35 -21 74 -76 74 -103 0
-60 -78 -126 -148 -126 -37 0 -50 6 -78 34 -23 23 -34 43 -34 63 0 121 95 189
186 132z m1126 -112 l-52 -52 0 36 c0 34 3 38 48 56 26 11 49 18 52 16 2 -2
-19 -27 -48 -56z m-9026 25 c23 -18 41 -72 24 -72 -5 0 -10 4 -10 10 0 5 -16
28 -35 49 -37 40 -23 48 21 13z m3487 -24 l118 -31 -29 -31 c-16 -17 -55 -68
-87 -113 -67 -95 -86 -106 -123 -70 -22 22 -26 38 -33 124 -4 54 -11 113 -14
131 -7 38 -23 39 168 -10z m2203 15 c-4 -9 -11 -59 -16 -109 -12 -134 -32
-166 -93 -150 -13 3 -46 39 -77 82 -30 43 -72 90 -93 105 -21 15 -34 30 -29
33 4 2 53 14 108 25 186 37 209 39 200 14z m-1761 -92 c387 -74 775 -74 1130
-1 53 11 101 20 106 20 5 0 -13 -33 -40 -74 -27 -41 -57 -95 -67 -120 l-19
-46 -147 0 -147 0 -3 28 -3 27 -245 0 -245 0 -3 -27 -3 -28 -149 0 -148 0 -16
48 c-16 48 -80 152 -94 152 -4 0 -13 9 -20 20 -15 25 -15 25 113 1z m-1814
-17 c50 -45 66 -131 35 -179 -18 -28 -75 -55 -115 -55 -73 0 -136 72 -127 145
4 31 14 48 48 79 40 35 47 38 91 33 27 -2 56 -12 68 -23z m4935 -18 c38 -37
44 -49 44 -84 0 -59 -17 -89 -65 -112 -49 -24 -83 -25 -129 -6 -38 16 -66 73
-66 135 0 46 16 66 75 92 65 30 92 25 141 -25z m-3297 20 c37 -20 79 -68 126
-147 21 -35 49 -78 62 -95 22 -30 23 -33 8 -75 -8 -24 -26 -113 -39 -197 -14
-85 -26 -156 -29 -158 -2 -2 -17 2 -33 11 -16 8 -45 15 -65 15 -26 0 -42 7
-61 28 -37 40 -40 54 -43 194 -2 117 -4 131 -31 183 -31 61 -56 85 -91 85 -31
0 -36 14 -20 52 39 89 145 140 216 104z m1649 -38 c18 -18 47 -59 64 -92 29
-57 33 -81 8 -51 -17 21 -63 19 -93 -5 -53 -42 -67 -93 -67 -244 0 -75 -5
-146 -10 -157 -13 -23 -81 -59 -112 -59 -13 0 -37 -9 -54 -19 l-31 -19 -32
208 -33 208 25 34 c14 18 39 61 55 94 49 97 148 162 216 143 16 -5 45 -23 64
-41z m-3567 -85 c8 -63 19 -83 70 -127 53 -45 129 -64 183 -46 31 10 40 10 54
-3 9 -8 54 -35 99 -61 112 -64 112 -64 78 -136 -24 -50 -27 -67 -22 -115 l6
-56 -32 5 c-66 10 -502 17 -492 8 6 -5 155 -35 333 -68 308 -56 323 -59 317
-79 -23 -70 -28 -115 -17 -152 16 -52 63 -106 114 -132 l43 -21 -40 0 c-49 0
-96 -22 -199 -88 -99 -65 -142 -79 -195 -64 -32 10 -43 21 -70 72 -36 66 -61
88 -114 97 -47 7 -95 -9 -198 -68 -70 -39 -96 -49 -134 -49 -64 0 -99 35 -109
107 -13 102 -71 132 -213 112 -72 -11 -85 -10 -107 5 -30 19 -34 61 -11 107
21 40 22 113 1 144 -9 14 -51 49 -94 78 -96 65 -129 97 -138 132 -11 44 35 79
133 100 113 25 181 53 200 81 12 19 14 40 10 91 -5 63 -3 68 23 94 23 24 32
26 61 20 19 -5 66 -25 104 -45 39 -20 84 -36 102 -36 34 0 93 42 93 66 0 24
60 83 88 86 52 7 66 -5 73 -59z m5429 47 c10 -5 24 -25 30 -44 6 -19 27 -49
47 -67 33 -29 41 -31 94 -27 45 3 68 12 110 40 81 54 93 56 134 15 33 -33 35
-39 35 -99 0 -91 22 -110 176 -153 70 -20 125 -42 138 -54 19 -20 20 -23 6
-63 -12 -34 -29 -52 -90 -95 -110 -77 -140 -113 -140 -165 0 -24 7 -56 15 -72
34 -64 7 -136 -51 -136 -14 0 -68 5 -120 11 -86 10 -97 10 -115 -6 -19 -18
-33 -58 -44 -129 -9 -56 -43 -86 -99 -86 -36 0 -68 12 -151 55 -146 77 -208
74 -271 -12 -55 -75 -76 -92 -119 -99 -52 -7 -108 15 -187 74 -71 53 -130 82
-169 82 l-32 0 33 22 c49 34 87 87 102 141 12 48 9 66 -26 147 -5 13 46 25
311 74 175 32 323 63 328 68 10 9 -446 2 -494 -8 -21 -4 -23 -2 -17 18 20 67
18 87 -8 133 -45 76 -45 76 130 186 52 33 61 35 97 27 65 -14 158 13 199 59
24 26 48 87 48 121 0 42 56 66 100 42z m-6915 -360 c110 -106 166 -165 125
-130 -41 36 -167 156 -280 269 -113 113 -169 171 -125 130 44 -41 170 -162
280 -269z m8307 321 c169 -36 168 -18 10 -163 -256 -236 -443 -388 -647 -527
l-120 -82 -13 43 c-28 89 -10 128 71 164 91 39 157 112 157 172 0 35 -38 85
-82 108 -16 8 -55 19 -85 24 -31 5 -57 11 -59 13 -2 2 1 18 7 36 22 63 109 68
255 15 118 -43 180 -46 228 -13 42 28 72 72 92 135 16 49 53 94 79 94 7 0 55
-9 107 -19z m-8158 -12 c19 -15 26 -30 26 -55 0 -76 54 -143 132 -164 48 -14
107 -2 213 42 74 31 156 45 199 34 17 -4 31 -18 41 -42 20 -50 20 -51 -22 -59
-117 -22 -203 -84 -203 -147 0 -60 65 -132 143 -157 54 -18 107 -71 107 -107
0 -35 -32 -98 -51 -102 -16 -3 -292 202 -454 337 -60 51 -185 160 -278 243
l-167 151 68 18 c142 36 208 38 246 8z m3980 -241 c16 -154 20 -177 30 -167 2
2 8 77 12 167 l7 162 73 0 c48 0 74 -4 74 -11 0 -19 64 -742 120 -1354 9 -104
14 -194 10 -198 -4 -4 -67 -6 -141 -5 l-134 3 -9 163 c-4 89 -12 162 -17 162
-5 0 -9 -4 -9 -9 0 -22 -31 -297 -35 -308 -3 -10 -39 -13 -135 -13 -71 0 -130
2 -130 4 0 2 27 350 60 772 33 422 60 773 60 781 0 10 19 13 73 13 l74 0 17
-162z m-234 106 c0 -56 -101 -1428 -106 -1433 -2 -3 -81 6 -174 18 -146 21
-170 26 -170 41 0 10 25 157 55 326 30 170 81 471 115 669 33 198 62 370 65
383 5 21 10 22 110 22 l105 0 0 -26z m730 21 c0 -4 50 -314 110 -691 61 -377
110 -694 110 -703 0 -16 -23 -21 -170 -42 -93 -12 -172 -21 -174 -18 -5 5
-106 1377 -106 1433 l0 26 115 0 c63 0 115 -2 115 -5z m-471 -114 c1 -51 -5
-34 -12 29 -4 36 -3 46 3 30 4 -14 8 -40 9 -59z m210 -20 c1 -86 -5 -74 -12
24 -3 48 -2 72 3 60 5 -11 9 -49 9 -84z m-712 47 c-3 -8 -6 -5 -6 6 -1 11 2
17 5 13 3 -3 4 -12 1 -19z m4763 -1 c0 -1 -30 -32 -67 -67 l-68 -65 65 68 c60
62 70 72 70 64z m-2080 -27 c-14 -11 -29 -20 -35 -20 -5 0 4 9 20 20 38 25 48
25 15 0z m-2693 -27 c-3 -10 -5 -4 -5 12 0 17 2 24 5 18 2 -7 2 -21 0 -30z
m-961 -104 c11 -19 -29 7 -51 32 l-20 23 32 -23 c18 -12 35 -27 39 -32z m1691
-21 c-2 -13 -4 -5 -4 17 -1 22 1 32 4 23 2 -10 2 -28 0 -40z m-1095 -128 c35
-38 55 -102 42 -137 -11 -31 -67 -63 -124 -70 -32 -5 -46 -1 -73 20 -64 49
-71 107 -20 168 55 65 126 73 175 19z m1856 27 c40 -15 90 -61 98 -90 6 -27
-20 -93 -49 -124 -36 -40 -125 -28 -179 25 -48 44 -33 120 32 176 34 28 49 30
98 13z m-4893 -47 c10 -11 16 -20 13 -20 -3 0 -13 9 -23 20 -10 11 -16 20 -13
20 3 0 13 -9 23 -20z m3183 -37 c-5 -26 -38 -29 -38 -4 0 15 6 21 21 21 14 0
19 -5 17 -17z m1482 -3 c0 -18 -3 -19 -20 -10 -11 6 -20 15 -20 20 0 6 9 10
20 10 13 0 20 -7 20 -20z m-1380 -42 c-1 -28 -67 -468 -71 -472 -2 -2 -120
-30 -262 -63 -142 -33 -257 -64 -256 -69 0 -5 4 -8 7 -7 4 0 112 4 240 8 223
7 232 7 232 -11 0 -11 -10 -85 -22 -166 l-22 -148 -33 -11 c-48 -15 -149 -92
-219 -166 -56 -60 -63 -64 -99 -61 -34 3 -42 8 -65 48 -32 55 -109 110 -154
110 -18 0 -61 -11 -96 -25 -77 -30 -140 -33 -164 -6 -13 15 -15 31 -11 87 10
110 -15 138 -171 189 -101 33 -121 47 -133 92 -15 54 4 75 112 129 97 47 145
86 149 119 1 11 -1 55 -6 98 -14 132 6 150 132 117 117 -29 154 -27 186 11 18
21 26 42 26 69 0 21 3 46 6 55 15 38 121 61 155 33 8 -7 26 -29 39 -49 51 -78
139 -107 228 -75 26 10 60 22 75 28 17 7 45 35 68 69 28 42 49 61 72 68 45 13
57 13 57 -1z m1332 -10 c10 -4 35 -35 57 -67 36 -52 46 -60 103 -79 36 -12 81
-22 102 -22 65 0 142 52 165 111 6 18 19 28 41 33 87 17 117 -3 144 -95 8 -30
24 -64 35 -73 29 -26 97 -31 161 -12 70 21 128 21 152 -1 20 -18 24 -72 8
-137 -13 -58 7 -98 67 -132 67 -39 155 -103 175 -128 47 -57 5 -109 -115 -145
-83 -24 -129 -51 -160 -93 -15 -20 -19 -41 -19 -99 1 -40 -3 -81 -9 -91 -12
-23 -57 -24 -136 -3 -86 23 -165 28 -184 13 -9 -7 -28 -33 -44 -58 -37 -61
-63 -80 -108 -80 -49 0 -107 39 -177 120 -50 58 -112 99 -171 113 -24 6 -26
12 -47 154 -12 81 -22 156 -22 167 0 18 10 18 250 11 181 -5 250 -4 250 4 0 6
-10 11 -22 12 -13 0 -131 26 -263 57 l-240 57 -37 200 c-20 110 -39 219 -43
243 l-6 43 38 -7 c21 -4 46 -11 55 -16z m-2537 -58 c80 -50 76 -157 -9 -209
-58 -36 -118 -22 -171 41 -23 27 -26 39 -22 77 4 36 13 52 41 78 30 27 44 33
82 33 29 0 59 -8 79 -20z m3816 -7 c31 -26 59 -77 59 -107 0 -23 -61 -87 -97
-102 -49 -21 -88 -17 -123 12 -59 50 -76 117 -42 162 52 67 145 83 203 35z
m-5468 -156 c39 -30 115 -82 167 -117 88 -58 137 -95 100 -75 -81 44 -480 319
-480 331 0 6 132 -80 213 -139z m4851 48 c6 -18 5 -18 -7 -5 -8 8 -18 26 -22
40 -7 24 -6 24 7 5 8 -11 18 -29 22 -40z m2251 37 c-25 -22 -115 -83 -115 -78
0 6 110 86 119 86 3 0 1 -4 -4 -8z m-4975 -31 c-5 -11 -15 -23 -21 -27 -6 -3
-3 5 6 20 20 30 30 35 15 7z m-1702 -133 c5 -7 13 -30 16 -52 5 -31 4 -37 -9
-33 -22 9 -115 80 -115 89 0 13 97 9 108 -4z m6227 2 c3 -5 -26 -25 -65 -45
-77 -39 -91 -31 -44 24 21 25 34 31 64 31 21 0 42 -4 45 -10z m-4921 -16 c25
-10 21 -79 -6 -104 -35 -32 -73 -26 -117 20 -33 35 -35 40 -17 40 12 0 43 11
70 25 56 29 50 27 70 19z m3566 -19 c27 -14 66 -25 87 -25 l38 0 -28 -18 c-15
-10 -36 -28 -48 -40 -22 -24 -64 -28 -104 -10 -20 9 -25 18 -25 49 0 43 8 69
21 69 5 0 32 -11 59 -25z m-4349 -65 c10 -6 30 -32 43 -58 29 -57 68 -96 119
-117 68 -28 133 -5 269 96 44 32 90 62 102 65 25 6 76 -11 76 -25 0 -5 16 -19
35 -31 29 -18 33 -25 24 -36 -6 -8 -16 -14 -22 -14 -19 0 -77 -51 -92 -80 -29
-56 -13 -118 39 -149 17 -10 68 -31 113 -45 125 -41 157 -74 144 -148 l-6 -38
-145 49 c-232 78 -438 164 -695 291 -132 65 -248 125 -259 133 -17 12 -10 17
75 59 132 64 143 67 180 48z m5224 -34 c33 -18 77 -38 98 -45 20 -7 35 -17 31
-22 -13 -22 -395 -195 -672 -305 -166 -66 -437 -164 -453 -164 -5 0 -9 24 -9
54 0 47 4 57 26 75 15 12 45 26 68 32 68 18 164 66 191 95 49 53 26 129 -59
196 l-45 35 41 31 c32 25 52 32 85 32 52 0 65 -6 158 -76 39 -28 85 -59 103
-68 42 -22 100 -23 139 -3 34 18 85 73 108 117 36 69 85 73 190 16z m-5845
-12 c0 -2 -9 0 -20 6 -11 6 -20 13 -20 16 0 2 9 0 20 -6 11 -6 20 -13 20 -16z
m50 -30 c0 -2 -9 0 -20 6 -11 6 -20 13 -20 16 0 2 9 0 20 -6 11 -6 20 -13 20
-16z m3993 -572 c37 -37 67 -72 67 -78 0 -13 -69 -24 -290 -50 -187 -21 -901
-31 -1138 -15 -169 12 -481 47 -490 55 -2 3 30 39 71 80 l74 76 54 0 c30 -1
133 -11 229 -23 l175 -22 3 -38 3 -37 349 0 349 0 3 38 3 37 210 26 c116 15
221 24 235 22 14 -3 55 -35 93 -71z m-2193 -12 c0 -5 -7 -7 -15 -4 -8 4 -12
10 -9 15 6 11 24 2 24 -11z m2640 6 c0 -2 -7 -7 -16 -10 -8 -3 -12 -2 -9 4 6
10 25 14 25 6z"/>
<path d="M5685 11324 c-543 -40 -885 -99 -1335 -229 -1381 -400 -2553 -1304
-3285 -2535 -94 -158 -249 -465 -323 -640 -226 -534 -371 -1117 -418 -1677
l-7 -83 35 0 35 0 7 98 c20 278 86 663 165 957 338 1267 1158 2391 2287 3138
1241 821 2768 1123 4254 841 1947 -369 3571 -1744 4229 -3582 115 -321 206
-685 256 -1027 15 -103 44 -369 45 -407 0 -14 8 -18 35 -18 19 0 35 5 35 10 0
35 -34 325 -50 432 -310 2002 -1694 3668 -3639 4379 -445 163 -929 272 -1441
324 -146 15 -761 28 -885 19z"/>
<path d="M5420 11085 c-19 -7 -55 -14 -80 -14 -50 -1 -169 -19 -182 -27 -15
-10 12 -32 45 -39 84 -16 105 -38 113 -113 36 -340 72 -817 63 -834 -6 -11
-30 -28 -55 -38 -46 -20 -57 -44 -25 -55 33 -10 310 14 341 30 16 8 36 15 45
15 8 0 15 4 15 9 0 17 -25 29 -73 36 -86 13 -80 -7 -136 440 -28 220 -51 419
-51 443 0 58 12 77 60 96 33 13 41 21 38 39 -2 18 -10 22 -43 24 -22 1 -56 -4
-75 -12z"/>
<path d="M6870 11032 c0 -12 18 -26 53 -43 44 -20 52 -29 55 -54 2 -24 -142
-643 -189 -809 -16 -58 -58 -96 -106 -96 -72 0 -86 -43 -20 -60 23 -6 71 -20
107 -31 36 -12 101 -27 145 -34 44 -7 90 -16 103 -20 19 -6 22 -4 22 19 0 21
-9 30 -50 51 -41 21 -51 31 -60 64 -13 49 -15 40 107 514 111 429 98 405 201
372 71 -22 117 -51 164 -103 45 -50 55 -68 68 -127 32 -143 -66 -274 -195
-262 -27 3 -92 13 -143 22 -52 9 -96 14 -100 10 -11 -11 14 -39 56 -63 59 -33
194 -41 277 -18 183 53 281 208 233 369 -19 64 -98 141 -192 187 -85 42 -263
93 -406 116 -116 18 -130 18 -130 -4z"/>
<path d="M4365 10887 c-49 -22 -191 -75 -315 -118 -399 -135 -475 -165 -478
-185 -5 -33 63 -219 81 -222 15 -3 17 6 17 62 0 53 4 70 20 86 11 11 25 20 31
20 7 0 67 25 135 56 67 31 129 54 136 51 11 -4 230 -543 315 -775 l23 -63 -45
-48 c-44 -47 -55 -74 -35 -86 11 -7 173 46 231 76 23 11 58 19 89 19 l51 0 -3
33 -3 32 -56 -3 c-48 -2 -61 1 -83 20 -18 17 -68 131 -181 416 -85 217 -155
404 -155 417 0 16 7 26 23 30 12 4 74 29 139 56 66 28 132 49 152 49 33 0 38
-4 58 -45 22 -44 41 -60 60 -49 15 9 4 49 -37 137 -43 92 -43 92 -170 34z"/>
<path d="M6203 10636 c-46 -16 -74 -47 -75 -85 -1 -45 26 -68 96 -83 58 -11
59 -11 83 16 28 33 31 94 6 125 -25 29 -71 41 -110 27z"/>
<path d="M8595 10377 c-55 -39 -263 -187 -463 -329 -199 -142 -376 -265 -393
-274 -17 -8 -47 -14 -67 -12 -21 2 -37 -2 -39 -9 -5 -14 97 -83 122 -83 21 0
105 -49 105 -61 0 -5 9 -9 19 -9 31 0 33 29 5 63 -21 25 -25 38 -20 65 7 48
23 62 145 133 58 34 110 68 114 75 10 18 22 18 39 0 14 -13 296 -166 332 -179
14 -6 17 -13 11 -35 -4 -15 -10 -83 -15 -152 -4 -69 -13 -137 -19 -152 -10
-26 -15 -28 -64 -28 -48 0 -77 -12 -77 -31 0 -8 46 -34 105 -58 22 -9 72 -38
112 -64 121 -82 209 -74 107 9 -25 20 -49 45 -54 54 -11 21 3 161 71 692 60
468 59 452 39 454 -8 2 -60 -29 -115 -69z m-20 -134 c-3 -16 -14 -100 -25
-188 -28 -223 -23 -208 -63 -186 -17 10 -83 40 -145 67 -138 59 -149 73 -90
114 235 164 314 218 320 219 4 1 5 -11 3 -26z"/>
<path d="M2908 10143 c-10 -20 -27 -30 -73 -43 -209 -56 -332 -174 -343 -330
-7 -99 16 -160 88 -232 103 -103 207 -112 419 -37 190 67 259 83 308 70 112
-30 168 -174 114 -296 -36 -81 -81 -128 -161 -164 -123 -57 -253 -44 -357 35
-34 25 -63 26 -63 2 0 -15 169 -175 190 -181 26 -7 118 21 204 62 186 88 318
288 286 434 -23 108 -114 210 -216 242 -84 26 -156 16 -352 -51 -237 -80 -294
-78 -354 14 -60 90 -46 147 60 252 92 91 135 114 217 115 49 0 74 -7 139 -38
134 -64 139 -48 24 72 -99 102 -112 110 -130 74z"/>
<path d="M5685 9820 c-591 -52 -1088 -191 -1600 -447 -1201 -602 -2033 -1759
-2199 -3060 -51 -399 -39 -898 29 -1223 26 -125 44 -180 60 -180 19 0 20 -2
-14 190 -57 323 -66 422 -66 735 0 302 12 440 56 675 105 558 327 1075 667
1553 461 650 1155 1182 1912 1465 488 183 945 265 1475 265 343 0 596 -26 905
-94 1588 -348 2837 -1609 3134 -3164 49 -258 61 -389 61 -700 0 -313 -9 -412
-66 -735 -16 -91 -29 -171 -29 -177 0 -7 11 -13 24 -13 21 0 25 7 40 73 65
285 90 552 83 907 -5 303 -18 426 -73 697 -189 941 -739 1802 -1529 2395 -225
168 -414 284 -676 413 -445 219 -888 349 -1399 410 -157 19 -642 28 -795 15z"/>
<path d="M9770 9675 c-10 -12 -10 -25 -1 -59 25 -102 13 -142 -71 -223 -100
-97 -521 -443 -565 -464 -50 -24 -79 -20 -128 17 -42 32 -55 30 -55 -6 0 -25
19 -51 98 -138 126 -137 126 -136 143 -116 11 13 9 23 -15 65 -17 31 -25 57
-21 69 3 10 122 115 263 231 141 117 265 219 275 227 21 19 32 10 19 -15 -6
-10 -36 -234 -67 -498 -31 -264 -62 -499 -68 -522 -14 -54 1 -76 42 -62 15 5
198 151 407 324 222 185 387 315 399 315 11 -1 31 -7 45 -15 63 -36 79 -4 28
55 -18 20 -61 76 -96 123 -42 59 -69 87 -82 87 -24 0 -26 -25 -5 -93 19 -63
10 -102 -35 -146 -37 -37 -487 -397 -527 -421 -12 -8 -24 -12 -27 -10 -2 3 38
259 88 570 98 596 98 593 52 624 -12 7 -30 32 -41 55 -21 43 -35 50 -55 26z"/>
<path d="M1748 9148 c-59 -68 -214 -270 -292 -383 -27 -38 -62 -82 -78 -97
-16 -16 -26 -33 -22 -39 8 -13 70 -3 101 17 44 28 86 18 169 -42 390 -279 619
-452 636 -478 13 -22 17 -40 12 -61 -11 -56 -10 -60 18 -63 22 -3 30 2 38 23
12 30 95 141 181 240 33 38 77 97 96 130 20 33 47 72 60 86 59 64 45 186 -33
278 -37 45 -59 42 -48 -6 16 -70 9 -164 -16 -223 -26 -63 -137 -235 -169 -264
-21 -19 -22 -19 -49 2 -15 11 -91 62 -168 111 -78 50 -147 97 -154 105 -9 12
0 32 55 110 36 53 78 105 92 116 28 22 76 26 119 10 22 -9 31 -8 43 4 13 14
13 18 -5 37 -10 12 -40 32 -66 45 -25 13 -76 46 -113 74 -66 50 -95 61 -95 38
0 -7 9 -24 20 -38 12 -15 20 -41 20 -64 0 -34 -12 -55 -86 -153 l-85 -114 -27
17 c-28 18 -246 184 -290 220 -24 20 -25 23 -12 42 152 209 219 282 263 282 7
0 26 -14 42 -30 56 -59 97 -11 42 49 -29 31 -107 81 -127 81 -9 0 -41 -28 -72
-62z"/>
<path d="M10896 8153 c-4 -9 -4 -40 -1 -68 11 -86 16 -84 -455 -255 -229 -82
-424 -150 -435 -150 -10 0 -37 17 -58 38 -37 36 -39 36 -53 18 -20 -28 -18
-44 10 -77 25 -29 35 -53 83 -194 25 -71 31 -80 53 -80 27 0 29 9 15 91 -7 37
-4 43 24 66 32 28 367 145 379 134 3 -4 -64 -149 -151 -322 -86 -173 -157
-319 -157 -326 0 -6 10 -25 23 -42 13 -17 29 -59 37 -93 11 -55 16 -63 35 -63
37 0 49 23 35 66 -7 20 -10 51 -7 69 3 18 76 165 161 326 86 161 156 301 156
310 0 26 23 17 275 -114 259 -135 294 -157 356 -222 53 -55 69 -57 69 -9 0 24
-15 64 -44 117 -25 45 -52 108 -61 140 -14 49 -20 57 -41 57 -22 0 -24 -4 -24
-50 0 -60 -6 -62 -105 -25 -76 29 -455 225 -455 236 0 5 306 115 376 134 12 3
40 -5 69 -20 26 -14 50 -23 53 -20 3 3 0 20 -7 38 -7 18 -19 55 -26 82 -6 28
-24 68 -39 89 -14 21 -26 52 -26 68 0 16 -5 38 -10 49 -13 24 -46 25 -54 2z"/>
<path d="M995 7953 c-9 -32 -29 -83 -45 -113 -15 -30 -42 -91 -60 -135 -18
-44 -55 -133 -82 -198 -53 -128 -60 -180 -23 -185 14 -1 29 11 48 38 22 32 35
40 59 40 16 0 200 -65 407 -144 207 -79 387 -147 401 -151 44 -13 69 -45 76
-95 3 -26 10 -53 14 -60 24 -38 74 44 91 149 5 32 27 96 48 142 50 105 131
326 131 353 0 33 -55 121 -97 155 -22 18 -49 31 -65 31 -16 0 -28 -2 -28 -4 0
-2 13 -33 30 -68 51 -107 39 -250 -32 -409 -33 -73 -48 -85 -101 -74 -37 9
-262 97 -319 126 -46 23 -46 17 19 157 60 130 72 142 144 142 97 0 86 48 -20
85 -25 8 -53 15 -63 15 -10 0 -45 11 -78 25 -62 26 -110 32 -110 14 0 -6 18
-27 40 -46 33 -30 40 -43 40 -72 0 -20 -6 -47 -13 -61 -7 -14 -28 -67 -46
-117 -18 -51 -36 -93 -40 -93 -3 0 -89 33 -191 74 -151 59 -186 76 -188 93 -4
26 49 180 85 245 38 69 62 82 140 74 61 -6 63 -6 63 17 0 13 -8 31 -18 40 -31
28 -126 67 -164 67 -36 0 -37 -1 -53 -57z"/>
<path d="M1162 6810 c-43 -26 -57 -63 -43 -112 24 -79 104 -98 156 -36 37 44
34 96 -7 137 -37 36 -60 39 -106 11z"/>
<path d="M10748 6793 c-64 -68 -64 -74 -8 -127 27 -25 56 -46 64 -46 38 0 68
22 87 65 18 40 18 47 5 79 -15 35 -59 66 -93 66 -11 0 -35 -17 -55 -37z"/>
<path d="M5997 9218 c-4 -46 -12 -177 -18 -293 -7 -115 -13 -211 -14 -213 -2
-2 -46 18 -98 43 -111 54 -96 17 -128 310 -11 105 -23 192 -25 194 -14 14 -14
-27 0 -187 9 -99 16 -200 16 -223 l0 -42 -67 6 c-38 4 -80 7 -95 7 -20 0 -28
5 -28 18 0 39 -87 403 -96 400 -5 -2 -8 -10 -6 -18 20 -124 49 -366 45 -376
-4 -11 -30 -14 -108 -14 l-103 0 -37 158 c-20 86 -39 167 -42 180 -8 32 -27
27 -20 -5 16 -81 49 -335 44 -340 -10 -9 -120 -33 -157 -33 l-35 0 -59 165
c-33 91 -63 165 -68 165 -12 0 -12 0 42 -167 48 -147 61 -211 41 -199 -5 4
-42 -10 -82 -29 -41 -19 -79 -35 -86 -35 -6 0 -53 80 -104 177 -51 98 -94 172
-97 165 -2 -6 28 -87 67 -178 39 -91 69 -170 66 -174 -9 -15 -104 -42 -152
-43 l-46 -2 -73 130 c-41 72 -75 135 -78 140 -2 6 -7 7 -11 3 -4 -4 20 -70 54
-146 33 -76 61 -146 61 -154 0 -19 -47 -28 -146 -28 l-71 0 -64 96 c-35 53
-67 102 -71 108 -4 6 -10 8 -13 4 -4 -3 16 -48 44 -98 28 -51 51 -97 51 -103
0 -6 -50 -8 -142 -5 -129 5 -143 7 -159 27 -22 27 -29 27 -29 -4 0 -14 5 -25
12 -25 6 0 -13 -26 -43 -57 -30 -32 -66 -73 -80 -92 l-26 -35 -46 27 c-68 40
-77 33 -24 -21 l48 -49 -71 -76 c-40 -43 -76 -77 -82 -77 -5 0 -30 14 -54 31
-25 17 -48 28 -51 25 -4 -3 8 -24 25 -45 18 -22 32 -43 32 -47 0 -16 -116
-184 -127 -184 -6 0 -38 22 -70 50 -32 27 -61 50 -65 50 -20 0 -3 -21 51 -66
33 -27 60 -52 60 -55 1 -10 -150 -169 -161 -169 -5 0 -29 14 -53 30 -24 17
-48 30 -54 30 -22 0 -10 -16 34 -43 25 -16 45 -33 45 -38 0 -19 -44 -69 -60
-69 -9 0 -31 -25 -49 -55 -35 -58 -49 -64 -91 -40 -58 33 -68 11 -11 -24 39
-24 39 -25 34 -76 -10 -100 50 -209 141 -258 32 -17 58 -22 117 -22 69 0 81 3
129 33 30 18 61 31 69 29 9 -2 75 -45 146 -94 72 -50 140 -92 150 -94 17 -4
21 -16 29 -82 6 -47 6 -81 0 -86 -5 -5 -157 63 -339 151 -181 88 -403 195
-493 238 -90 44 -162 74 -160 67 3 -7 27 -24 54 -38 27 -14 254 -133 504 -264
250 -130 461 -242 468 -247 10 -9 18 -108 8 -108 -4 0 -1023 387 -1103 419
-32 12 -55 17 -58 10 -4 -5 6 -14 22 -20 15 -5 282 -123 593 -263 l565 -253 3
-36 c2 -22 -1 -37 -8 -37 -6 0 -290 79 -631 175 -342 96 -623 175 -625 175 -2
0 -4 -4 -4 -10 0 -5 12 -13 28 -17 79 -19 1227 -425 1234 -436 13 -21 9 -77
-6 -77 -13 0 -1179 229 -1270 250 -44 10 -67 8 -55 -5 3 -2 301 -78 663 -169
381 -95 662 -170 667 -178 12 -19 11 -42 -4 -62 -12 -16 -48 -13 -642 64 -347
44 -654 84 -683 89 -29 4 -55 4 -58 -1 -7 -10 5 -14 91 -28 39 -6 345 -60 681
-120 336 -61 614 -110 618 -110 8 0 -3 -51 -14 -63 -6 -7 -1230 64 -1357 79
-35 4 -53 3 -53 -4 0 -14 -41 -9 722 -95 361 -41 662 -78 667 -82 8 -4 6 -13
-4 -28 -8 -12 -15 -29 -15 -38 0 -14 -42 -16 -407 -22 -223 -4 -536 -7 -695
-7 -255 0 -322 -5 -275 -22 6 -3 73 -6 147 -7 264 -3 1046 -22 1128 -27 59 -4
82 -10 82 -19 0 -18 -33 -75 -44 -75 -4 0 -281 -29 -615 -65 -333 -35 -624
-65 -645 -67 -22 -2 -41 -9 -44 -16 -3 -10 4 -12 29 -8 19 3 284 19 589 36
305 16 576 31 602 33 26 2 51 1 57 -2 13 -8 -29 -100 -49 -106 -14 -4 -1061
-185 -1157 -200 -24 -4 -43 -11 -43 -17 0 -7 17 -8 48 -3 303 46 1109 151
1114 146 9 -8 -71 -128 -89 -135 -14 -6 -959 -233 -987 -238 -11 -2 -21 -9
-24 -16 -3 -9 3 -11 21 -7 69 18 913 172 920 168 12 -7 -8 -33 -85 -116 l-73
-77 -355 -129 c-195 -71 -356 -134 -358 -141 -3 -9 1 -11 14 -5 36 14 549 185
557 185 4 0 6 -43 5 -96 l-3 -96 -215 -100 c-118 -55 -231 -106 -250 -115 -19
-8 -29 -17 -23 -20 10 -3 339 109 476 162 14 6 17 1 17 -29 0 -20 7 -53 15
-73 8 -19 15 -48 15 -63 0 -25 -11 -32 -162 -104 -90 -43 -180 -85 -200 -93
-34 -14 -51 -33 -30 -33 5 0 95 38 201 85 106 47 196 85 200 85 4 0 19 -41 34
-92 25 -85 25 -92 9 -104 -9 -7 -83 -52 -164 -101 -133 -79 -165 -103 -139
-103 4 0 46 22 92 48 46 26 114 65 151 85 l67 38 18 -33 c9 -18 31 -63 49
-100 l32 -66 -129 -103 c-112 -89 -144 -119 -124 -119 3 0 62 43 132 95 71 52
132 95 138 95 11 -1 105 -164 105 -183 0 -7 -47 -59 -104 -116 -58 -58 -102
-109 -99 -114 3 -5 54 39 114 99 l108 108 27 -24 c14 -14 45 -53 69 -87 l43
-61 -85 -102 c-120 -143 -105 -144 62 -3 l70 60 66 -48 c107 -78 116 -45 -78
-286 -19 -23 -30 -44 -25 -47 5 -3 56 51 113 119 57 69 110 125 117 125 8 0
32 -15 55 -34 23 -18 61 -43 85 -55 23 -12 42 -27 42 -35 0 -7 -38 -66 -85
-132 -47 -65 -85 -122 -85 -126 0 -23 25 4 104 117 49 69 93 125 98 125 4 0
25 -12 46 -28 21 -15 62 -38 90 -51 29 -14 52 -27 52 -30 0 -4 -36 -69 -80
-145 -44 -77 -80 -143 -80 -148 0 -20 24 9 111 137 55 81 98 135 108 135 17 0
79 -14 144 -31 20 -5 37 -16 37 -24 0 -8 -34 -85 -75 -171 -41 -86 -75 -161
-75 -165 0 -29 24 10 99 157 75 147 87 165 105 159 12 -3 59 -14 106 -24 59
-13 86 -23 88 -34 2 -8 -36 -101 -84 -206 -48 -105 -84 -194 -79 -199 4 -4 10
-2 12 5 13 36 187 380 199 394 13 14 19 14 71 -2 32 -10 70 -20 86 -24 18 -3
27 -12 27 -24 0 -10 -27 -107 -60 -214 -66 -216 -64 -207 -51 -207 5 0 15 17
22 38 14 45 147 383 152 388 2 2 27 -5 55 -16 29 -11 70 -20 92 -20 29 0 40
-4 40 -15 0 -9 -20 -111 -45 -227 -40 -189 -46 -233 -30 -216 3 2 28 98 56
211 33 135 56 207 64 207 7 0 43 -11 79 -25 37 -14 76 -25 87 -25 18 0 20 -4
15 -37 -3 -21 -15 -110 -26 -198 -12 -88 -22 -165 -23 -172 -1 -6 3 -13 8 -15
6 -2 12 8 13 22 8 56 82 364 89 371 10 10 162 -70 176 -93 8 -12 6 -62 -6
-174 -16 -141 -16 -177 -3 -163 3 2 14 65 26 139 29 184 25 179 80 137 42 -32
104 -100 158 -171 16 -21 22 -44 22 -78 0 -26 5 -48 10 -48 6 0 10 25 10 56 0
65 7 80 74 157 63 73 127 122 137 105 3 -7 16 -77 29 -155 37 -231 48 -172 24
128 l-5 66 53 35 c92 61 118 72 134 56 12 -12 51 -198 70 -333 7 -56 12 -68
23 -61 4 3 -2 76 -14 163 -40 289 -39 263 -10 263 14 0 51 9 83 21 31 11 64
23 73 26 14 4 25 -31 69 -206 29 -116 56 -211 61 -211 11 0 14 -24 -26 211
-43 254 -43 249 -5 249 16 0 53 9 82 20 29 11 56 20 60 20 12 0 32 -46 107
-239 39 -101 73 -186 76 -189 20 -20 6 30 -55 203 -38 108 -70 205 -70 215 0
15 13 21 58 30 31 6 72 17 90 25 l32 15 99 -198 c54 -108 100 -204 103 -212 3
-8 9 -12 13 -8 5 4 1 25 -7 45 -9 21 -46 112 -83 202 -51 125 -64 166 -54 172
7 4 36 11 63 15 28 3 68 13 90 20 32 12 41 12 48 2 5 -7 47 -80 94 -163 98
-171 92 -161 101 -151 4 4 2 15 -5 26 -13 21 -152 317 -152 325 0 8 96 33 151
40 l54 6 79 -130 c74 -123 106 -166 106 -144 0 5 -36 72 -80 149 -44 76 -80
141 -80 144 0 3 21 13 48 24 26 10 70 33 98 52 l52 33 97 -124 c54 -69 101
-122 106 -119 5 3 -5 24 -23 47 -18 23 -59 75 -90 115 l-58 73 88 74 c48 41
90 75 93 75 3 0 52 -47 109 -105 56 -58 107 -105 113 -105 12 0 0 16 -95 129
-43 51 -78 95 -78 100 0 8 123 99 146 108 8 3 55 -30 109 -77 53 -45 100 -80
105 -78 6 2 -32 50 -84 107 l-95 104 72 84 c70 82 71 83 91 65 84 -74 225
-192 230 -192 21 0 -8 30 -114 121 -66 57 -120 107 -120 112 0 4 14 28 31 53
17 25 39 65 50 89 12 26 27 45 36 45 9 0 73 -43 143 -95 70 -52 130 -95 134
-95 20 0 -7 27 -119 115 -69 54 -128 102 -131 106 -7 12 55 160 76 182 17 18
22 16 141 -51 68 -38 138 -78 156 -88 17 -10 35 -15 39 -11 4 4 5 8 3 10 -27
20 -330 197 -337 197 -6 0 -2 23 8 54 11 30 22 72 26 95 4 28 12 41 22 41 9 0
101 -39 204 -86 104 -48 192 -84 195 -80 9 9 16 5 -191 105 l-188 91 7 97 c4
54 8 99 9 100 1 1 113 -37 249 -84 136 -47 251 -83 254 -79 8 8 28 -1 -247
120 -135 60 -248 112 -252 115 -5 4 -11 48 -14 99 -6 76 -5 92 7 92 13 0 512
-165 563 -185 13 -6 17 -4 14 5 -2 7 -26 21 -54 31 -27 10 -182 68 -344 128
l-295 110 -82 88 c-85 91 -100 117 -60 108 12 -3 218 -41 457 -85 239 -45 443
-83 454 -86 12 -4 17 -2 14 7 -2 7 -22 17 -44 21 -21 4 -252 58 -513 120
l-474 112 -39 60 c-46 72 -49 90 -10 82 15 -3 259 -37 542 -76 283 -38 532
-73 553 -76 23 -4 37 -3 37 4 0 6 -12 13 -27 16 -16 2 -286 49 -601 103 l-573
98 -30 44 c-16 25 -28 50 -26 55 2 7 26 10 58 8 380 -19 1153 -63 1182 -67 29
-4 38 -2 35 7 -3 7 -22 14 -44 16 -21 2 -312 32 -645 67 -334 36 -611 65 -616
65 -11 0 -37 79 -29 87 6 6 857 31 1166 34 102 1 191 4 197 6 44 17 -32 23
-285 23 -158 0 -472 3 -698 7 l-411 6 -10 39 c-10 36 -9 40 11 47 11 4 309 40
661 80 743 84 705 79 705 93 0 7 -16 9 -47 5 -27 -4 -340 -25 -696 -47 -476
-31 -652 -38 -662 -30 -7 6 -15 21 -17 33 -4 22 3 24 631 137 350 62 663 118
696 122 74 11 88 15 81 26 -3 5 -27 6 -54 1 -27 -4 -336 -44 -687 -89 l-637
-82 -21 20 c-31 31 -17 69 31 81 46 12 1258 310 1290 317 12 2 22 9 22 15 0 7
-10 9 -22 6 -49 -12 -1310 -257 -1324 -257 -15 0 -20 56 -6 77 7 11 1155 417
1235 436 15 4 27 12 27 18 0 6 -8 9 -17 6 -10 -2 -287 -82 -615 -176 -328 -94
-607 -171 -618 -171 -18 0 -21 5 -18 37 l3 36 546 241 c301 133 569 251 598
263 68 29 67 49 -1 22 -29 -12 -282 -108 -563 -214 -280 -107 -518 -197 -527
-200 -16 -6 -18 0 -18 47 l0 53 478 254 c585 311 535 284 539 298 4 10 -483
-224 -866 -416 -94 -48 -105 -51 -119 -37 -15 14 -14 23 3 91 10 41 22 75 27
75 4 0 70 40 146 88 75 49 143 92 150 96 7 4 26 -2 43 -15 37 -26 110 -49 158
-49 70 0 114 20 167 74 61 63 88 130 82 208 l-3 52 49 30 c52 33 42 50 -13 22
-42 -22 -54 -20 -73 12 -9 15 -28 40 -42 54 -32 35 -76 93 -76 101 0 3 20 18
45 34 43 27 56 43 35 43 -6 0 -35 -17 -66 -37 l-56 -37 -21 29 c-12 17 -51 58
-87 92 l-65 62 60 60 c33 34 53 61 45 61 -8 0 -38 -23 -67 -52 -29 -28 -54
-50 -56 -47 -27 34 -98 131 -112 152 l-18 28 43 44 c24 25 41 47 38 51 -4 3
-27 -8 -52 -25 -24 -17 -50 -31 -57 -31 -7 0 -37 28 -68 62 -90 98 -87 90 -47
150 20 28 33 54 31 57 -3 2 -23 -12 -44 -33 -21 -21 -46 -36 -55 -34 -9 1 -49
41 -90 88 -61 70 -71 86 -55 88 13 2 19 12 19 28 0 29 -3 30 -39 3 -24 -18
-48 -22 -154 -26 -69 -3 -133 -3 -142 1 -14 5 -9 19 34 100 28 51 51 96 51
100 0 23 -24 -8 -76 -99 l-59 -105 -71 0 c-102 0 -164 10 -164 26 0 8 32 78
71 155 38 78 67 144 63 148 -8 7 -7 9 -94 -149 -78 -142 -83 -145 -183 -116
-99 29 -98 19 -28 210 35 92 61 172 58 179 -2 6 -26 -35 -53 -93 -90 -193
-118 -245 -137 -248 -23 -5 -177 58 -177 71 0 8 93 308 107 344 3 7 0 13 -6
13 -7 0 -14 -8 -18 -17 -7 -21 -125 -307 -128 -311 -3 -4 -187 27 -193 32 -3
3 7 85 21 183 24 160 26 196 12 182 -4 -5 -51 -247 -62 -321 l-6 -38 -107 0
c-76 0 -111 4 -118 13 -8 9 -3 67 16 206 15 106 24 195 20 197 -11 7 -13 2
-48 -211 -18 -104 -33 -195 -35 -201 -3 -10 -182 -30 -191 -22 -1 2 1 102 7
222 8 197 7 239 -5 225 -2 -2 -15 -104 -29 -227 -14 -123 -31 -230 -37 -237
-9 -11 -92 -50 -176 -82 -11 -4 -14 10 -14 79 0 172 -13 508 -20 508 -4 0 -10
-37 -13 -82z m780 -448 c35 -5 100 -25 145 -45 96 -42 447 -152 593 -186 88
-20 127 -23 323 -24 l222 -1 142 -175 c237 -292 421 -492 501 -544 38 -24 21
-41 -51 -50 -31 -4 -91 -18 -133 -31 -251 -79 -411 -374 -460 -844 -13 -129
-7 -571 11 -735 29 -271 93 -566 165 -761 96 -259 273 -561 411 -700 110 -110
111 -113 89 -226 -58 -306 -209 -598 -424 -821 -290 -300 -659 -485 -1189
-597 -503 -106 -892 -265 -1065 -436 l-47 -46 -54 50 c-171 162 -531 315 -956
407 -454 98 -714 192 -960 344 -273 170 -506 426 -636 699 -53 111 -114 289
-140 409 l-17 82 26 33 c317 394 479 690 583 1065 77 279 108 554 108 948 0
249 -2 295 -23 410 -41 230 -112 414 -213 549 -93 124 -180 173 -352 198 -52
7 -86 17 -86 24 0 6 24 32 53 57 67 57 236 244 449 496 l164 195 224 1 c205 2
235 4 332 28 125 30 294 80 503 147 220 71 295 85 460 84 211 -1 350 -44 479
-150 l56 -45 49 43 c153 138 404 189 718 148z m-3315 -1095 c26 -9 58 -27 73
-41 14 -13 35 -24 46 -24 10 0 19 -7 19 -15 0 -9 8 -19 18 -23 26 -10 92 -86
92 -106 0 -9 6 -16 14 -16 23 0 110 -207 144 -346 31 -126 33 -134 24 -134 -5
0 -23 39 -41 88 -65 182 -179 325 -324 406 -86 48 -91 47 -83 -14 5 -36 2 -58
-8 -79 -43 -83 -201 -108 -277 -44 -61 52 -88 167 -55 231 25 47 120 118 181
135 32 9 126 -1 177 -18z m5310 -1 c51 -20 101 -65 123 -110 35 -75 7 -201
-57 -247 -64 -47 -189 -28 -248 39 -26 30 -30 43 -30 89 0 34 -4 55 -11 55 -6
0 -43 -17 -83 -37 -141 -74 -244 -204 -311 -396 -15 -43 -29 -76 -31 -74 -2 1
4 36 12 77 50 244 183 482 312 557 106 62 236 81 324 47z m-5218 -284 c32 0
146 -115 146 -147 0 -10 -30 1 -97 37 -54 29 -99 54 -101 55 -1 1 1 16 4 34 5
22 11 30 21 27 8 -4 20 -6 27 -6z m4956 -56 c0 -8 -202 -105 -207 -100 -9 8
62 99 97 125 18 13 44 27 59 30 22 7 28 3 39 -22 6 -16 12 -31 12 -33z m-4762
-1896 c-23 -100 -134 -295 -321 -563 -116 -166 -155 -215 -168 -215 -5 0 -9
45 -9 100 l0 100 70 66 c122 115 271 303 380 481 25 40 48 72 51 73 3 0 2 -19
-3 -42z m4587 -76 c79 -135 185 -272 307 -397 l108 -110 0 -100 -1 -100 -20
25 c-11 14 -41 52 -67 85 -100 125 -162 213 -221 312 -85 143 -161 298 -161
327 0 14 -4 37 -10 53 -12 35 -6 26 65 -95z"/>
<path d="M4430 8365 c0 -19 -8 -50 -17 -69 -18 -35 -19 -36 -82 -36 -51 0 -62
-3 -53 -12 15 -15 16 -54 2 -63 -17 -10 -11 -55 10 -85 11 -15 43 -37 75 -50
56 -23 64 -40 19 -40 -15 0 -35 -11 -50 -27 -13 -16 -34 -38 -45 -50 l-21 -22
26 -16 c14 -10 26 -25 26 -35 0 -26 69 -44 119 -30 89 24 148 -52 86 -110 -14
-13 -25 -31 -25 -40 0 -21 91 -108 145 -139 22 -12 56 -46 75 -74 27 -39 54
-63 112 -97 42 -25 77 -48 78 -52 1 -14 -53 -68 -68 -68 -10 0 -30 -7 -46 -15
-15 -8 -39 -15 -53 -15 -14 0 -33 -10 -43 -22 -17 -22 -25 -23 -162 -23 -143
0 -145 0 -181 -28 -20 -15 -37 -37 -37 -48 0 -10 -7 -19 -15 -19 -9 0 -20 -20
-29 -50 -8 -28 -24 -62 -36 -77 -11 -14 -20 -34 -20 -44 0 -14 6 -17 33 -13
44 8 85 -10 89 -38 4 -30 37 -36 57 -10 13 16 32 21 108 25 l92 6 7 -33 c6
-33 6 -33 37 -22 18 6 38 19 45 29 7 9 31 26 53 38 31 15 39 24 33 37 -10 26
-7 52 10 71 9 10 16 24 16 31 0 10 5 9 18 -3 10 -10 23 -17 29 -17 5 0 18 -9
28 -20 18 -19 17 -20 -3 -20 -14 0 -22 -6 -22 -16 0 -15 10 -16 78 -10 51 4
86 12 102 24 15 11 51 21 90 25 85 8 100 14 100 43 0 14 10 30 26 41 38 24 61
26 76 4 18 -25 67 -34 171 -33 75 1 96 5 131 26 23 13 63 27 89 31 26 4 64 16
84 26 20 10 52 22 70 25 19 4 38 15 44 25 5 11 19 19 30 19 16 0 112 35 128
46 2 2 -9 14 -24 27 -27 23 -27 24 -11 55 19 36 35 47 91 57 22 4 130 53 241
110 207 107 239 119 337 129 52 6 57 4 57 -13 0 -21 -61 -74 -105 -91 -15 -6
-62 -13 -104 -17 -48 -4 -79 -11 -84 -20 -5 -7 -26 -25 -48 -39 -30 -19 -48
-42 -73 -93 -18 -38 -43 -81 -55 -97 -28 -36 -25 -78 7 -82 12 -2 22 -9 22
-17 0 -18 -65 -73 -96 -81 -35 -9 -142 4 -175 22 -33 16 -73 18 -99 4 -20 -11
-77 -90 -91 -127 -5 -13 -15 -23 -23 -23 -9 0 -20 -9 -26 -20 -9 -17 -7 -21 7
-26 59 -20 73 -30 73 -51 0 -28 6 -28 48 -3 44 27 58 25 74 -7 13 -27 58 -45
58 -24 0 7 32 11 86 11 77 0 86 2 91 20 4 16 14 20 50 20 55 0 118 31 137 68
21 41 96 123 107 116 5 -3 9 -25 9 -48 0 -37 4 -45 22 -49 29 -8 39 1 92 87
24 39 62 86 84 103 27 22 46 50 62 90 46 115 73 159 138 226 l67 68 11 -68
c14 -78 45 -167 70 -194 21 -23 92 -64 127 -73 14 -3 38 -22 53 -41 28 -37 44
-44 44 -20 0 10 10 15 28 15 16 0 37 9 47 20 20 23 47 25 94 9 29 -10 31 -14
31 -59 0 -57 -5 -60 -95 -60 -70 0 -148 -28 -165 -60 -5 -10 -10 -34 -10 -54
0 -31 -4 -36 -35 -46 -55 -18 -41 -30 35 -30 68 0 70 -1 70 -25 0 -30 25 -43
51 -27 10 7 40 12 66 12 27 1 59 7 73 15 45 26 60 20 60 -25 0 -22 5 -40 10
-40 6 0 10 7 10 15 0 18 41 38 120 60 l55 15 -3 122 c-2 68 -4 134 -5 148 -2
23 1 25 46 25 42 0 47 2 47 23 0 14 -19 42 -51 74 -40 40 -49 55 -45 74 9 34
-60 162 -99 181 -16 9 -41 24 -54 34 -18 14 -41 19 -90 19 -60 0 -70 3 -93 28
-32 32 -47 82 -26 82 7 0 21 8 29 19 9 10 35 21 58 25 32 5 54 19 96 59 62 60
64 68 38 171 -15 58 -24 74 -59 102 -42 34 -118 73 -144 74 -8 0 -38 12 -67
27 -42 20 -53 31 -53 50 0 13 7 26 15 29 8 4 15 11 15 16 0 7 -17 8 -47 4 -55
-7 -139 -60 -147 -93 -5 -18 -15 -23 -64 -27 -73 -8 -508 -114 -546 -133 -82
-42 -199 -53 -363 -34 -58 7 -77 13 -93 32 -23 29 -26 57 -5 65 8 4 15 13 15
21 0 22 34 11 45 -15 8 -19 17 -22 61 -22 40 0 55 5 73 24 14 14 38 26 65 29
23 3 71 20 107 37 35 16 70 30 77 30 60 0 -127 61 -260 85 -43 8 -127 -9 -178
-36 -19 -11 -42 -19 -51 -19 -25 0 -70 -40 -85 -76 -44 -106 22 -256 121 -272
65 -11 229 -12 299 -2 44 6 168 34 274 61 191 48 278 59 299 38 8 -8 23 -3 53
16 l42 27 87 -16 c47 -8 112 -18 144 -22 41 -4 62 -12 71 -26 14 -20 15 -20
49 6 46 35 93 35 109 0 18 -40 -7 -77 -57 -86 -47 -8 -93 -4 -230 24 -84 16
-112 18 -185 9 -47 -6 -157 -18 -245 -27 -127 -13 -176 -22 -235 -46 -179 -70
-339 -92 -467 -65 -78 17 -232 79 -245 100 -4 6 -8 31 -8 54 0 23 -7 64 -16
90 -13 38 -15 69 -9 159 9 139 3 154 -60 154 -57 0 -179 26 -208 44 -12 8 -48
19 -80 25 -50 9 -70 8 -130 -9 -40 -10 -90 -28 -112 -40 -28 -14 -58 -20 -106
-20 -110 0 -142 -43 -103 -140 15 -36 15 -43 1 -58 -18 -21 -37 -106 -37 -168
0 -45 -41 -144 -60 -144 -18 0 -65 22 -82 38 -32 32 -47 42 -62 42 -7 0 -28
17 -45 38 -17 20 -38 44 -45 52 -45 51 -46 100 -5 181 37 74 40 111 10 143
-12 12 -19 29 -16 37 7 19 -9 75 -21 70 -5 -2 -8 -12 -6 -23 3 -16 -4 -18 -62
-18 -62 0 -96 14 -96 41 0 5 -4 9 -10 9 -5 0 -10 -16 -10 -35z m1035 -49 c11
-7 41 -15 67 -18 31 -4 58 -15 78 -32 26 -21 42 -26 86 -26 51 0 54 -1 54 -25
0 -23 -3 -25 -50 -25 -38 0 -50 -4 -50 -15 0 -9 10 -15 23 -16 60 -3 62 -4 63
-29 1 -14 5 -64 9 -112 l8 -87 -27 -10 c-31 -12 -34 -31 -5 -31 15 0 19 -5 15
-15 -6 -16 20 -49 45 -57 26 -9 6 -277 -22 -294 -6 -3 -19 2 -31 12 -19 18
-20 18 -34 0 -8 -11 -10 -24 -5 -30 18 -24 30 -77 21 -99 -5 -12 -12 -39 -15
-61 -7 -42 -60 -106 -89 -106 -13 0 -16 10 -16 50 0 28 -4 50 -9 50 -21 0 -41
-46 -41 -95 0 -55 -12 -75 -45 -75 -12 0 -30 -9 -40 -20 -10 -11 -31 -20 -47
-20 -27 0 -28 1 -28 55 0 52 -1 55 -25 55 -24 0 -25 -3 -25 -55 0 -70 -14 -71
-76 -10 -24 25 -49 45 -54 45 -15 0 -35 43 -21 48 6 2 11 24 11 48 0 35 -3 44
-18 44 -9 0 -23 -9 -30 -20 -7 -11 -16 -20 -21 -20 -14 0 -101 133 -101 155 0
11 9 34 20 50 25 37 25 37 -1 53 -19 12 -23 11 -37 -9 -15 -21 -16 -21 -29 -4
-9 13 -13 54 -13 140 0 111 2 124 21 141 25 23 53 73 45 82 -4 3 -12 0 -18 -6
-21 -21 -28 -13 -28 36 0 29 10 67 25 100 17 36 23 62 18 82 -5 28 -4 30 25
30 45 0 50 19 14 50 -18 15 -32 34 -32 43 0 21 33 22 50 2 15 -19 36 -19 43
-2 3 8 37 19 78 26 41 7 90 19 109 26 67 26 113 26 155 1z m-915 -26 c0 -5 15
-10 33 -10 18 0 38 -5 45 -12 20 -20 14 -68 -13 -100 -21 -25 -25 -40 -25 -97
0 -60 4 -73 31 -112 40 -55 90 -109 103 -109 5 0 32 -17 60 -38 28 -21 68 -51
89 -66 28 -20 37 -34 37 -56 0 -39 47 -185 64 -199 8 -7 16 -28 19 -49 3 -20
8 -47 12 -59 7 -21 4 -23 -34 -23 -52 0 -97 19 -143 59 -20 17 -40 31 -46 31
-12 0 -24 29 -16 41 3 5 14 9 25 9 32 0 59 19 59 41 0 20 -5 21 -72 19 -110
-4 -116 -3 -155 35 -20 19 -39 35 -43 35 -4 0 -11 10 -17 23 -8 17 -6 29 8 52
21 34 39 73 39 84 0 4 -15 22 -33 39 -38 37 -95 51 -130 33 -14 -7 -33 -8 -52
-3 -27 8 -30 13 -33 55 -3 45 -2 47 22 47 16 0 26 6 26 14 0 7 9 16 20 19 14
4 18 11 15 28 -6 29 -35 51 -89 64 -31 8 -43 18 -51 39 -8 24 -6 31 15 47 14
10 37 28 52 39 15 12 38 20 50 18 18 -2 24 2 26 22 2 14 5 31 7 38 5 14 95 17
95 2z m2737 -131 c26 -28 56 -43 121 -65 72 -23 95 -36 134 -76 46 -45 48 -50
48 -102 0 -51 -2 -57 -40 -88 -54 -47 -135 -86 -192 -94 -27 -4 -48 -9 -48
-11 0 -3 9 -17 19 -32 10 -14 26 -49 33 -76 18 -62 40 -75 130 -75 82 0 111
-12 134 -56 10 -18 28 -35 41 -39 15 -3 23 -13 23 -27 0 -20 -4 -20 -60 -15
-49 6 -60 4 -60 -8 0 -8 5 -15 10 -15 6 0 10 -9 10 -20 0 -15 7 -20 24 -20 14
0 27 -4 31 -10 3 -5 12 -7 21 -3 10 3 32 -13 64 -48 l50 -54 -43 -5 c-31 -4
-41 -9 -38 -20 2 -8 7 -64 11 -125 4 -60 13 -122 20 -138 10 -20 10 -31 3 -38
-15 -15 -73 -21 -73 -9 0 6 -21 8 -55 4 -47 -6 -55 -4 -55 10 0 9 -7 16 -15
16 -8 0 -15 -4 -15 -9 0 -5 -15 -15 -34 -21 -26 -8 -40 -8 -58 1 -50 26 -59
29 -98 29 -39 0 -40 1 -40 35 0 45 20 55 107 55 42 0 84 7 110 18 l43 17 0 85
0 85 -63 12 c-73 14 -102 9 -137 -23 -22 -21 -29 -22 -45 -11 -11 7 -50 25
-86 41 -91 37 -119 79 -130 196 -11 115 -46 210 -76 210 -7 0 -22 9 -32 19
-42 42 -182 54 -282 25 -30 -9 -124 -51 -209 -94 -85 -43 -207 -101 -270 -129
-140 -64 -240 -114 -246 -123 -3 -4 2 -18 10 -30 7 -13 17 -33 21 -45 6 -22 4
-23 -57 -22 -35 0 -84 4 -110 8 -55 9 -62 -1 -18 -24 17 -9 30 -20 30 -25 0
-16 -86 -60 -119 -60 -17 0 -47 7 -66 14 l-35 15 0 -29 c0 -25 -6 -32 -37 -45
-21 -9 -54 -19 -73 -24 -65 -14 -116 15 -54 31 17 4 39 17 49 28 10 11 30 20
45 20 22 0 29 6 34 26 5 18 19 31 47 42 44 17 68 54 110 169 12 32 31 71 42
87 16 23 21 49 25 147 4 99 8 121 23 135 18 16 22 16 67 -5 163 -75 365 -67
687 29 88 26 194 53 235 60 108 19 329 17 418 -3 129 -30 201 -21 255 31 35
34 34 46 -9 98 -30 38 -41 44 -73 44 -30 0 -40 -5 -51 -26 -12 -21 -19 -24
-40 -19 -14 4 -42 9 -62 12 -26 3 -35 9 -31 19 3 8 11 14 19 14 8 0 14 5 14
11 0 7 -13 9 -37 5 -21 -4 -73 -9 -115 -12 -65 -5 -78 -4 -78 9 0 13 113 97
132 97 4 0 8 10 8 22 0 12 15 37 33 56 27 28 33 31 35 15 2 -10 20 -34 39 -54z
m-961 47 c57 -15 99 -35 74 -36 -8 0 -37 -11 -64 -25 -27 -14 -62 -25 -78 -25
-18 0 -28 -5 -28 -15 0 -8 -9 -19 -19 -25 -27 -14 -31 -13 -31 10 0 28 -35 43
-84 36 -57 -9 -68 -18 -76 -62 -15 -88 44 -122 223 -131 113 -6 178 4 329 53
59 19 120 34 135 34 16 0 73 17 128 36 112 40 191 53 208 34 9 -10 9 -14 -1
-17 -7 -3 -21 -13 -30 -23 -11 -11 -132 -46 -350 -100 -324 -80 -335 -83 -425
-78 -123 7 -209 37 -264 91 -49 47 -52 63 -21 123 29 58 54 81 124 109 69 29
169 33 250 11z m601 -566 c25 -11 51 -33 63 -52 l20 -33 -27 -22 c-16 -13 -33
-23 -39 -23 -17 0 -100 -92 -122 -137 -11 -21 -24 -57 -28 -78 -10 -53 -65
-98 -77 -62 -2 6 -11 -2 -20 -19 -9 -17 -23 -36 -31 -43 -9 -8 -16 -26 -16
-40 0 -35 -34 -71 -65 -71 -22 0 -25 4 -25 35 l0 35 -95 -94 c-52 -51 -95 -99
-95 -105 0 -16 -46 -13 -60 4 -17 21 -30 19 -30 -6 0 -26 -62 -54 -99 -44 -14
3 -41 9 -59 12 -18 3 -35 9 -38 14 -3 5 -27 9 -55 9 -45 0 -49 2 -49 24 0 21
-6 25 -32 28 -30 3 -33 6 -31 32 1 16 7 34 13 40 11 11 106 13 256 5 64 -3 76
0 113 24 41 27 101 116 101 150 0 12 -8 17 -30 17 -18 0 -30 5 -30 13 0 30 53
115 92 148 57 47 74 55 133 63 90 12 148 36 193 79 41 40 52 69 32 82 -8 5 -7
11 1 21 16 20 86 17 136 -6z m-1869 -319 c8 -4 12 -12 10 -17 -1 -5 10 -11 27
-14 19 -3 37 -17 51 -40 13 -19 34 -49 48 -66 33 -40 33 -53 -4 -107 -21 -32
-40 -47 -68 -55 -22 -7 -42 -12 -45 -12 -3 0 -3 23 0 50 4 34 2 50 -6 50 -6 0
-11 -9 -11 -21 0 -24 -54 -79 -79 -79 -9 0 -22 -9 -29 -20 -15 -24 -32 -26
-32 -4 0 9 -9 29 -21 45 -19 27 -25 29 -85 29 -54 0 -64 -3 -64 -18 0 -9 -9
-23 -20 -30 -15 -9 -20 -23 -20 -52 0 -29 -4 -40 -15 -40 -8 0 -15 7 -15 15 0
24 -19 18 -32 -10 -6 -14 -15 -25 -20 -25 -5 0 -21 11 -36 25 -15 14 -30 25
-34 25 -4 0 -10 -11 -14 -25 -4 -18 -13 -25 -29 -25 -13 0 -27 5 -30 10 -3 6
-22 10 -41 10 -30 0 -34 3 -34 25 0 32 -7 31 -42 -2 -22 -21 -28 -23 -28 -10
0 9 -6 17 -13 17 -13 0 -37 40 -37 60 0 16 71 90 86 90 8 0 14 10 14 25 0 20
5 25 26 25 14 0 39 -10 56 -21 26 -19 39 -21 96 -16 83 7 198 49 194 70 -2 11
19 21 69 37 41 12 100 41 137 66 69 47 70 48 90 35z m1302 -151 c-11 -22 -22
-40 -24 -40 -9 0 8 46 22 63 24 27 24 20 2 -23z"/>
<path d="M5265 8222 c3 -8 5 -15 5 -18 0 -2 14 -10 30 -19 22 -12 35 -13 49
-5 11 5 49 10 85 10 67 0 77 7 57 38 -12 19 -233 13 -226 -6z"/>
<path d="M5170 8107 c0 -26 31 -57 58 -57 21 0 30 -7 39 -30 10 -26 14 -29 35
-21 12 4 24 17 26 27 2 11 5 24 6 29 7 22 -2 27 -55 28 -38 1 -63 8 -76 20
-23 20 -33 22 -33 4z"/>
<path d="M5561 8099 c-17 -14 -39 -19 -82 -19 -50 0 -59 -3 -59 -18 0 -20 39
-62 57 -62 6 0 14 11 17 25 5 18 13 25 31 25 28 0 68 34 63 55 -2 10 -8 9 -27
-6z"/>
<path d="M5063 8013 c7 -72 28 -106 73 -117 13 -4 24 -11 24 -16 0 -5 13 -24
28 -42 36 -42 72 -153 72 -223 0 -66 12 -75 99 -75 80 0 91 5 91 46 0 18 9 48
20 66 13 21 20 51 20 83 0 37 5 55 19 67 10 9 23 23 27 31 5 8 28 26 52 41 52
32 74 79 70 144 -4 68 -28 68 -28 -1 0 -67 -26 -107 -71 -107 -23 0 -31 -6
-43 -35 -14 -33 -17 -35 -65 -35 -58 0 -65 13 -26 50 13 12 23 26 21 29 -2 3
-34 4 -70 3 -65 -4 -66 -4 -66 -32 0 -16 5 -32 10 -35 18 -11 10 -35 -15 -47
-22 -10 -29 -8 -50 12 -14 13 -28 38 -31 57 -6 30 -10 33 -40 33 -26 0 -37 6
-50 28 -9 15 -25 39 -35 54 -11 15 -19 41 -19 58 0 16 -5 30 -11 30 -9 0 -10
-20 -6 -67z m311 -222 c3 -4 19 -11 36 -14 28 -6 30 -9 30 -52 0 -25 -4 -45
-10 -45 -5 0 -10 -9 -10 -20 0 -17 -7 -20 -44 -20 -60 0 -87 23 -93 81 -5 43
-4 45 28 60 41 20 56 22 63 10z m53 -197 c9 -23 -16 -34 -62 -27 -93 14 -96
43 -4 43 45 0 61 -4 66 -16z"/>
<path d="M5050 7826 c0 -8 -8 -28 -17 -44 -17 -29 -17 -32 0 -67 9 -19 17 -44
17 -54 0 -10 7 -25 17 -32 15 -13 16 -10 8 41 -9 63 -9 70 1 128 5 35 4 42
-10 42 -9 0 -16 -6 -16 -14z"/>
<path d="M5650 7740 c0 -33 -4 -60 -10 -60 -5 0 -10 -16 -10 -35 0 -42 12 -44
38 -7 38 53 48 134 18 154 -28 19 -36 7 -36 -52z"/>
<path d="M5127 7563 c-4 -3 -7 -19 -7 -34 0 -21 5 -28 22 -31 13 -2 24 -11 27
-23 2 -11 11 -25 21 -32 10 -7 21 -24 24 -38 4 -15 13 -25 25 -25 10 0 23 -11
29 -25 6 -14 19 -25 27 -25 9 0 29 -10 45 -21 l29 -22 31 24 c116 87 219 210
206 244 -9 26 -23 17 -49 -32 -13 -27 -33 -50 -43 -52 -20 -4 -44 -25 -44 -40
0 -16 -51 -71 -66 -71 -7 0 -16 11 -20 25 -5 21 -10 24 -28 19 -11 -4 -26 -14
-32 -22 -10 -14 -15 -9 -33 26 -12 23 -28 42 -36 42 -9 0 -15 10 -15 25 0 19
-5 25 -21 25 -11 0 -27 6 -35 14 -8 8 -14 24 -14 35 0 20 -28 30 -43 14z"/>
<path d="M7270 7349 c0 -10 45 -17 138 -21 39 -2 72 0 72 4 0 13 -18 16 -117
21 -51 2 -93 1 -93 -4z"/>
<path d="M6617 7390 c-29 -23 -72 -88 -64 -96 3 -3 35 17 72 45 36 28 73 51
81 51 8 0 14 5 14 10 0 18 -76 11 -103 -10z"/>
<path d="M4430 6639 c0 -17 -8 -44 -17 -60 -16 -27 -21 -29 -80 -29 -35 0 -63
-4 -63 -10 0 -5 5 -10 10 -10 6 0 10 -15 10 -34 0 -19 -4 -38 -10 -41 -16 -10
-12 -47 9 -81 13 -21 37 -38 75 -53 59 -24 65 -41 15 -41 -21 0 -40 -11 -67
-38 -31 -32 -36 -41 -27 -60 5 -12 15 -22 22 -22 7 0 13 -4 13 -10 0 -5 18
-21 41 -35 36 -23 44 -25 75 -15 86 29 151 -52 89 -110 -14 -13 -25 -31 -24
-39 0 -9 39 -47 85 -86 95 -77 98 -81 146 -144 22 -31 56 -57 106 -84 l73 -39
-28 -30 c-31 -33 -116 -78 -146 -78 -10 0 -27 -10 -37 -22 -15 -19 -30 -23
-97 -26 -43 -2 -111 1 -151 6 l-73 9 -29 -34 c-17 -19 -30 -42 -30 -52 0 -10
-8 -21 -18 -23 -12 -4 -23 -21 -30 -50 -6 -24 -21 -56 -32 -70 -26 -34 -25
-38 8 -38 36 0 86 -34 92 -62 8 -30 39 -35 59 -10 13 16 32 21 108 25 l92 6 7
-33 c6 -33 7 -33 36 -22 46 17 140 108 129 125 -16 26 23 91 55 91 11 0 29 -9
40 -21 17 -19 18 -21 1 -30 -27 -16 -22 -49 8 -49 16 0 25 6 25 15 0 12 13 15
59 15 33 0 63 5 66 10 3 6 25 10 49 10 67 0 146 27 146 50 0 20 48 60 73 60 9
0 22 -8 29 -19 17 -24 72 -34 175 -33 71 1 90 5 139 32 31 16 71 30 88 30 18
0 49 9 71 20 21 11 54 23 72 26 19 4 38 15 44 25 5 11 18 19 28 19 24 0 80 24
109 48 l24 18 -26 17 c-14 10 -26 23 -26 31 0 30 47 63 115 80 71 18 208 85
305 149 73 48 178 87 257 94 60 6 63 5 63 -17 0 -26 -51 -77 -97 -97 -18 -7
-67 -16 -109 -20 -82 -7 -83 -7 -184 -107 -37 -35 -50 -56 -50 -77 0 -16 -8
-33 -19 -41 -11 -8 -22 -30 -26 -51 -6 -32 -4 -38 18 -48 l25 -11 -20 -35
c-31 -52 -69 -67 -151 -59 -38 3 -81 13 -97 21 -54 28 -88 20 -141 -34 -31
-32 -49 -59 -49 -74 0 -16 -8 -28 -25 -35 -14 -6 -25 -16 -25 -22 0 -5 11 -10
25 -10 16 0 25 -6 25 -15 0 -9 7 -18 15 -21 8 -4 15 -17 15 -30 0 -29 11 -31
34 -5 10 11 30 21 45 23 20 2 29 -3 41 -27 15 -29 60 -48 60 -26 0 7 32 11 86
11 77 0 86 2 91 20 4 16 14 20 50 20 67 0 115 30 151 94 30 52 83 102 96 89 3
-3 6 -24 6 -45 0 -37 1 -38 23 -27 12 6 60 50 106 98 71 73 93 104 142 201 47
95 70 127 127 184 l70 69 7 -59 c4 -33 14 -71 21 -86 8 -15 14 -37 14 -49 0
-37 123 -139 168 -139 25 0 35 -7 53 -40 23 -41 39 -51 39 -25 0 10 10 15 28
15 16 0 37 9 47 20 20 23 47 25 94 9 28 -10 31 -15 31 -55 0 -37 -3 -44 -20
-44 -11 0 -20 -4 -20 -10 0 -6 -33 -10 -79 -10 -44 0 -91 -4 -104 -9 -26 -10
-45 -48 -49 -101 -2 -29 -9 -38 -35 -49 -18 -8 -33 -18 -33 -23 0 -4 32 -8 70
-8 68 0 70 -1 70 -25 0 -30 25 -43 51 -27 10 7 40 12 66 12 27 1 59 7 73 15
45 26 60 20 60 -25 0 -22 5 -40 10 -40 6 0 10 7 10 15 0 18 41 38 120 60 l55
15 -2 124 c-1 68 -5 135 -9 150 -6 25 -5 26 45 26 45 0 51 3 51 20 0 11 -22
49 -49 83 -37 47 -48 68 -44 87 3 18 -5 37 -26 64 -17 21 -31 44 -31 51 0 18
-54 62 -97 80 -20 8 -62 15 -93 15 -48 0 -64 5 -88 25 -41 34 -47 73 -16 102
14 13 36 23 49 23 39 0 72 17 120 61 29 27 47 53 51 74 8 42 -14 140 -38 170
-29 37 -108 84 -168 101 -35 11 -68 29 -92 52 -43 41 -45 48 -21 74 25 28 10
32 -51 14 -62 -18 -121 -63 -130 -100 -5 -21 -13 -25 -64 -31 -105 -11 -635
-144 -656 -165 -26 -26 -250 -4 -323 31 -44 21 -58 54 -28 65 8 4 15 13 15 21
0 25 45 11 48 -14 3 -21 9 -23 56 -23 46 0 54 3 64 24 8 19 20 24 64 29 29 3
82 19 118 36 36 17 71 31 78 31 61 0 -129 77 -247 101 -68 13 -115 5 -174 -32
-18 -10 -40 -19 -49 -19 -25 0 -89 -59 -104 -97 -22 -51 -17 -108 13 -170 29
-58 64 -83 116 -83 13 0 32 -7 43 -15 27 -21 159 -19 270 4 49 10 172 42 271
70 l181 52 174 1 c181 2 302 -16 328 -47 10 -12 19 -10 55 16 41 30 89 37 91
14 0 -5 4 -19 9 -29 13 -30 -15 -69 -60 -84 -44 -14 -137 -5 -214 22 -23 9
-80 20 -126 27 -80 10 -94 9 -232 -20 -82 -17 -175 -35 -208 -40 -33 -5 -91
-21 -130 -36 -175 -68 -325 -89 -452 -62 -78 17 -232 79 -245 100 -4 6 -8 36
-8 65 0 29 -7 69 -16 90 -13 30 -14 59 -9 155 8 129 3 147 -44 147 -48 0 -289
63 -323 84 -13 8 -26 7 -50 -3 -18 -7 -67 -18 -108 -23 -41 -6 -83 -17 -92
-25 -13 -11 -31 -13 -82 -8 -62 7 -66 6 -66 -13 0 -13 -9 -22 -25 -26 -21 -5
-25 -12 -25 -41 0 -19 7 -55 16 -81 13 -40 14 -48 1 -62 -18 -21 -37 -99 -37
-151 0 -38 -32 -136 -50 -155 -15 -15 -76 14 -111 54 -19 22 -39 40 -45 40 -7
0 -37 27 -68 61 -68 73 -71 100 -25 191 37 73 40 120 9 153 -12 13 -20 28 -16
33 8 13 -9 68 -20 63 -5 -2 -8 -12 -6 -23 3 -16 -4 -18 -62 -18 -57 0 -67 3
-84 25 -26 33 -32 32 -32 -6z m1040 -44 c23 -8 61 -15 84 -15 29 0 53 -8 76
-25 24 -18 47 -25 78 -25 43 0 43 0 40 -32 -3 -32 -5 -33 -50 -36 -34 -2 -48
-7 -48 -18 0 -8 10 -14 23 -15 60 -3 62 -4 63 -29 1 -14 5 -62 9 -107 7 -80 7
-81 -16 -85 -32 -4 -41 -48 -10 -48 13 0 21 -6 21 -17 0 -10 12 -27 27 -39 25
-20 27 -26 25 -99 -1 -79 -18 -182 -32 -206 -7 -11 -13 -9 -30 6 -21 19 -22
19 -35 2 -11 -15 -10 -23 2 -48 31 -61 9 -157 -47 -211 -21 -21 -44 -38 -50
-38 -5 0 -10 22 -10 50 0 54 -1 55 -31 40 -15 -9 -19 -22 -19 -70 0 -62 -15
-90 -49 -90 -10 0 -26 -9 -36 -20 -22 -24 -60 -26 -69 -4 -3 9 -6 33 -6 55 0
35 -3 39 -25 39 -24 0 -25 -3 -25 -56 l0 -55 -29 20 c-16 12 -33 21 -37 21
-15 0 -97 94 -86 98 7 2 12 25 12 58 0 61 -18 72 -46 29 l-17 -26 -28 27 c-15
15 -40 50 -55 79 l-28 52 24 38 c21 34 22 38 7 47 -10 5 -17 16 -17 23 0 26
-15 16 -28 -17 -22 -60 -37 -19 -40 115 l-4 123 36 53 c40 58 43 71 21 71 -8
0 -15 -5 -15 -11 0 -5 -4 -7 -10 -4 -19 11 -10 86 15 136 17 34 23 59 19 79
-6 27 -4 29 27 32 46 4 51 32 10 56 -37 20 -42 52 -8 52 12 0 28 -4 35 -9 16
-10 84 12 122 39 44 31 190 40 260 15z m-920 -30 c0 -10 10 -15 33 -15 18 0
38 -5 45 -12 20 -20 14 -68 -13 -100 -21 -25 -25 -40 -25 -95 0 -62 2 -67 46
-125 30 -39 88 -91 160 -145 100 -73 114 -88 114 -113 0 -41 47 -185 65 -200
8 -7 15 -26 15 -42 0 -16 5 -38 10 -49 10 -18 7 -19 -45 -19 -57 0 -119 23
-144 54 -8 9 -19 16 -26 16 -15 0 -28 27 -19 41 3 5 14 9 25 9 32 0 59 19 59
40 0 18 -7 20 -79 20 -99 0 -125 10 -178 67 -44 47 -44 53 -7 103 26 35 27 61
1 88 -14 15 -27 36 -29 47 -3 16 -12 21 -53 23 -41 3 -52 0 -65 -19 -16 -20
-19 -20 -46 -8 -26 13 -29 19 -29 63 0 49 0 49 39 60 25 7 40 18 42 30 4 27
-41 63 -87 71 -46 8 -63 33 -54 77 6 23 17 34 51 50 25 10 55 18 67 16 19 -3
22 2 25 40 l3 42 50 0 c37 0 49 -4 49 -15z m1732 -69 c55 -9 97 -22 113 -34
l25 -20 -28 -5 c-71 -15 -161 -52 -165 -69 -6 -21 -47 -25 -47 -4 0 21 -22 34
-66 41 -30 5 -45 3 -63 -12 -22 -18 -42 -84 -33 -111 2 -7 32 -27 65 -45 60
-31 66 -32 182 -32 116 0 126 2 315 57 107 31 222 62 255 68 33 7 73 19 88 27
33 17 119 14 125 -4 2 -7 -2 -13 -10 -13 -7 0 -21 -8 -29 -18 -11 -13 -52 -25
-135 -41 -65 -12 -213 -45 -329 -73 -203 -48 -214 -50 -325 -46 -88 3 -126 9
-161 25 -57 26 -129 89 -129 114 0 10 12 43 26 73 37 74 126 128 224 135 8 0
54 -5 102 -13z m978 -25 c20 -48 61 -78 149 -107 77 -25 99 -39 162 -96 29
-27 26 -112 -5 -153 -30 -39 -127 -91 -187 -100 -68 -10 -76 -17 -51 -52 11
-15 27 -51 34 -78 18 -62 40 -75 131 -75 80 0 119 -17 137 -59 7 -18 21 -31
33 -33 14 -2 23 -11 25 -27 4 -24 3 -24 -57 -18 -40 5 -61 3 -61 -4 0 -18 28
-39 53 -39 13 0 32 -9 42 -20 10 -11 24 -20 31 -20 7 0 29 -21 49 -47 l37 -48
-47 -3 c-40 -3 -46 -6 -39 -20 4 -9 10 -67 13 -128 4 -69 11 -117 19 -127 13
-15 8 -56 -6 -58 -40 -7 -62 -6 -62 2 0 5 -22 7 -55 3 -54 -7 -55 -6 -55 20 0
16 -5 26 -15 26 -8 0 -15 -7 -15 -15 0 -23 -60 -50 -82 -36 -10 6 -25 11 -33
11 -8 0 -15 6 -15 14 0 17 -22 26 -66 26 -32 0 -34 2 -34 35 0 45 16 52 117
53 54 1 93 7 113 17 l30 16 0 90 c0 80 -2 90 -15 79 -11 -10 -25 -10 -59 -1
-53 13 -99 6 -122 -20 -22 -24 -36 -24 -60 2 -10 12 -48 36 -84 54 -99 50
-111 67 -121 174 -11 121 -43 201 -86 220 -18 8 -33 20 -33 27 0 8 -24 15 -66
19 -131 15 -270 -17 -386 -88 -89 -54 -307 -164 -398 -201 -96 -39 -150 -69
-150 -83 0 -7 4 -13 10 -13 16 0 23 -49 10 -65 -17 -20 -103 -20 -120 0 -13
15 -80 21 -80 7 0 -4 14 -16 30 -25 41 -25 38 -42 -13 -72 -49 -28 -98 -32
-141 -10 -36 19 -34 20 -38 -16 -3 -27 -9 -34 -52 -51 -50 -19 -141 -22 -141
-4 0 6 14 13 31 18 17 4 39 17 49 28 10 11 24 20 32 20 7 0 28 14 46 30 18 17
53 49 78 73 35 32 52 60 74 117 15 41 37 88 48 104 16 23 21 50 25 147 4 99 8
121 23 135 18 16 22 16 67 -5 65 -30 172 -51 263 -51 129 0 342 45 494 105
145 57 387 72 565 35 107 -22 181 -25 213 -9 34 18 87 71 87 89 0 8 -14 32
-31 53 -30 36 -34 38 -83 35 -44 -3 -51 -6 -54 -25 -4 -26 -36 -32 -45 -9 -3
7 -23 18 -44 24 -21 5 -30 10 -20 11 9 1 17 6 17 12 0 7 -16 9 -47 5 -123 -17
-183 -18 -183 -3 0 13 113 97 132 97 4 0 8 15 8 34 0 26 7 39 28 55 35 27 37
26 52 -8z m-288 -580 c41 -46 35 -76 -22 -108 -25 -14 -58 -37 -73 -51 -31
-29 -87 -135 -87 -164 0 -23 -39 -78 -56 -78 -7 0 -14 6 -17 13 -2 6 -11 -2
-20 -19 -9 -17 -23 -36 -31 -43 -9 -8 -16 -26 -16 -40 0 -34 -34 -71 -65 -71
-20 0 -24 6 -27 35 l-3 35 -98 -96 c-96 -95 -98 -96 -136 -90 -33 5 -39 3 -44
-14 -3 -11 -21 -27 -40 -36 -30 -15 -39 -15 -66 -3 -17 8 -31 19 -31 25 0 7
-10 12 -22 13 -13 1 -49 4 -80 7 -53 5 -58 8 -58 30 0 21 -5 24 -35 24 -27 0
-35 4 -35 18 0 40 87 81 131 63 13 -6 56 -15 94 -20 118 -17 182 9 216 90 12
27 27 54 35 60 26 21 16 39 -20 39 -33 0 -34 1 -27 28 16 54 40 87 100 139 72
63 94 73 171 73 32 0 62 5 65 10 3 6 15 10 25 10 10 0 37 21 60 47 36 42 41
51 35 81 l-6 34 76 -4 c72 -3 79 -6 107 -37z m-1917 -301 c3 -5 16 -10 29 -10
27 0 46 -20 74 -75 11 -22 29 -49 41 -59 12 -11 21 -28 21 -38 0 -32 -49 -87
-87 -97 -50 -14 -59 -7 -55 41 3 28 1 39 -7 34 -6 -4 -11 -15 -11 -25 0 -22
-45 -64 -93 -86 -21 -10 -39 -16 -40 -14 -1 2 -9 17 -17 33 -17 34 -50 46
-112 39 -36 -4 -48 -11 -66 -37 -12 -18 -22 -45 -22 -60 0 -25 -2 -27 -30 -21
-26 6 -30 3 -36 -19 -7 -28 -34 -36 -34 -11 0 23 -46 41 -65 25 -8 -7 -12 -16
-9 -21 12 -20 -28 -21 -47 0 -12 12 -32 21 -49 21 -25 0 -30 4 -30 25 0 14 -5
25 -10 25 -6 0 -15 -11 -20 -25 -5 -14 -14 -25 -20 -25 -13 0 -69 61 -70 75 0
16 68 85 84 85 15 0 20 11 17 38 -3 20 48 14 81 -9 26 -19 39 -21 96 -16 83 7
197 48 197 71 0 18 36 40 113 67 29 10 66 27 81 39 49 34 86 46 96 30z"/>
<path d="M5260 6501 c0 -6 12 -14 28 -17 15 -4 32 -10 37 -15 6 -4 17 -4 25 1
8 6 46 10 83 10 50 0 68 3 65 13 -6 15 -238 23 -238 8z"/>
<path d="M5170 6377 c0 -20 43 -57 66 -57 13 0 24 -11 31 -31 10 -27 14 -29
33 -19 19 10 25 20 35 55 6 23 -3 27 -56 28 -38 1 -63 8 -76 20 -23 20 -33 22
-33 4z"/>
<path d="M5560 6368 c-19 -16 -36 -19 -82 -16 -53 3 -58 1 -58 -18 0 -21 38
-64 57 -64 6 0 14 11 17 25 5 18 13 25 29 25 14 0 32 12 46 31 28 37 24 44 -9
17z"/>
<path d="M5063 6285 c5 -55 11 -69 34 -90 15 -14 38 -28 51 -31 12 -3 22 -12
22 -19 0 -8 10 -26 23 -42 32 -39 67 -152 67 -218 0 -43 4 -56 19 -65 22 -11
140 -13 157 -2 7 4 14 26 16 48 3 23 12 52 22 65 10 14 16 43 16 76 0 34 5 55
14 60 8 4 24 25 36 46 12 20 28 37 36 37 7 0 28 13 46 29 30 27 33 34 33 92 0
41 -4 64 -12 66 -9 3 -13 -10 -13 -45 0 -43 -5 -55 -31 -81 -17 -17 -39 -31
-49 -31 -10 0 -27 -15 -39 -35 -18 -32 -24 -35 -66 -35 -53 0 -60 19 -20 56
39 36 32 44 -45 44 -68 0 -70 -1 -70 -24 0 -14 5 -28 10 -31 6 -3 10 -20 10
-36 0 -35 -23 -48 -48 -27 -9 8 -25 18 -35 21 -9 4 -20 19 -23 35 -4 18 -17
35 -37 47 -57 32 -107 91 -107 125 0 16 -5 30 -11 30 -8 0 -10 -19 -6 -65z
m320 -219 c3 -8 16 -16 29 -18 18 -2 24 -10 26 -37 2 -19 -2 -45 -9 -58 -11
-20 -20 -23 -65 -23 -60 0 -84 21 -84 75 0 25 7 33 43 52 52 26 54 26 60 9z
m37 -206 c0 -21 -5 -23 -60 -20 -35 2 -60 15 -60 31 0 5 27 9 60 9 53 0 60 -2
60 -20z"/>
<path d="M5034 6073 c-9 -20 -13 -46 -11 -57 22 -92 67 -147 52 -65 -9 51 -9
60 1 117 6 35 4 42 -10 42 -10 0 -23 -15 -32 -37z"/>
<path d="M5650 6010 c0 -33 -4 -60 -10 -60 -5 0 -10 -7 -10 -15 0 -17 14 -19
40 -5 35 19 46 112 16 132 -28 19 -36 7 -36 -52z"/>
<path d="M5127 5833 c-4 -3 -7 -19 -7 -34 0 -21 5 -28 23 -31 14 -2 23 -11 25
-24 2 -12 11 -24 21 -27 10 -2 21 -18 24 -36 4 -18 13 -31 22 -31 8 0 37 -16
64 -35 26 -19 54 -35 60 -35 44 0 187 117 228 187 23 41 26 73 4 73 -5 0 -18
-16 -29 -35 -12 -19 -32 -37 -46 -41 -17 -4 -26 -13 -26 -25 0 -10 -4 -19 -10
-19 -5 0 -10 -6 -10 -13 0 -19 -43 -57 -63 -57 -10 0 -20 7 -23 15 -8 20 -33
19 -55 -1 -17 -15 -20 -14 -40 20 -11 20 -27 36 -35 36 -8 0 -14 10 -14 25 0
19 -5 25 -21 25 -11 0 -27 6 -35 14 -8 8 -14 24 -14 35 0 20 -28 30 -43 14z"/>
<path d="M7270 5641 c0 -21 47 -36 128 -41 45 -3 82 -2 82 2 0 16 -49 32 -108
34 -35 2 -72 6 -83 9 -10 4 -19 2 -19 -4z"/>
<path d="M6700 5700 c-6 -11 -20 -20 -31 -20 -31 0 -75 -27 -98 -59 -39 -55
-24 -53 82 11 53 32 67 45 67 64 0 29 -6 30 -20 4z"/>
<path d="M4430 4906 c0 -18 -7 -39 -15 -46 -8 -7 -15 -19 -15 -26 0 -11 -16
-14 -65 -14 -37 0 -65 -4 -65 -10 0 -5 5 -10 11 -10 7 0 9 -11 4 -32 -14 -63
-10 -108 10 -128 23 -22 136 -71 148 -63 15 9 -57 62 -84 63 -14 0 -33 6 -43
13 -26 19 -13 74 20 89 13 6 24 15 24 19 0 4 19 7 43 6 l42 -2 3 43 3 42 50 0
c37 0 49 -4 49 -15 0 -10 10 -15 33 -15 42 0 57 -15 57 -56 0 -23 -8 -38 -25
-52 -22 -18 -25 -27 -25 -90 0 -69 1 -73 48 -134 31 -42 76 -82 135 -124 120
-83 129 -93 144 -166 7 -35 26 -90 42 -123 16 -33 31 -73 34 -90 2 -16 8 -38
12 -47 6 -16 1 -18 -46 -18 -86 1 -174 54 -194 118 -5 19 -3 22 20 22 30 0 65
16 65 30 0 6 -35 10 -79 10 -101 0 -127 10 -179 70 -41 48 -52 70 -32 70 6 0
10 5 10 11 0 6 9 22 20 36 27 35 26 67 -4 81 -14 6 -26 21 -28 34 -3 22 -7 23
-101 26 l-98 3 3 41 c3 39 5 42 43 52 38 11 52 32 20 30 -8 0 -29 -1 -45 -2
-21 -1 -43 -14 -68 -40 -31 -32 -36 -41 -27 -60 5 -12 14 -22 18 -22 5 0 17
-10 27 -22 15 -19 32 -23 104 -29 47 -4 93 -12 101 -19 24 -20 18 -68 -10 -94
-14 -13 -25 -32 -24 -42 0 -20 113 -120 164 -147 17 -8 45 -38 63 -66 32 -49
80 -89 151 -125 l33 -18 -23 -25 c-28 -29 -130 -83 -158 -83 -11 0 -23 -4 -26
-10 -3 -5 -15 -10 -26 -10 -11 0 -22 -7 -25 -15 -8 -21 -131 -20 -158 0 -11 8
-41 15 -67 15 -40 0 -53 -5 -78 -31 -17 -17 -31 -38 -31 -47 0 -10 -9 -23 -19
-29 -11 -7 -22 -29 -26 -52 -4 -23 -18 -57 -31 -76 -30 -44 -30 -45 2 -45 33
0 94 -37 94 -56 0 -16 55 -20 65 -4 3 6 33 10 65 10 32 0 71 5 86 10 34 13 54
-2 54 -43 l0 -30 23 20 c12 11 31 24 42 27 11 4 40 24 65 45 37 32 42 41 32
54 -22 26 14 87 53 87 12 0 30 -9 41 -21 17 -19 18 -21 1 -30 -24 -14 -22 -49
3 -49 11 0 23 7 26 15 5 11 22 15 64 15 33 0 61 4 64 9 3 4 32 11 65 14 69 6
131 38 131 67 0 55 144 50 190 -5 12 -14 25 -15 84 -10 39 4 87 15 106 25 76
38 128 58 195 74 39 9 82 25 97 36 15 11 36 20 46 20 24 0 67 18 105 44 l28
19 -28 22 c-26 22 -27 24 -13 50 17 32 83 67 159 85 30 7 85 32 121 56 142 92
324 164 412 164 32 0 38 -3 38 -21 0 -25 -52 -77 -97 -96 -18 -7 -68 -16 -110
-20 -60 -5 -81 -11 -91 -25 -8 -10 -30 -25 -51 -34 -40 -16 -91 -87 -91 -128
0 -13 -9 -30 -19 -37 -11 -8 -22 -29 -26 -46 -6 -29 -4 -34 20 -43 15 -6 25
-13 23 -18 -19 -40 -48 -73 -70 -81 -17 -6 -61 -4 -130 5 -56 8 -123 13 -148
12 -38 -3 -47 -7 -60 -33 -8 -16 -23 -36 -32 -43 -10 -7 -18 -26 -18 -42 0
-23 -5 -31 -25 -36 -35 -9 -32 -34 3 -34 34 0 52 -16 52 -47 0 -13 1 -23 3
-23 1 0 24 7 51 15 51 15 65 10 66 -22 0 -22 21 -25 41 -7 17 16 35 18 104 16
50 -2 86 1 90 8 3 5 26 10 51 10 67 0 116 30 152 92 16 29 46 69 66 87 l36 35
0 -57 c0 -57 0 -57 23 -46 12 6 60 50 106 98 73 75 92 103 149 216 51 101 78
142 120 183 30 28 58 52 63 52 4 0 11 -17 14 -37 3 -21 12 -59 20 -84 8 -26
15 -53 15 -60 0 -8 23 -38 52 -67 51 -52 102 -82 140 -82 11 0 22 -8 25 -19 7
-29 51 -36 77 -13 30 28 60 35 117 27 l49 -7 0 -43 c0 -34 -4 -44 -20 -48 -11
-3 -20 -12 -20 -21 0 -13 -13 -16 -77 -16 -43 0 -88 -3 -101 -6 -29 -8 -52
-52 -52 -99 0 -31 -5 -38 -35 -52 -19 -9 -35 -20 -35 -25 0 -11 44 -10 56 2 6
6 22 6 46 0 29 -9 37 -16 40 -38 4 -34 41 -43 57 -14 8 15 25 20 83 25 40 3
81 8 91 12 14 6 17 1 17 -29 0 -20 2 -36 5 -36 3 0 18 11 32 24 15 14 45 28
67 31 23 3 52 8 66 11 l25 4 -2 125 c-1 69 -5 141 -9 161 l-7 37 52 -5 c38 -4
51 -2 51 8 0 16 -51 93 -79 118 -14 12 -19 26 -15 38 9 29 -6 77 -26 83 -10 3
-24 21 -30 40 -19 57 -95 95 -192 95 -73 0 -114 32 -124 97 l-6 41 48 8 c62 8
87 22 146 77 59 56 65 80 42 174 -15 59 -24 78 -49 97 -40 31 -107 64 -174 87
-87 30 -128 83 -84 108 35 19 1 24 -52 7 -58 -18 -125 -68 -125 -92 0 -14 -16
-19 -92 -28 -68 -8 -319 -71 -444 -111 -59 -19 -125 -35 -145 -35 -21 0 -64
-7 -96 -15 -143 -37 -313 1 -313 71 0 15 6 24 15 24 8 0 15 5 15 10 0 6 11 10
25 10 20 0 25 -5 25 -25 0 -24 3 -25 54 -25 49 0 54 2 60 25 5 21 12 25 44 25
20 0 60 11 87 25 28 13 57 25 66 25 15 0 79 59 79 73 0 4 -17 7 -37 7 -21 0
-76 10 -123 21 -118 30 -199 29 -277 -3 -72 -30 -129 -72 -149 -110 -24 -46
-18 -121 16 -188 26 -51 34 -60 58 -60 15 0 50 -12 77 -25 89 -44 206 -32 485
50 172 50 248 65 338 66 42 1 88 4 101 8 29 8 198 -5 251 -19 20 -6 49 -19 63
-30 l25 -20 30 30 c22 22 40 30 66 30 32 0 36 -3 42 -36 15 -83 -74 -107 -261
-70 -182 37 -203 38 -338 21 -126 -17 -227 -41 -452 -110 -96 -30 -142 -38
-229 -43 -126 -5 -182 5 -301 55 -90 37 -95 44 -95 135 0 21 -7 55 -16 76 -13
30 -14 59 -9 153 7 131 7 133 -65 143 -77 10 -196 40 -212 54 -8 6 -37 19 -64
27 -46 14 -55 13 -149 -11 -55 -14 -112 -32 -127 -40 -21 -11 -43 -13 -88 -8
-56 6 -60 5 -60 -14 0 -13 -9 -22 -25 -26 -21 -5 -25 -12 -25 -41 0 -19 7 -53
16 -75 14 -34 14 -43 3 -57 -19 -22 -38 -99 -39 -155 0 -29 -10 -68 -28 -106
l-28 -59 -30 14 c-16 8 -43 30 -61 49 -18 19 -41 34 -51 34 -11 0 -44 26 -76
61 -68 74 -73 105 -25 194 37 69 40 117 10 149 -12 13 -19 30 -16 38 8 20 -13
71 -25 63 -6 -4 -8 -15 -5 -26 6 -16 1 -19 -30 -19 -20 0 -51 7 -68 16 -51 27
-66 34 -72 34 -3 0 -5 -15 -5 -34z m1040 -31 c25 -18 47 -25 80 -25 33 0 55
-7 80 -25 24 -18 47 -25 78 -25 43 0 43 0 40 -32 -3 -32 -5 -33 -50 -36 -69
-4 -60 -33 11 -36 21 -1 26 -6 27 -26 1 -14 5 -57 9 -97 7 -69 6 -72 -19 -88
-31 -21 -35 -55 -6 -55 11 0 20 -5 20 -10 0 -6 11 -22 24 -35 13 -13 26 -38
28 -56 7 -44 -8 -185 -23 -221 -10 -25 -16 -28 -39 -23 -38 8 -42 -4 -25 -63
11 -35 12 -57 6 -74 -5 -13 -12 -39 -16 -60 -4 -27 -17 -45 -49 -72 -25 -20
-47 -36 -50 -36 -3 0 -6 23 -6 51 0 47 -2 50 -22 47 -20 -3 -24 -10 -28 -66
-5 -62 -6 -64 -50 -93 -30 -20 -54 -29 -75 -27 -28 3 -30 6 -33 46 -3 37 -6
42 -28 42 -22 0 -24 -4 -24 -45 0 -25 -2 -45 -5 -45 -3 0 -22 9 -43 19 -41 21
-123 101 -104 101 8 0 12 19 12 55 0 63 -16 72 -48 28 l-20 -27 -34 54 c-77
123 -75 115 -49 151 21 28 22 33 7 41 -9 5 -16 16 -16 23 0 22 -18 18 -25 -5
-9 -27 -31 -25 -39 3 -3 12 -6 68 -6 123 0 100 1 103 35 154 39 57 42 70 20
70 -8 0 -15 -5 -15 -11 0 -5 -5 -7 -11 -3 -19 11 -6 120 19 153 16 22 20 38
16 60 -6 28 -4 30 27 33 46 4 51 32 10 56 -17 9 -31 25 -31 35 0 14 9 17 48
17 26 0 56 7 66 15 11 8 30 15 43 15 13 0 31 4 41 9 36 19 119 39 163 40 33 1
54 -5 79 -24z m833 -112 c159 -23 154 -48 -15 -68 -48 -5 -57 -10 -60 -28 -4
-32 -39 -33 -68 -2 -33 35 -91 35 -119 -1 -27 -34 -29 -104 -3 -126 100 -89
277 -89 522 -2 52 19 129 41 171 49 41 7 99 23 128 34 35 14 75 21 124 21 l71
0 -21 -21 c-16 -16 -103 -42 -360 -106 l-338 -85 -115 4 c-131 5 -180 21 -249
83 -49 45 -51 66 -13 134 38 69 121 118 217 130 6 1 63 -7 128 -16z m960 -28
c19 -39 75 -72 172 -100 33 -9 67 -22 75 -29 8 -7 23 -16 33 -19 25 -9 47 -67
47 -126 0 -46 -3 -52 -47 -91 -61 -53 -79 -60 -164 -60 -68 0 -69 -1 -69 -26
0 -14 9 -38 19 -53 10 -14 26 -49 33 -76 19 -63 40 -75 136 -75 79 0 127 -17
136 -48 4 -11 18 -24 31 -30 17 -8 25 -20 25 -37 0 -21 -5 -25 -27 -25 -16 1
-39 7 -53 15 -34 20 -40 19 -40 -8 0 -19 8 -26 38 -35 21 -7 47 -21 57 -32 10
-11 24 -20 31 -20 7 0 29 -21 49 -47 l37 -48 -46 -3 c-44 -3 -45 -4 -36 -28 6
-14 10 -67 10 -117 0 -63 5 -101 15 -121 14 -27 12 -65 -3 -67 -40 -7 -62 -6
-62 1 0 5 -24 8 -52 7 -48 -2 -53 0 -56 21 -4 30 -20 28 -57 -7 -28 -28 -32
-29 -67 -18 -21 7 -38 17 -38 23 0 15 -24 24 -66 24 -32 0 -34 2 -34 34 0 18
6 38 13 44 6 5 47 10 89 10 142 1 158 14 158 130 l0 85 -82 -5 c-48 -3 -96
-11 -113 -20 -27 -14 -32 -15 -50 -1 -11 8 -51 30 -90 48 -103 48 -116 66
-126 172 -12 136 -42 211 -94 235 -14 6 -25 17 -25 23 0 17 -34 25 -110 25
-113 0 -194 -24 -340 -98 -74 -38 -202 -95 -283 -127 -113 -44 -159 -68 -190
-97 -23 -21 -49 -41 -59 -44 -19 -6 -25 -34 -8 -34 16 0 23 -49 10 -65 -17
-20 -103 -20 -120 0 -13 15 -80 21 -80 7 0 -4 14 -16 30 -25 29 -18 40 -37 20
-37 -5 0 -18 -10 -30 -22 -16 -17 -32 -22 -73 -22 -28 -1 -64 3 -79 7 -26 7
-28 5 -28 -22 0 -27 -4 -31 -37 -36 -21 -3 -50 -13 -65 -21 -33 -18 -62 -18
-77 0 -9 11 -7 15 12 20 13 3 42 23 66 45 24 22 46 39 50 38 11 -3 65 37 103
75 22 23 47 65 64 110 15 40 36 86 47 102 17 25 21 49 25 163 l5 133 27 0 c15
0 65 -11 111 -24 127 -36 134 -37 233 -37 114 0 214 20 359 72 180 65 277 82
462 83 93 1 179 -4 205 -11 133 -34 156 -36 206 -19 58 19 104 61 104 93 0 13
-3 23 -7 23 -5 0 -17 14 -28 30 -19 29 -24 30 -75 28 -48 -3 -55 -6 -58 -25
-4 -26 -37 -32 -46 -8 -3 8 -23 18 -46 21 -41 7 -58 34 -20 34 26 0 26 12 0
28 -17 10 -24 10 -44 -3 -13 -9 -27 -23 -30 -31 -4 -10 -23 -14 -71 -14 -58 0
-65 2 -65 20 0 13 22 36 62 65 34 25 66 45 70 45 4 0 8 10 8 23 0 27 9 40 35
55 28 16 30 16 48 -23z m-298 -555 c9 -7 23 -26 31 -42 17 -32 16 -34 -82
-103 -49 -35 -68 -56 -93 -106 -17 -34 -31 -73 -31 -86 0 -45 -61 -105 -72
-71 -6 17 -68 -76 -68 -101 0 -11 -11 -33 -25 -48 l-25 -28 -21 24 c-11 14
-18 33 -16 43 9 33 -12 29 -40 -9 -15 -21 -59 -69 -97 -107 -66 -65 -71 -68
-107 -62 -31 5 -37 3 -42 -14 -3 -11 -22 -27 -42 -36 -31 -12 -41 -13 -66 -2
-16 7 -29 21 -29 30 0 16 -10 18 -80 18 -79 0 -80 0 -80 25 0 21 -5 25 -30 25
-40 0 -49 24 -20 55 43 45 79 50 178 21 96 -29 134 -27 190 6 21 13 40 37 53
69 12 26 27 54 35 60 26 21 16 39 -22 39 -32 0 -35 2 -28 23 22 72 81 148 148
192 17 11 57 21 107 25 66 6 85 12 107 32 15 14 35 28 45 31 9 4 21 17 27 31
5 13 14 27 20 31 7 4 9 18 5 32 l-6 26 80 -5 c46 -3 87 -10 96 -18z m-1910
-320 c3 -5 17 -10 30 -10 26 0 55 -31 75 -80 7 -16 16 -30 20 -30 17 0 40 -32
40 -55 0 -15 -16 -40 -40 -65 -31 -31 -47 -40 -74 -40 l-34 0 6 43 c5 38 4 41
-11 28 -10 -7 -17 -21 -17 -30 0 -10 -10 -27 -22 -38 -24 -21 -97 -59 -101
-52 -2 2 -8 17 -15 32 -6 15 -20 30 -29 34 -10 3 -26 13 -35 21 -16 13 -20 13
-42 -2 -14 -9 -31 -16 -37 -16 -24 0 -59 -51 -59 -86 0 -34 -1 -35 -28 -29
-21 4 -33 0 -48 -16 l-19 -21 -5 24 c-4 14 -13 23 -25 23 -24 0 -57 -24 -49
-36 12 -21 -28 -20 -47 0 -12 12 -32 21 -49 21 -25 0 -30 4 -30 25 0 29 -17
34 -27 8 -4 -10 -11 -21 -17 -25 -12 -8 -76 49 -76 67 0 19 61 85 80 85 11 0
20 10 24 26 7 27 7 27 79 19 40 -4 90 -8 112 -8 51 -1 151 29 174 52 24 24
186 111 236 127 51 16 53 16 60 4z m1297 -142 c-7 -7 -12 -8 -12 -2 0 14 12
26 19 19 2 -3 -1 -11 -7 -17z"/>
<path d="M5267 4769 c20 -20 78 -36 99 -28 10 4 45 8 77 8 42 1 58 5 55 14 -3
8 -39 13 -124 15 -92 2 -116 0 -107 -9z"/>
<path d="M5170 4654 c1 -18 50 -64 69 -64 12 0 23 -11 30 -31 9 -25 13 -29 29
-20 11 6 26 30 34 55 l15 44 -71 4 c-39 3 -79 8 -88 12 -10 5 -18 4 -18 0z"/>
<path d="M5550 4650 c-8 -5 -41 -10 -72 -10 -53 0 -58 -2 -58 -22 0 -20 45
-78 61 -78 4 0 10 11 13 25 4 15 14 25 24 25 15 0 72 53 72 66 0 7 -25 4 -40
-6z"/>
<path d="M5062 4583 c5 -67 38 -126 81 -145 15 -7 27 -19 27 -26 0 -7 12 -24
26 -39 33 -33 64 -133 64 -210 0 -53 3 -64 21 -74 20 -10 152 -10 162 1 3 3 7
23 9 45 3 22 12 54 21 72 10 18 17 55 17 85 0 46 3 55 23 63 12 6 23 20 25 31
2 14 16 27 42 36 50 20 73 57 78 129 4 49 2 59 -12 59 -12 0 -16 -10 -16 -42
0 -50 -34 -106 -70 -115 -14 -3 -38 -21 -53 -39 -22 -27 -36 -34 -63 -34 -46
0 -54 23 -20 55 14 13 26 28 26 33 0 9 -87 32 -121 32 -14 0 -19 -7 -19 -30 0
-17 5 -39 12 -49 15 -25 3 -51 -24 -51 -31 0 -64 24 -71 52 -4 13 -21 32 -39
42 -18 10 -50 36 -70 57 -31 31 -38 45 -38 79 0 23 -5 40 -11 40 -8 0 -10 -19
-7 -57z m318 -233 c0 -5 13 -10 28 -10 27 0 29 -3 30 -42 1 -24 -3 -55 -9 -70
-10 -26 -16 -28 -64 -28 -65 0 -79 15 -80 83 0 50 0 50 40 62 52 17 55 17 55
5z m21 -180 c11 -6 19 -21 19 -35 0 -23 -4 -25 -48 -25 -44 0 -72 12 -72 32 0
4 8 8 18 8 9 0 26 7 36 15 24 18 22 18 47 5z"/>
<path d="M5034 4348 c-16 -30 -16 -36 1 -88 10 -30 19 -61 21 -67 2 -7 9 -13
15 -13 8 0 9 12 4 43 -10 51 -10 71 0 120 6 30 5 37 -8 37 -9 0 -24 -14 -33
-32z"/>
<path d="M5650 4290 c0 -40 -4 -70 -10 -70 -5 0 -10 -7 -10 -15 0 -17 14 -19
40 -5 50 27 40 159 -12 160 -5 0 -8 -31 -8 -70z"/>
<path d="M5124 4098 c-4 -6 0 -16 9 -23 10 -7 17 -16 17 -21 0 -5 13 -24 29
-41 16 -18 32 -46 36 -63 4 -20 13 -30 25 -30 9 0 23 -6 29 -14 7 -8 32 -24
56 -35 l44 -21 53 36 c69 45 150 124 174 169 15 28 16 37 5 47 -10 11 -19 6
-45 -24 -18 -21 -41 -38 -50 -38 -9 0 -16 -8 -16 -20 0 -12 -5 -26 -10 -33 -6
-7 -20 -25 -31 -40 -26 -34 -62 -34 -67 1 -4 29 -52 32 -52 3 0 -33 -18 -33
-35 -2 -8 17 -24 35 -35 41 -11 6 -20 20 -20 30 0 15 -7 20 -25 20 -17 0 -25
6 -25 18 -1 39 -49 69 -66 40z"/>
<path d="M7270 3909 c0 -21 62 -39 137 -39 70 1 76 2 59 15 -10 8 -37 16 -60
19 -94 12 -136 13 -136 5z"/>
<path d="M6707 3983 c-5 -7 -19 -13 -33 -13 -25 0 -124 -87 -124 -110 0 -17
16 -11 76 30 89 60 96 67 92 87 -2 13 -6 15 -11 6z"/>
</g>
</svg>
