<?xml version="1.0" encoding="UTF-8"?>
<svg width="51px" height="16px" viewBox="0 0 51 16" version="1.1" xmlns="http://www.w3.org/2000/svg" xmlns:xlink="http://www.w3.org/1999/xlink">
    <!-- Generator: sketchtool 51.3 (57544) - http://www.bohemiancoding.com/sketch -->
    <title>424F289B-BBC6-439A-815E-A49DB0760ECF</title>
    <desc>Created with sketchtool.</desc>
    <defs></defs>
    <g id="Desktop-Laptop" stroke="none" stroke-width="1" fill="none" fill-rule="evenodd">
        <g id="4_1440x900_Saatekava" transform="translate(-72.000000, -136.000000)" fill="#071c2e" fill-rule="nonzero">
            <g id="Top-menu" transform="translate(0.000000, 120.000000)">
                <g id="ERR_Logo" transform="translate(72.000000, 16.000000)">
                    <path d="M47.4369863,12.0547945 L45.6205479,9.57077626 L45.690411,9.57077626 C48.2054795,9.57077626 50.2315068,7.45205479 50.2315068,4.82191781 C50.2315068,2.11872146 48.2054795,0 45.690411,0 L41.1493151,0 C39.3328767,0 37.3068493,0.949771689 36.3986301,3.65296804 L33.9534247,11.3242009 C33.5342466,12.4200913 32.9054795,12.7123288 32.3465753,12.7123288 L31.5780822,12.7123288 C31.0890411,12.7123288 30.669863,12.4931507 30.3205479,12.1278539 L28.4342466,9.57077626 L28.5041096,9.57077626 C31.0191781,9.57077626 33.0452055,7.45205479 33.0452055,4.82191781 C33.0452055,2.19178082 31.0191781,0.0730593607 28.5041096,0.0730593607 L23.9630137,0.0730593607 C22.1465753,0.0730593607 20.1205479,1.02283105 19.2123288,3.7260274 L16.7671233,11.3972603 C16.3479452,12.4931507 15.7191781,12.7853881 15.160274,12.7853881 L4.47123288,12.7853881 C3.63287671,12.7853881 2.93424658,12.0547945 2.93424658,11.1780822 C2.93424658,11.0319635 2.93424658,10.8127854 3.00410959,10.6666667 L4.96027397,4.60273973 C5.16986301,3.87214612 5.72876712,3.21461187 6.56712329,3.21461187 L11.3178082,3.21461187 C12.1561644,3.21461187 12.8547945,3.94520548 12.8547945,4.82191781 C12.8547945,5.69863014 12.1561644,6.42922374 11.3178082,6.42922374 L7.47534247,6.42922374 L6.49726027,9.64383562 L11.3178082,9.64383562 C13.8328767,9.64383562 15.8589041,7.52511416 15.8589041,4.89497717 C15.9287671,2.11872146 13.9027397,0 11.3876712,0 L6.77671233,0 C4.96027397,0 2.93424658,0.949771689 2.09589041,3.65296804 L0.209589041,9.64383562 C0.0698630137,10.1552511 0,10.5936073 0,11.1050228 C0,13.7351598 2.09589041,15.8538813 4.54109589,15.8538813 C4.54109589,15.8538813 4.54109589,15.8538813 4.54109589,15.8538813 L15.230137,15.8538813 C16.9068493,15.8538813 18.8630137,14.9041096 19.7013699,12.2009132 L22.1465753,4.52968037 C22.3561644,3.79908676 22.9150685,3.14155251 23.7534247,3.14155251 L28.5041096,3.14155251 C29.3424658,3.14155251 30.0410959,3.87214612 30.0410959,4.74885845 C30.0410959,5.62557078 29.3424658,6.35616438 28.5041096,6.35616438 L25.430137,6.35616438 C24.8712329,6.35616438 24.3123288,6.72146119 24.0328767,7.23287671 C23.7534247,7.74429224 23.8232877,8.40182648 24.1726027,8.91324201 L27.8054795,14.0273973 C27.8054795,14.0273973 27.8054795,14.0273973 27.8054795,14.0273973 C28.6438356,15.196347 29.9712329,15.9269406 31.4383562,15.9269406 L32.2068493,15.9269406 C33.8835616,15.9269406 35.839726,14.9771689 36.6780822,12.2739726 L39.1232877,4.60273973 C39.3328767,3.87214612 39.8917808,3.21461187 40.730137,3.21461187 L45.4808219,3.21461187 C46.3191781,3.21461187 47.0178082,3.94520548 47.0178082,4.82191781 C47.0178082,5.69863014 46.3191781,6.42922374 45.4808219,6.42922374 L42.4068493,6.42922374 C41.8479452,6.42922374 41.2890411,6.79452055 41.009589,7.30593607 C40.730137,7.8173516 40.8,8.47488584 41.1493151,8.98630137 C41.1493151,8.98630137 44.7821918,14.0273973 44.7821918,14.0273973 C45.6205479,15.2694064 46.5287671,15.7808219 47.7164384,16 L48.6945205,12.9315068 C48.3452055,12.7853881 47.7863014,12.4931507 47.4369863,12.0547945" id="XMLID_53_"></path>
                </g>
            </g>
        </g>
    </g>
</svg>