<?xml version="1.0" standalone="no"?>
<!DOCTYPE svg PUBLIC "-//W3C//DTD SVG 20010904//EN"
 "http://www.w3.org/TR/2001/REC-SVG-20010904/DTD/svg10.dtd">
<svg version="1.0" xmlns="http://www.w3.org/2000/svg"
 width="318.000000pt" height="159.000000pt" viewBox="0 0 318.000000 159.000000"
 preserveAspectRatio="xMidYMid meet">

<g transform="translate(0.000000,159.000000) scale(0.100000,-0.100000)"
fill="#000000" stroke="none">
<path d="M390 795 l0 -405 423 0 423 0 23 158 c13 86 25 169 28 185 l6 27 139
0 c128 0 139 -1 134 -17 -2 -10 -14 -83 -26 -163 -11 -80 -23 -155 -26 -167
l-4 -23 142 0 143 0 54 323 c30 177 57 331 61 341 6 16 106 -240 251 -642 9
-22 11 -23 135 -20 l126 3 183 403 183 402 -97 0 -97 0 -99 -227 c-54 -126
-101 -232 -105 -236 -6 -7 -59 122 -156 386 l-29 77 -286 0 -287 0 -12 -87
c-7 -49 -18 -122 -24 -163 l-12 -75 -137 -3 c-90 -2 -137 1 -137 8 0 10 34
234 45 293 l5 27 -175 0 -175 0 0 -345 0 -345 -185 0 -185 0 5 23 c9 41 95
625 95 646 0 20 -5 21 -175 21 l-175 0 0 -405z"/>
</g>
</svg>
