<svg xmlns="http://www.w3.org/2000/svg" xmlns:xlink="http://www.w3.org/1999/xlink" width="270" height="25" viewBox="0 0 270 25">
    <defs>
        <path id="a" d="M.203.024H22.02V20.25H.203z"/>
    </defs>
    <g fill="none" fill-rule="evenodd">
        <path fill="#FEFEFE" d="M20.038 4.95l-7.564 15.351-7.44-15.35H0v19.625h3.682v-14.05l6.763 14.05h3.882l6.964-14.05v14.05h3.682V4.95zM40.806 3.475h3.081V0h-3.08v3.475zm-5.586 0h3.106V0H35.22v3.475zm2.154 1.475l-10.32 19.626h4.058l2.38-4.625H45.44l2.304 4.625h4.183L41.933 4.95h-4.559zm1.353 5l.826-1.824.827 1.8 3.482 6.775H35.12l3.607-6.75zM70.2 24.577L57.778 10.15v14.426h-3.732V4.95h4.308l12.273 14.251V4.951h3.657v19.626zM96.687 24.577l-.15-2.4c-1.027 1.125-3.282 2.7-8.116 2.7-3.707 0-7.113-1.1-9.042-3.426-1.177-1.425-1.929-3.7-1.929-6.675 0-2.575.476-4.675 1.904-6.475 1.728-2.15 4.86-3.676 9.769-3.676 5.26 0 8.366 1.676 9.818 4.3a6.35 6.35 0 0 1 .902 2.85h-3.757c-.05-.5-.45-1.374-.977-1.924-.952-1.025-2.905-1.875-5.861-1.875-3.231 0-5.335.75-6.538 2.1-.901 1.025-1.327 2.55-1.327 4.7 0 2.225.375 3.525 1.327 4.625 1.253 1.425 3.432 2.15 6.538 2.15 3.03 0 4.884-.525 6.412-2.35.651-.775.752-2.075.752-2.575h-8.517v-3.275h12.073v11.226h-3.28zM113.848 24.852c-6.262 0-10.395-2.45-10.395-7.776V4.95h3.858v12.201c0 2.65 2.204 4.375 6.687 4.375 3.908 0 6.463-1.575 6.463-4.35V4.95h3.832v12.501c0 4.85-3.907 7.4-10.445 7.4M144 24.577l-9.544-8.851-2.28 1.6v7.25h-3.832V4.95h3.833v8.476l11.797-8.476h5.185l-11.647 8.626 11.597 11z"/>
        <path fill="#FEFEFE" d="M166.49 19.501c1.153-1.05 1.629-2.825 1.629-4.775 0-1.95-.451-3.775-1.603-4.775-1.403-1.25-3.257-2-6.413-2-3.056 0-5.11.8-6.387 2.05-1.077 1.025-1.603 2.775-1.603 4.725 0 2.15.601 3.875 1.954 5 1.427 1.2 3.281 1.8 6.061 1.8 3.006 0 4.935-.675 6.363-2.025m3.206-11.7c1.653 1.674 2.33 3.9 2.33 6.875 0 3.025-.827 5.325-2.355 6.975-1.93 2.15-5.21 3.225-9.569 3.225-4.233 0-7.314-1.125-9.343-3.15-1.653-1.65-2.58-3.975-2.58-7.05 0-2.8.727-5.025 2.355-6.726 2.154-2.275 5.135-3.375 9.568-3.375 4.434 0 7.49 1.075 9.594 3.225M192.306 19.501c1.152-1.05 1.628-2.825 1.628-4.775 0-1.95-.451-3.775-1.603-4.775-1.403-1.25-3.257-2-6.412-2-3.057 0-5.11.8-6.388 2.05-1.077 1.025-1.603 2.775-1.603 4.725 0 2.15.601 3.875 1.954 5 1.427 1.2 3.281 1.8 6.061 1.8 3.006 0 4.935-.675 6.363-2.025m3.206-11.7c1.653 1.674 2.33 3.9 2.33 6.875 0 3.025-.827 5.325-2.355 6.975-1.93 2.15-5.21 3.225-9.568 3.225-4.234 0-7.315-1.125-9.344-3.15-1.653-1.65-2.58-3.975-2.58-7.05 0-2.8.727-5.025 2.355-6.726 2.154-2.275 5.135-3.375 9.569-3.375 4.433 0 7.489 1.075 9.593 3.225M218.594 18.801c0-.725-.2-1.35-.726-1.8-.526-.45-1.303-.7-2.68-.7h-10.446v5.025h10.37c1.478 0 2.38-.3 2.88-.8.452-.475.602-1.05.602-1.725m-2.254-9.975c-.526-.475-1.403-.65-2.455-.65h-9.143V13.1h9.494c.851 0 1.678-.175 2.179-.65.45-.4.65-1.1.65-1.85 0-.675-.224-1.325-.725-1.775m-.501 15.75h-14.854V4.95h13.727c2.58 0 4.158.625 5.11 1.55.85.825 1.252 2 1.252 3.326 0 1.25-.351 2.525-1.027 3.25-.451.525-1.203 1.025-2.03 1.15 1.378.125 2.63.725 3.407 1.475.827.8 1.178 2.15 1.178 3.4 0 1.4-.376 2.7-1.178 3.625-1.002 1.175-2.905 1.85-5.585 1.85M236.424 9.926l-.827-1.8-.827 1.825-3.606 6.75h8.741l-3.481-6.775zm-9.268 14.65h-4.058l10.32-19.626h4.559l9.994 19.627h-4.183l-2.305-4.626h-11.947l-2.38 4.626z"/>
        <g transform="translate(247.96 4.627)">
            <mask id="b" fill="#fff">
                <use xlink:href="#a"/>
            </mask>
            <path fill="#FEFEFE" d="M11.925 20.25c-5.71 0-8.716-1.125-10.294-3.05-.752-.95-1.328-2.225-1.428-3.475h4.108c.075.575.275 1.225.676 1.675.927 1.05 2.856 1.55 6.713 1.55 4.86 0 6.287-.975 6.287-2.5 0-1.625-1.177-2.225-5.56-2.75-.902-.125-2.806-.325-3.758-.45C2.91 10.623.48 8.873.48 5.673c0-3.15 3.105-5.65 10.37-5.65 6.111 0 8.64 1.425 10.044 4.075.375.7.55 1.475.65 2.15h-4.157c-.05-.35-.2-.775-.401-1.1-.726-1.175-2.304-1.825-6.362-1.825-4.81 0-6.162.825-6.162 2.225 0 1.45 1.428 2 6.162 2.525 1.052.125 3.13.4 3.958.5 5.235.65 7.439 2.35 7.439 5.6 0 3.776-3.231 6.076-10.095 6.076" mask="url(#b)"/>
        </g>
    </g>
</svg>
