<svg xmlns="http://www.w3.org/2000/svg" data-name="Layer 1" viewBox="0 0 595.276 257.953">
  <defs/>
  <g data-name="Layer_1">
    <g data-name="636624080">
      <path fill="#007baf" d="M285.888 144.684h-9.383v-7.178h10.979v-3.367h-15.4v25.485h15.4v-3.37h-10.979v-8.2h9.383v-3.367zm20.86 0h-9.387v-7.178h10.982v-3.367h-15.4v25.485h15.4v-3.37h-10.982v-8.2h9.387v-3.367zm18.521 10.916a4.723 4.723 0 01-3.3 1.022 5.075 5.075 0 01-3.338-1.063 4.229 4.229 0 01-1.3-3.472h-4.245l-.066.129q-.112 3.921 2.386 5.849a10.444 10.444 0 006.562 1.935 10.134 10.134 0 006.44-1.89 7 7 0 00.494-10.079 15.407 15.407 0 00-5.908-2.856 10.415 10.415 0 01-3.927-1.834 3.37 3.37 0 01-.949-2.54 3.632 3.632 0 01.973-2.608 3.913 3.913 0 012.985-1.029 3.687 3.687 0 013.007 1.225 4.964 4.964 0 011.018 3.262h4.242l.046-.13a7.088 7.088 0 00-2.135-5.68 8.769 8.769 0 00-6.178-2.048 9.071 9.071 0 00-6.114 1.943 6.424 6.424 0 00-2.264 5.113 6.127 6.127 0 001.893 4.9 15.9 15.9 0 006.048 2.8 10.133 10.133 0 013.728 1.861 3.345 3.345 0 011.018 2.538 3.429 3.429 0 01-1.116 2.659zm25.587-21.46H333.4v3.367h6.45v22.118h4.424v-22.119h6.583v-3.367zm9.412 0h-4.418v25.482h4.418zM371 155.183h-4.462v4.441H371zm20.169-10.5h-9.383v-7.178h10.979v-3.367h-15.4v25.485h15.4v-3.37h-10.981v-8.2h9.383v-3.367zm20.86 0h-9.383v-7.178h10.978v-3.367h-15.4v25.485h15.4v-3.37h-10.98v-8.2h9.383v-3.367z" data-name="636623456"/>
      <path fill="#007baf" d="M282.628 97.434a5.015 5.015 0 014.025 1.711 6.845 6.845 0 011.467 4.606v2.919a16.907 16.907 0 00.252 2.985 4.518 4.518 0 00.927 2.194h2.691v-.524a4.319 4.319 0 01-.962-1.929 11.5 11.5 0 01-.284-2.674v-3a9.856 9.856 0 00-1.06-4.8 5.683 5.683 0 00-3.489-2.671 7.171 7.171 0 003.413-2.915 8.522 8.522 0 001.2-4.512q0-4.3-2.278-6.555t-6.559-2.249h-9.145v31.826h2.625V97.434zm-7.174-15.116h6.52A6 6 0 01286.632 84a6.919 6.919 0 011.53 4.811 6.674 6.674 0 01-1.565 4.673q-1.563 1.717-4.931 1.718h-6.212zm25.86 4.046h-2.6v25.483h2.6zm11.049 0h-2.6v25.483h2.6zm23.821 12.995h-7.767v2.3h5.162v6.062a4.732 4.732 0 01-1.988 1.585 8.3 8.3 0 01-3.612.685 5.718 5.718 0 01-4.756-2.291 9.38 9.38 0 01-1.781-5.933v-5.358a9.333 9.333 0 011.771-5.849 5.554 5.554 0 014.616-2.313 5.642 5.642 0 014.144 1.4 5.955 5.955 0 011.543 4.1l2.45-.088.042-.108a7.431 7.431 0 00-2.142-5.51 8.351 8.351 0 00-6.037-2.025 8.211 8.211 0 00-6.489 2.907 11.071 11.071 0 00-2.523 7.525v5.317a11.048 11.048 0 002.537 7.556 8.387 8.387 0 006.625 2.9 10.637 10.637 0 005.285-1.2 7.5 7.5 0 002.92-2.575v-9.087zm9.232-12.995h-2.6v25.483h2.6zm15.255 15.924a7.156 7.156 0 005.548-2.2 8.159 8.159 0 002.023-5.737 8.253 8.253 0 00-2.023-5.75 7.107 7.107 0 00-5.548-2.236h-8.158v25.485h2.626v-9.561zM355.139 88.6h5.532a4.3 4.3 0 013.676 1.669 6.7 6.7 0 011.249 4.127 6.458 6.458 0 01-1.249 4.018 4.324 4.324 0 01-3.676 1.648h-5.532V88.6zm35.232 7.854a11.254 11.254 0 00-2.449-7.581 8.6 8.6 0 00-12.8 0 11.3 11.3 0 00-2.432 7.581v5.316a11.271 11.271 0 002.443 7.608 8.628 8.628 0 0012.806 0 11.306 11.306 0 002.428-7.608v-5.319zm-2.625 5.312a9.745 9.745 0 01-1.654 6.1 5.951 5.951 0 01-9.118 0 9.764 9.764 0 01-1.656-6.1v-5.357a9.694 9.694 0 011.645-6.034 5.421 5.421 0 014.55-2.128 5.489 5.489 0 014.572 2.128 9.63 9.63 0 011.661 6.034v5.354zm17.8-1.049a3.958 3.958 0 013.139 1.262 5.2 5.2 0 011.106 3.525v2.548c0 .763.017 1.5.053 2.219a4.765 4.765 0 00.273 1.581h2.737v-.416a3.681 3.681 0 01-.354-1.382c-.056-.6-.084-1.257-.084-1.97v-2.587a7.95 7.95 0 00-.844-3.843 4.571 4.571 0 00-2.768-2.159 5.822 5.822 0 002.713-2.293 6.843 6.843 0 00.92-3.626 7.073 7.073 0 00-1.946-5.33 7.682 7.682 0 00-5.558-1.879H396.8v25.485h2.625v-11.138zM399.422 88.6h5.512a4.71 4.71 0 013.7 1.309 5.46 5.46 0 011.161 3.745 5.068 5.068 0 01-1.161 3.615 4.909 4.909 0 01-3.7 1.218h-5.512zm33.3-2.233h-16.273V88.6h6.72v23.252h2.625V88.6h6.932zm18.025 25.485h2.73l-8.529-25.485h-2.538l-8.55 25.485h2.74l2.137-6.628h9.871l2.145 6.628zM443.6 90.281h.129l4.137 12.707h-8.383zm30.2 21.568h2.734l-8.529-25.485h-2.538l-8.554 25.485h2.734l2.141-6.628h9.871zm-7.153-21.568h.133l4.133 12.707h-8.379zm16.967-3.917h-2.625v25.485h12.8v-2.233h-10.171z" data-name="636623648"/>
      <path fill="#fefefe" fill-rule="evenodd" d="M153.438 45.668a19.264 19.264 0 00-5.894-3.318 18.992 18.992 0 00-7.464-1.435 47.466 47.466 0 00-9.88 1.13c-5.209 1.036-7.917 2.793-12.971 4.148-5.079 1.368-8.091 2.25-13.345 1.96a29.029 29.029 0 01-7.011-1.131 32.079 32.079 0 01-3.7 6.185 45.433 45.433 0 01-5.957 6.373c-2.432 2.355-4.231 3.234-6.523 5.729-2.1 2.289-3.56 3.517-4.788 6.373-.69 1.6-1.25 2.555-1.208 4.3a5.822 5.822 0 00.752 3.129 5.25 5.25 0 002.983 2.6 4.281 4.281 0 003.39.266 3.8 3.8 0 002.527-2.831 3.072 3.072 0 000-2.223 2.588 2.588 0 00-.905-1.207 9.407 9.407 0 012.939 1.246 11.829 11.829 0 013.017 2.715 21.482 21.482 0 013.1 4.671 34.119 34.119 0 014.525 14.174 47.811 47.811 0 01.151 9.39 70.9 70.9 0 01-2.149 15.645 50.468 50.468 0 01-2.982 9.8c-3.3 7.682-6.4 11.833-12.817 17.195l-1.736 6.859a62.164 62.164 0 004.677 14.024c2.113 4.683 3.363 7.385 6.485 11.463a38.448 38.448 0 009.285 9.2c5.533 3.983 9.453 5.152 16.011 7.014 5.317 1.5 8.638 1.694 14.063 3.167a75.914 75.914 0 0110.559 3.241 39.839 39.839 0 019.2 5.127 41.907 41.907 0 015.67 4.676 41.942 41.942 0 015.667-4.676 39.97 39.97 0 019.2-5.127 75.984 75.984 0 0110.558-3.241c5.425-1.473 8.746-1.662 14.063-3.167 6.559-1.862 10.478-3.031 16.011-7.014a38.377 38.377 0 009.285-9.2c3.122-4.078 4.375-6.78 6.485-11.463a62.112 62.112 0 004.676-14.024l-1.732-6.859c-6.422-5.362-9.512-9.509-12.824-17.195-1.574-3.668-.035-.3-2.974-9.8a68.427 68.427 0 01-2.149-15.645 47.277 47.277 0 01.15-9.39 34.071 34.071 0 014.522-14.174 21.739 21.739 0 013.094-4.673 11.9 11.9 0 013.013-2.715 9.488 9.488 0 012.941-1.246 2.618 2.618 0 00-.9 1.207 3.093 3.093 0 000 2.223 3.81 3.81 0 002.527 2.831 4.291 4.291 0 003.394-.266 5.23 5.23 0 002.979-2.6 5.822 5.822 0 00.752-3.129c.041-1.743-.518-2.7-1.2-4.3-1.229-2.856-2.688-4.084-4.791-6.373-2.289-2.495-4.088-3.374-6.52-5.729a45.139 45.139 0 01-5.957-6.373 31.883 31.883 0 01-3.7-6.185 29.077 29.077 0 01-7.013 1.131c-5.255.29-8.264-.592-13.349-1.96-5.051-1.355-7.76-3.112-12.967-4.148a47.432 47.432 0 00-9.877-1.13 18.983 18.983 0 00-7.465 1.435 19.194 19.194 0 00-5.894 3.318z" data-name="636623888"/>
      <path fill="#007baf" d="M218.556 141.847a37.87 37.87 0 002.429 4.609 41.121 41.121 0 007.322 9.148l-1.194-4.717a46.5 46.5 0 01-8.557-9.04zm10.167 15.773a46.651 46.651 0 01-12.329-17.708c-.865-2.272-1.583-4.634-2.639-7.651l.048-.017c-.892-2.57-1.672-5.366-2.53-8.53a83.837 83.837 0 01-2.187-23.539 77.755 77.755 0 011.522-12.39c1.25-6.741 5.635-17.415 13.818-18.158a8.9 8.9 0 015.687 1.25c-1.078-1.911-2.5-3.157-4.371-5.158-1.985-2.121-4.425-3.7-6.5-5.713-4.137-4.011-6.965-6.894-9.562-12.277-7.658 2.016-12.785 1.032-20.187-.959-5.039-1.351-7.738-3.1-12.932-4.137a46.711 46.711 0 00-9.761-1.12 21.358 21.358 0 00-13.359 4.918 19.5 19.5 0 00-6.1-3.524 18.493 18.493 0 00-7.255-1.394 46.711 46.711 0 00-9.761 1.12c-5.194 1.033-7.9 2.786-12.932 4.137-7.4 1.991-12.53 2.975-20.188.959-2.985 6.191-7.605 10.9-12.911 15.14C82 64.693 78.5 67.937 76.844 70.8c2.729-1.757 6.829-1.48 9.764.155 5.335 2.981 8.642 11.363 9.656 16.834a79.133 79.133 0 011.541 12.372 55.693 55.693 0 01-.036 7.78 87.583 87.583 0 01-3.412 20.759 37.74 37.74 0 01-1.221 3.591c-1.83 5.251-3.283 10.069-6.24 14.8a43.509 43.509 0 01-8.743 10.524c1.876 8.253 5.82 18.178 10.975 24.919a37.8 37.8 0 009.16 9.082c5.446 3.913 9.278 5.061 15.826 6.92 5.312 1.508 8.634 1.7 14.056 3.167 8.112 2.2 12.934 3.5 19.944 8.459a41.535 41.535 0 015.324 4.336 47.685 47.685 0 0114.64-9.534 76.886 76.886 0 0110.629-3.261c5.421-1.47 8.74-1.659 14.052-3.167 6.548-1.859 10.384-3.007 15.83-6.92a37.868 37.868 0 009.159-9.082c5.156-6.741 9.1-16.662 10.975-24.916zM95.155 88.38l-.066-.38c-1.13-6.093-5.2-16.49-12.75-17.177-2.982-.27-6.072.8-6.94 3.874a5.937 5.937 0 00.584 4.127 4.541 4.541 0 002.66 2.5c2.187.809 4.469.112 5.134-2.334a2.371 2.371 0 00-.7-2.8l.522-1.05c4.7 1.221 7.185 4.92 9.418 8.924a42.038 42.038 0 012.138 4.316zM78.58 155.567a46.083 46.083 0 0010.1-14.4 42.105 42.105 0 01-8.918 9.715zM221.9 76.866c-3.3 1.533-5.292 4.71-7 7.776a33.41 33.41 0 00-4.453 13.958c-.882 6.772.266 18.459 1.977 24.8 3.157 11.669 5.248 18.043 15.756 26.816L230 157.4a62.978 62.978 0 01-4.745 14.283c-2.118 4.69-3.392 7.441-6.556 11.578a38.96 38.96 0 01-9.411 9.319c-5.624 4.046-9.628 5.244-16.2 7.1-5.32 1.512-8.641 1.7-14.069 3.174-7.921 2.145-12.73 3.444-19.568 8.277a50.568 50.568 0 00-6.013 5.015 48.2 48.2 0 00-15.095-10.072 75.93 75.93 0 00-10.485-3.22c-5.429-1.474-8.75-1.662-14.07-3.174-6.569-1.858-10.576-3.056-16.2-7.1a38.96 38.96 0 01-9.411-9.319c-3.164-4.137-4.438-6.888-6.556-11.578a63.02 63.02 0 01-4.742-14.283l1.816-7.186c6.451-5.382 9.485-9.386 12.8-17.1a57.673 57.673 0 002.947-9.7 70.032 70.032 0 002.131-15.532 47.018 47.018 0 00-.147-9.289 36.623 36.623 0 00-5.835-16.375 14.227 14.227 0 00-5.62-5.358 3.7 3.7 0 01-.041 2.438c-.851 3.129-3.858 4.19-6.707 3.14-3.475-1.292-4.788-5.491-3.849-8.826 1.19-4.222 3.048-5.691 5.886-8.719 2-2.138 4.446-3.72 6.542-5.75 4.49-4.354 6.936-6.916 9.74-12.833 8.105 2.2 12.662 1.413 20.53-.7 5.068-1.361 7.787-3.118 13.008-4.154a47.862 47.862 0 0110-1.145 22.309 22.309 0 0113.358 4.592 22.307 22.307 0 0113.362-4.587 47.8 47.8 0 019.993 1.145c5.225 1.036 7.94 2.793 13.012 4.154 7.839 2.107 12.449 2.891 20.53.7 3.157 6.67 7.329 11.083 13 15.616 2.772 2.215 7.011 6.211 8.358 9.523a16.679 16.679 0 01.931 2.887c.035.122.067.248.1.374a7.224 7.224 0 01-.773 4.676 5.745 5.745 0 01-3.3 3.052c-2.843 1.05-5.852-.011-6.707-3.14a3.742 3.742 0 01-.037-2.438zm-10.2 11.583a41.748 41.748 0 013.565-6.862c1.877-2.993 4.513-5.544 8.006-6.454l.521 1.05a2.374 2.374 0 00-.7 2.8c.665 2.446 2.948 3.143 5.131 2.334 2.53-.934 3.615-3.814 3.318-6.352-1.106-4.8-7.116-4.972-10.7-2.971-4.983 2.782-8.126 10.937-9.065 16l-.083.451z" data-name="636623432"/>
      <path fill="#007baf" d="M204.725 178.981a2.616 2.616 0 00.191-.98 2.56 2.56 0 00-2.556-2.562h-2.586a1 1 0 01-.487-.12 1.027 1.027 0 01-.373-.332l-1.3-1.913a1.006 1.006 0 00.373.331 1.034 1.034 0 00.487.122h3.408a1.041 1.041 0 01.86.452l-1.565-2.291a.986.986 0 00-.376-.332 1.031 1.031 0 00-.484-.122h-3.38a1.043 1.043 0 01-.86-.451l-1.47-2.164a1.014 1.014 0 00.373.331 1.031 1.031 0 00.487.122h3.393a1.021 1.021 0 01.487.12 1.033 1.033 0 01.373.331l-1.565-2.29a1 1 0 00-.376-.331 1.02 1.02 0 00-.484-.123h-2.7a1.041 1.041 0 01-.86-.452l-1.813-2.66c3.665-.439 6.621-2.425 7.209-5.157.765-3.552-2.766-6.995-7.872-7.745a1.774 1.774 0 01-.367-3.416 4.51 4.51 0 00-1.8-.367 3.878 3.878 0 00-4.092 3.617 3.226 3.226 0 00.174 1.036 18.692 18.692 0 00-6.6 5.124 23.027 23.027 0 015.916-.77 3.147 3.147 0 01-.015-.29 2.771 2.771 0 012.772-2.771h.038a2.548 2.548 0 00-1.553 2.126 1.432 1.432 0 002.268 1.17 1.982 1.982 0 011.9-2.553 1.949 1.949 0 01.287.02 2.224 2.224 0 00.941 4.238 2.411 2.411 0 00.382-.032 1.536 1.536 0 01-.054-.407 1.594 1.594 0 013.187 0c0 1.914-2.126 2.09-3.674 1.646a30.076 30.076 0 00-12.549-1.282c-5.13.72-13.534 4.187-22.451 3.9a27.726 27.726 0 01-6.368-1 5.65 5.65 0 01.556.675 4.46 4.46 0 01.4 4.542c.021-1.988-1.621-3.625-3-4.629-.555-.4-.778-.788-.686-1.305l.406-2.293a1.023 1.023 0 00.036.5 1.034 1.034 0 00.263.424l.857.839a8.9 8.9 0 00-1.583-6.49 8.442 8.442 0 00.287-5.023 2.709 2.709 0 01-1.359 2.156 1.785 1.785 0 00-.705 2.593c-.914-.467-2.18-2.166-1.449-3.16.789-1.072 2.948-.567 3.214-2.407a6.211 6.211 0 00-3.282-.012 4.128 4.128 0 00-3.3-1.415 5.161 5.161 0 00-4.177-1.222 5.164 5.164 0 00-4.176 1.222 4.129 4.129 0 00-3.3 1.415 6.219 6.219 0 00-3.284.012c.266 1.84 2.425 1.335 3.213 2.407.732.994-.531 2.693-1.448 3.16a1.785 1.785 0 00-.7-2.593 2.708 2.708 0 01-1.362-2.156 8.457 8.457 0 00.287 5.023 8.9 8.9 0 00-1.583 6.49l.86-.839a1.055 1.055 0 00.263-.424 1.011 1.011 0 00.032-.5l.407 2.293c.092.517-.129.9-.684 1.305-1.38 1-3.022 2.641-3 4.629a4.479 4.479 0 01.4-4.542 19.18 19.18 0 01-4.975-4.16 2.435 2.435 0 01.029-3.121c1.382-1.977 1.712-4.085-.024-5.528a2.816 2.816 0 00.018-.319 2.7 2.7 0 00-2.171-2.649 2.293 2.293 0 01-.1 2.631 1.908 1.908 0 01-.287 2.616 3.036 3.036 0 00.062-.624 2.831 2.831 0 00-1.968-2.79 2.112 2.112 0 00-3.6-1.075 1.677 1.677 0 011.532 1.485 2.828 2.828 0 00-.89 1.146h.051a2.5 2.5 0 012.5 2.5 2.58 2.58 0 01-.041.46 2.78 2.78 0 00-.777-1.5 2.739 2.739 0 00-2.939-.522 2.112 2.112 0 00-3.449.2 2.4 2.4 0 011.858 1 3.345 3.345 0 00.012 4.4 2.726 2.726 0 002.837.555.724.724 0 01.212-.033.668.668 0 110 1.335.655.655 0 01-.424-.155 1.465 1.465 0 00-2.4 1.126 1.092 1.092 0 00.012.182 1.528 1.528 0 01-.436.066 1.455 1.455 0 01-1.016-.418 1.936 1.936 0 00-.063.5 1.958 1.958 0 001.807 1.953 3.08 3.08 0 004.629 1.362 1.347 1.347 0 111.07 2.417l-1.049.229a1.009 1.009 0 01-.5-.012 1.031 1.031 0 01-.434-.245l2.4 2.276a1.04 1.04 0 00.436.245 1.012 1.012 0 00.5.015l1.962-.436a1 1 0 01.5.015 1.012 1.012 0 01.436.245l1.645 1.564a1.026 1.026 0 00-.436-.244 1 1 0 00-.5-.015l-1.963.433a.963.963 0 01-.5-.015.994.994 0 01-.436-.242l2.2 2.084a1.041 1.041 0 00.935.26l1.965-.433a1.048 1.048 0 01.5.015 1.074 1.074 0 01.436.245l1.645 1.565a1.047 1.047 0 00-.436-.244 1 1 0 00-.5-.012l-1.959.43a1.024 1.024 0 01-.5-.016 1.012 1.012 0 01-.436-.242l2.2 2.082a1 1 0 00.436.245.978.978 0 00.5.015l2.375-.52q-3.459 1.953-7.362 4.423a5.445 5.445 0 01-5.152.413 5.919 5.919 0 00-2.876-.342 3.134 3.134 0 00-2.168 1.5 3.133 3.133 0 013.372.687 4.287 4.287 0 00-3.1-.018 3.687 3.687 0 00-2.631 4.175 1.929 1.929 0 00-.654 3.178 1.971 1.971 0 011.854-1.541 3.689 3.689 0 001.3.522 2.8 2.8 0 01.535-.66 3.529 3.529 0 01-.033-.475 3.206 3.206 0 013.205-3.207 3.434 3.434 0 01.433.03 3.21 3.21 0 00-2.455 3.118 3.147 3.147 0 00.051.561 2.017 2.017 0 00-.822 3.18 3.588 3.588 0 012.849-1.935 5.265 5.265 0 001.478.213 5.463 5.463 0 00.938-.084 2.492 2.492 0 012.058-3.9 2.726 2.726 0 01.352.023c-1.317.559-2.123 1.7-1.845 2.745a2.138 2.138 0 001.792 1.419 3.181 3.181 0 01-.424 1.523 3.208 3.208 0 002.637-1.769c1.361-.546 2.2-1.714 1.92-2.774a1.739 1.739 0 00-.657-.94c0-.037-.006-.072-.006-.111a1.323 1.323 0 112.3.9h2.768a1.06 1.06 0 00.857-.454l1.776-2.634a.67.67 0 01.254-.227.7.7 0 01.332-.083h2.174a.689.689 0 00-.331.083.656.656 0 00-.254.227l-1.782 2.634a1.06 1.06 0 01-.858.454h3.309a1.011 1.011 0 00.484-.123.978.978 0 00.373-.331l1.995-2.944c-1.376-.753-1.941-2.07-1.941-3.88a22.943 22.943 0 01.729-3.237l.039-.329a1.026 1.026 0 00-.064-.5 1.607 1.607 0 00-.247-.428l1.7 1.744a1.057 1.057 0 01.353.908l-.051.4c-.081.692-.953 2.185.665 3.553a5.069 5.069 0 00.473.332l1.149.722v-4.243h1.61v4.721a1.044 1.044 0 00.478.849l1.574 1a1 1 0 00.475.158.992.992 0 00.492-.08l2.9-1.26a.986.986 0 01-.493.08 1.031 1.031 0 01-.475-.155l-3.331-2.121c1.619-1.368.745-2.861.663-3.553l-.047-.4a1.023 1.023 0 01.063-.5 1.06 1.06 0 01.287-.41l1.7-1.744a1.621 1.621 0 00-.244.428 1.014 1.014 0 00-.063.5l.035.329c.139 1.18 1.333 3.318.338 4.512l3.044 1.93a1.034 1.034 0 00.97.074l3.031-1.317a1.048 1.048 0 01-.967-.078l-3.292-2.093c.717-1.467.114-3.8-.581-5.152l-.1-.2a1.019 1.019 0 01-.108-.491.976.976 0 01.129-.481l1.128-2.036a1 1 0 00-.125.478 1.019 1.019 0 00.108.489l.414.807a8.84 8.84 0 01.532 1.107c1.852-1.669 2.264-3.278 1.084-4.649l-.352-.412a1.059 1.059 0 01-.224-.448.984.984 0 01.009-.5l.6-2.248a1.013 1.013 0 00-.008.5 1.025 1.025 0 00.226.448l1.159 1.35c2.252 2.545.89 5.827-1.8 8.326a4.6 4.6 0 01.17 1.864l3.57 2.266a1.056 1.056 0 00.97.075l2.58-1.123a1.172 1.172 0 01-.478.1 1.2 1.2 0 01-1.2-1.2 1.192 1.192 0 01.839-1.146c9.852-3 18.922-10.734 24.877-10.714 2.894.01 5.241 1.76 5.241 3.931a3.056 3.056 0 01-.176 1.015c-1.269 3.567.579 6.97 5.462 8.285a1.827 1.827 0 011.35 1.762 1.879 1.879 0 01-.063.477c.111.01.224.012.341.012a3.964 3.964 0 003.252-1.69c.839 0 1.753-.056 2.691-.155a2.938 2.938 0 01.256.768c.2 1.027-.155 1.952-.785 2.159-1.12.361-2.494-.075-3.553-.063a3.662 3.662 0 00-3.63 3.662 3.459 3.459 0 00.031.465 2.22 2.22 0 00-.762 2.978 5.475 5.475 0 012.338-1.6 3.315 3.315 0 013.309-3.165 3.428 3.428 0 01.792.095 3.666 3.666 0 00-3.2 3.635 3.857 3.857 0 00.024.4 1.57 1.57 0 00.195 2.194 3.734 3.734 0 012.224-1.8 3.92 3.92 0 012-.17 2.757 2.757 0 01-.141-.887 2.882 2.882 0 012.882-2.884 3.086 3.086 0 01.433.032 2.276 2.276 0 00-1.012 4.107v.123a1.988 1.988 0 00.738 1.549 2.26 2.26 0 012.222-1.833 7.525 7.525 0 002.306-.311 2.451 2.451 0 001.705-2.323 2.424 2.424 0 00-.884-1.876 12.209 12.209 0 00-.2-4.906 1.692 1.692 0 01.26-.019 1.972 1.972 0 011.645.891zm-77.456-8.443l.412-.807a1.034 1.034 0 00-.018-.967l1.132 2.036a1.056 1.056 0 01.129.481 1 1 0 01-.111.491l-.1.2c-.7 1.351-1.343 3.88-.624 5.346a3.011 3.011 0 01-2.052-3.312c-3.157-3-3.954-6.033-1.7-8.577l1.159-1.352a.983.983 0 00.224-.446.993.993 0 00-.006-.5l.6 2.249a1.043 1.043 0 01-.215.947l-.352.415c-1.18 1.371-.863 3.231.985 4.9a9.129 9.129 0 01.535-1.107zm4.2-16.253h-.743c-.807 0-1.52-1.081-1.52-2.051a1.915 1.915 0 001.541.708h3.41a.832.832 0 01.741.627 2.911 2.911 0 01-.012 1.138.671.671 0 00-.636-.422h-.777a1.3 1.3 0 11-2 0zm.858-6.154l1.416 1.8c.316.382.414.639.788.693h-1.189a1.677 1.677 0 01-1.349-.645l-1.36-1.774a1.785 1.785 0 00-.692-.606h1.344a1.28 1.28 0 011.042.535zm3.939-.442l1.738 2.442a1.927 1.927 0 00.907.777h-1.591a1.352 1.352 0 01-1.248-.723l-1.368-2.1c-.523-.784-.729-.979-1.329-1.194h1.478a1.822 1.822 0 011.417.798zm6.215 2.932H141.3a1.68 1.68 0 01-1.35-.645l-1.359-1.774a1.788 1.788 0 00-.693-.606h1.344a1.28 1.28 0 011.043.535l1.415 1.8c.317.382.415.639.789.693zm.451 1.613c0 .97-.711 2.051-1.521 2.051h-.74a1.3 1.3 0 11-2 0h-.777a.671.671 0 00-.635.422 2.932 2.932 0 01-.013-1.138.834.834 0 01.741-.627h3.413a1.912 1.912 0 001.538-.708zm-1.048 7.379a.475.475 0 00-.392.448 2.192 2.192 0 01-1.544 2.172 12.43 12.43 0 01-.562 3.62c1.025 2.14.24 3.636-.59 3.959-.792.3-1.813-.108-2.718-.108s-1.941.412-2.733.108c-.834-.323-1.616-1.819-.591-3.959a12.4 12.4 0 01-.562-3.62 2.192 2.192 0 01-1.546-2.172.476.476 0 00-.389-.448c-3.405-.934-3.727-5.164-2-6.358-.153 1.89-.317 4.564 3.553 4.919-.062 2.222.9 2.816 1.887 2.816a2.878 2.878 0 001.476-.364c.717-.383.224-.968.039-1.141a1.952 1.952 0 01-.628-1.774c.022-.117.066-.179.176-.179h2.623c.11 0 .158.062.179.179a1.964 1.964 0 01-.627 1.774c-.185.173-.681.758.038 1.141a2.868 2.868 0 001.476.364c.988 0 1.95-.594 1.888-2.816 3.87-.355 3.706-3.029 3.553-4.919 1.723 1.194 1.4 5.424-2 6.358zm-3.429 8.15c.1-1.132-1.186-1.531-2.386-1.531s-2.485.4-2.387 1.531c.123 1.38 1.413.723 2.387.729s2.267.651 2.39-.729zm-.4-2.684a13.176 13.176 0 00.227-2.9l-.893 1.048a8.038 8.038 0 00-.412-.881c-.1-.171-.182-.287-.3-.308a.922.922 0 01-.248.1 3.689 3.689 0 01-.728 0 .949.949 0 01-.246-.1c-.119.021-.2.137-.3.308a7.853 7.853 0 00-.412.881l-.9-1.048a13.186 13.186 0 00.231 2.9 10.074 10.074 0 013.975 0zm16.246-27.867a3.872 3.872 0 01.421.024 4.68 4.68 0 00-3.049 2.789 2.188 2.188 0 00-1.5 2.076 2.166 2.166 0 00.37 1.212 5.992 5.992 0 012.873-1.777 3.816 3.816 0 013.335-3.042 4.04 4.04 0 00-2.117 5.387 2.186 2.186 0 012.106-1.6 2.04 2.04 0 01.72.123 2.988 2.988 0 001 .173 2.941 2.941 0 002.778-3.856 1.849 1.849 0 011.012 2.813 3.715 3.715 0 004.354-3.216 8.583 8.583 0 002.518-2.09l.508 2.475a1.022 1.022 0 01-.022.5 1.007 1.007 0 01-.25.433l2.1-2.159a.988.988 0 00.248-.433 1 1 0 00.021-.5l-.618-3.02a1 1 0 01.021-.5 1.009 1.009 0 01.251-.433l1.651-1.681a1.007 1.007 0 00-.251.43 1.059 1.059 0 00-.018.5l.619 3.024a1.051 1.051 0 01-.019.5 1.02 1.02 0 01-.245.427l1.882-1.939a1.064 1.064 0 00.248-.433 1.022 1.022 0 00.021-.5l-.619-3.013a1.047 1.047 0 01.272-.935l1.652-1.681a1.033 1.033 0 00-.251.43 1.047 1.047 0 00-.018.5l.622 3.022a1.046 1.046 0 01-.022.5 1.018 1.018 0 01-.244.424l1.872-1.944a.988.988 0 00.248-.433 1.012 1.012 0 00.021-.5l-.3-1.478a3.7 3.7 0 012.774-3.781 2.206 2.206 0 00.254-1.019c0-1.693-2.015-3.067-4.507-3.067a5.751 5.751 0 00-3.132.864c.325.967.394 1.944-2.8 2.4-2.531.362-4.759.855-6.453 2.291-2.61 2.21-2.4 5.17-3.882 6.29a5.468 5.468 0 002.4-.031 6.806 6.806 0 001.556-.543 3.5 3.5 0 01-1.75 1.4 3.916 3.916 0 01-2.458 2.5 3.6 3.6 0 01-2.228.135l-3.055-.884a4.356 4.356 0 00-1.177-.162 4.465 4.465 0 00-4.384 3.979 2.185 2.185 0 00-1.576 3.273 5.913 5.913 0 012.7-1.577 3.671 3.671 0 013.53-2.67zm.218 17.231a2.015 2.015 0 01.009-.811 1.166 1.166 0 111.992 1.042c.218.021.445.033.675.033a6.554 6.554 0 001.673-.209 1.925 1.925 0 00-.5-3.784c-.056 0-.116 0-.173.006a2.241 2.241 0 013.112 2.06c0 .066 0 .129-.009.191 3.333-.071 7.09-3.111 7.911-4.273a15.472 15.472 0 01-7.14-.1 18.492 18.492 0 00-4.492-.678c-4.088 0-7.4 2.666-7.4 5.958 0 2.72 2.246 5.092 5.358 5.728 7.08 1.448 15.41-2.76 22.445-4.217a22.946 22.946 0 016.03-4.241 3.244 3.244 0 01-.1-.8v-.018c-9.336 1.535-17.737 6.326-25.322 6.287-2.127-.008-3.793-.825-4.062-2.172zm50.2-20.752a2.6 2.6 0 00.191-.977 2.559 2.559 0 00-2.556-2.562h-2.586a.99.99 0 01-.487-.119 1.027 1.027 0 01-.373-.332l-1.3-1.914a1.018 1.018 0 00.373.332 1.034 1.034 0 00.487.122h3.408a1.057 1.057 0 01.86.451l-1.556-2.292a1 1 0 00-.376-.332 1.031 1.031 0 00-.484-.122h-3.38a.985.985 0 01-.485-.12 1.02 1.02 0 01-.375-.33l-1.47-2.166a1.026 1.026 0 00.373.332 1.043 1.043 0 00.487.122h3.393a1.057 1.057 0 01.487.12 1.043 1.043 0 01.373.331l-1.565-2.29a.993.993 0 00-.376-.332 1.02 1.02 0 00-.484-.123h-2.7a1.026 1.026 0 01-.487-.119 1.05 1.05 0 01-.373-.331l-1.813-2.662c3.665-.438 6.621-2.425 7.209-5.157.765-3.551-2.766-6.994-7.872-7.744a1.774 1.774 0 01-.367-3.416 4.51 4.51 0 00-1.8-.368 3.878 3.878 0 00-4.092 3.617 3.222 3.222 0 00.174 1.036 18.715 18.715 0 00-6.6 5.128 22.854 22.854 0 015.916-.773 3.012 3.012 0 01-.015-.287 2.772 2.772 0 012.772-2.774h.038a2.55 2.55 0 00-1.553 2.125 1.431 1.431 0 002.265 1.169 1.959 1.959 0 01-.084-.567 1.985 1.985 0 011.986-1.986 1.821 1.821 0 01.287.021 2.224 2.224 0 00.941 4.238 2.411 2.411 0 00.382-.033 1.513 1.513 0 01-.054-.406 1.594 1.594 0 013.187 0c0 1.914-2.126 2.093-3.674 1.645a30.058 30.058 0 00-12.549-1.281c-5.13.72-13.534 4.187-22.451 3.9a27.846 27.846 0 01-6.368-1 5.807 5.807 0 01.556.676 4.465 4.465 0 01.4 4.545c.021-1.992-1.621-3.628-3-4.632-.555-.4-.778-.785-.686-1.3l.406-2.294a1.042 1.042 0 00.3.92l.857.839a8.9 8.9 0 00-1.583-6.49 8.438 8.438 0 00.287-5.022 2.71 2.71 0 01-1.359 2.156 1.783 1.783 0 00-.705 2.592c-.914-.465-2.18-2.165-1.449-3.16.789-1.072 2.948-.567 3.214-2.407a6.211 6.211 0 00-3.282-.012 4.131 4.131 0 00-3.3-1.415 5.172 5.172 0 00-4.177-1.222 5.175 5.175 0 00-4.176 1.222 4.132 4.132 0 00-3.3 1.415 6.219 6.219 0 00-3.284.012c.266 1.84 2.425 1.335 3.213 2.407.732 1-.531 2.695-1.448 3.16a1.784 1.784 0 00-.7-2.592 2.71 2.71 0 01-1.362-2.156 8.454 8.454 0 00.287 5.022 8.9 8.9 0 00-1.583 6.49l.86-.839a1.048 1.048 0 00.263-.424 1.01 1.01 0 00.032-.5l.407 2.294c.092.52-.129.9-.684 1.3-1.38 1-3.022 2.64-3 4.632a4.484 4.484 0 01.4-4.545 19.115 19.115 0 01-4.975-4.161 2.433 2.433 0 01.029-3.12c1.382-1.977 1.712-4.086-.024-5.528a2.8 2.8 0 00.018-.319 2.7 2.7 0 00-2.171-2.65 2.293 2.293 0 01-.1 2.631 1.909 1.909 0 01-.287 2.617 3.053 3.053 0 00.062-.625 2.825 2.825 0 00-1.968-2.786 2.112 2.112 0 00-3.6-1.079 1.677 1.677 0 011.532 1.485 2.838 2.838 0 00-.89 1.147h.051a2.5 2.5 0 012.5 2.5 2.553 2.553 0 01-.041.459 2.777 2.777 0 00-.777-1.5 2.742 2.742 0 00-2.939-.523 2.112 2.112 0 00-3.449.2 2.414 2.414 0 011.858 1 3.344 3.344 0 00.012 4.4 2.725 2.725 0 002.837.559.613.613 0 01.212-.036.668.668 0 110 1.335.656.656 0 01-.424-.156 1.466 1.466 0 00-2.4 1.126 1.085 1.085 0 00.012.182 1.461 1.461 0 01-.436.066 1.438 1.438 0 01-1.016-.418 1.965 1.965 0 001.744 2.452 3.077 3.077 0 004.629 1.362 1.346 1.346 0 111.07 2.416l-1.049.23a1.038 1.038 0 01-.935-.257l2.4 2.275a1.042 1.042 0 00.938.26l1.962-.436a1.047 1.047 0 01.935.26l1.645 1.565a1.042 1.042 0 00-.934-.259l-1.963.432a1 1 0 01-.5-.012 1.04 1.04 0 01-.436-.244l2.2 2.084a1.03 1.03 0 00.433.245 1.049 1.049 0 00.5.015l1.965-.433a1.048 1.048 0 01.5.015 1.062 1.062 0 01.436.245l1.645 1.568a1.024 1.024 0 00-.436-.248 1.012 1.012 0 00-.5-.012l-1.959.43a1.012 1.012 0 01-.5-.015 1.023 1.023 0 01-.436-.242l2.2 2.085a1.057 1.057 0 00.938.26l2.375-.524q-3.459 1.953-7.362 4.424a5.442 5.442 0 01-5.152.412 5.915 5.915 0 00-2.876-.34 3.139 3.139 0 00-2.168 1.5 3.135 3.135 0 013.372.686 4.292 4.292 0 00-3.1-.018 3.688 3.688 0 00-2.631 4.176 1.928 1.928 0 00-.654 3.177 1.973 1.973 0 011.854-1.541 3.651 3.651 0 001.3.522 2.776 2.776 0 01.535-.659 3.552 3.552 0 01-.033-.475 3.206 3.206 0 013.205-3.208 3.434 3.434 0 01.433.03 3.21 3.21 0 00-2.455 3.118 3.147 3.147 0 00.051.561 2.021 2.021 0 00-1.294 1.885 2 2 0 00.472 1.3 3.6 3.6 0 012.849-1.936 5.193 5.193 0 001.478.213 5.364 5.364 0 00.938-.084 2.492 2.492 0 012.058-3.9 2.726 2.726 0 01.352.024c-1.317.559-2.123 1.705-1.845 2.744a2.13 2.13 0 001.773 1.429 3.181 3.181 0 01-.424 1.523 3.207 3.207 0 002.637-1.768c1.361-.544 2.2-1.714 1.92-2.774a1.741 1.741 0 00-.657-.941c0-.035-.006-.072-.006-.107a1.323 1.323 0 112.3.9h2.768a1.048 1.048 0 00.857-.456l1.776-2.635a.7.7 0 01.254-.227.7.7 0 01.332-.083h2.174a.712.712 0 00-.585.31l-1.782 2.635a1.048 1.048 0 01-.858.456h3.309a1.046 1.046 0 00.484-.122 1.02 1.02 0 00.373-.334l1.995-2.945c-1.376-.753-1.941-2.07-1.941-3.879a23.023 23.023 0 01.729-3.238l.039-.329a1.029 1.029 0 00-.064-.5 1.6 1.6 0 00-.247-.427l1.7 1.744a1.054 1.054 0 01.353.908l-.051.4c-.081.693-.953 2.187.665 3.554a5.268 5.268 0 00.473.332l1.149.722v-4.243h1.61v4.721a1.044 1.044 0 00.478.848l1.574 1a1.017 1.017 0 00.475.159 1 1 0 00.492-.081l2.9-1.257a1.07 1.07 0 01-.493.081 1.025 1.025 0 01-.475-.159l-3.331-2.12c1.619-1.367.745-2.861.663-3.554l-.047-.4a1.028 1.028 0 01.063-.5 1.049 1.049 0 01.287-.409l1.7-1.744a1.616 1.616 0 00-.244.427 1.017 1.017 0 00-.063.5l.035.329c.139 1.18 1.333 3.318.338 4.513l3.044 1.929a1.012 1.012 0 00.474.158 1.072 1.072 0 00.5-.08l3.026-1.337a1.016 1.016 0 01-.489.082 1.036 1.036 0 01-.478-.159l-3.292-2.093c.717-1.467.114-3.8-.581-5.152l-.1-.2a1.006 1.006 0 01-.108-.487.976.976 0 01.129-.484l1.128-2.037a1 1 0 00-.125.478 1.022 1.022 0 00.108.49l.414.807a8.658 8.658 0 01.532 1.108c1.852-1.67 2.264-3.28 1.084-4.651l-.352-.412a1.048 1.048 0 01-.224-.448.984.984 0 01.009-.5l.6-2.248a1.044 1.044 0 00.218.944l1.159 1.352c2.252 2.542.89 5.824-1.8 8.324a4.6 4.6 0 01.17 1.863l3.57 2.267a1.038 1.038 0 00.477.155 1 1 0 00.493-.08l2.58-1.12a1.238 1.238 0 01-.478.1 1.2 1.2 0 01-.364-2.35c9.852-3 18.922-10.733 24.877-10.712 2.894.008 5.241 1.759 5.241 3.929a3.048 3.048 0 01-.176 1.016c-1.269 3.566.579 6.971 5.462 8.284a1.829 1.829 0 011.35 1.762 1.877 1.877 0 01-.063.479c.111.008.224.014.341.014a3.97 3.97 0 003.252-1.693 28.74 28.74 0 002.691-.153 2.954 2.954 0 01.256.765c.2 1.027-.155 1.953-.785 2.159-1.12.362-2.494-.074-3.553-.062a3.661 3.661 0 00-3.63 3.661 3.42 3.42 0 00.031.466 2.219 2.219 0 00-.762 2.977 5.484 5.484 0 012.338-1.6 3.313 3.313 0 013.309-3.162 3.272 3.272 0 01.792.095 3.661 3.661 0 00-3.2 3.632 3.793 3.793 0 00.024.4 1.571 1.571 0 00.195 2.195 3.726 3.726 0 012.224-1.8 3.943 3.943 0 012-.171 2.761 2.761 0 01-.141-.887 2.883 2.883 0 012.882-2.885 2.942 2.942 0 01.433.033 2.276 2.276 0 00-1.012 4.106v.123a1.985 1.985 0 00.738 1.55 2.26 2.26 0 012.222-1.834 7.56 7.56 0 002.306-.31 2.434 2.434 0 00.821-4.2 12.217 12.217 0 00-.2-4.907 1.83 1.83 0 01.26-.018 1.971 1.971 0 011.645.89zm-77.456-8.442l.412-.807a1.036 1.036 0 00-.018-.968l1.132 2.037a1.055 1.055 0 01.129.484.987.987 0 01-.111.487l-.1.2c-.7 1.35-1.343 3.88-.624 5.346a3.011 3.011 0 01-2.052-3.312c-3.157-3-3.954-6.033-1.7-8.577l1.159-1.351a1.055 1.055 0 00.218-.943l.6 2.249a1.04 1.04 0 01-.215.946l-.352.416c-1.18 1.37-.863 3.231.985 4.9a8.934 8.934 0 01.535-1.108zm4.2-16.253h-.743c-.807 0-1.52-1.081-1.52-2.052a1.915 1.915 0 001.541.708h3.41a.836.836 0 01.741.627 2.911 2.911 0 01-.012 1.138.67.67 0 00-.636-.421h-.777a1.3 1.3 0 11-2 0zm.858-6.155l1.416 1.8c.316.385.414.639.788.692h-1.189a1.679 1.679 0 01-1.349-.644l-1.36-1.774a1.788 1.788 0 00-.692-.607h1.344a1.283 1.283 0 011.052.533zm3.939-.442l1.738 2.446a1.948 1.948 0 00.907.774h-1.591a1.354 1.354 0 01-1.248-.723l-1.368-2.1c-.523-.786-.729-.981-1.329-1.2h1.478a1.822 1.822 0 011.423.804zm6.215 2.932H141.3a1.682 1.682 0 01-1.35-.644l-1.359-1.774a1.791 1.791 0 00-.693-.607h1.344a1.283 1.283 0 011.043.535l1.415 1.8c.313.383.411.637.785.69zm.451 1.613c0 .971-.711 2.052-1.521 2.052h-.74a1.3 1.3 0 11-2 0h-.777a.67.67 0 00-.635.421 2.933 2.933 0 01-.013-1.138.838.838 0 01.741-.627h3.419a1.912 1.912 0 001.538-.708zm-1.048 7.38a.473.473 0 00-.392.447 2.2 2.2 0 01-1.544 2.175 12.42 12.42 0 01-.562 3.617c1.025 2.141.24 3.637-.59 3.96-.792.3-1.813-.108-2.718-.108s-1.941.412-2.733.108c-.834-.323-1.616-1.819-.591-3.96a12.387 12.387 0 01-.562-3.617 2.2 2.2 0 01-1.546-2.175.475.475 0 00-.389-.447c-3.405-.935-3.727-5.163-2-6.358-.153 1.893-.317 4.563 3.553 4.921-.062 2.22.9 2.814 1.887 2.816a2.89 2.89 0 001.476-.367c.717-.382.224-.967.039-1.14a1.952 1.952 0 01-.628-1.775c.022-.116.066-.179.176-.179h2.623c.11 0 .158.063.179.179a1.964 1.964 0 01-.627 1.775c-.185.173-.681.758.038 1.14a2.88 2.88 0 001.476.367c.988 0 1.95-.6 1.888-2.816 3.87-.358 3.706-3.028 3.553-4.921 1.723 1.2 1.4 5.423-2 6.358zm-3.429 8.15c.1-1.132-1.186-1.532-2.386-1.532s-2.485.4-2.387 1.532c.123 1.383 1.413.722 2.387.728s2.273.655 2.396-.728zm-.4-2.685a13.158 13.158 0 00.227-2.9l-.893 1.048a8 8 0 00-.412-.88c-.1-.171-.182-.284-.3-.305a1 1 0 01-.248.1 3.165 3.165 0 01-.728 0 1.031 1.031 0 01-.246-.1c-.119.021-.2.134-.3.305a7.819 7.819 0 00-.412.88l-.9-1.048a13.167 13.167 0 00.231 2.9 10.124 10.124 0 013.975 0zm16.246-27.867a3.87 3.87 0 01.421.025 4.675 4.675 0 00-3.049 2.789 2.183 2.183 0 00-1.126 3.288 5.985 5.985 0 012.873-1.777 3.817 3.817 0 013.335-3.043 4.04 4.04 0 00-2.117 5.387 2.186 2.186 0 012.106-1.6 2.04 2.04 0 01.72.122 2.963 2.963 0 001 .173 2.941 2.941 0 002.778-3.856 1.85 1.85 0 011.012 2.814 3.8 3.8 0 00.663.06 3.72 3.72 0 003.691-3.277 8.568 8.568 0 002.518-2.09l.508 2.475a1.022 1.022 0 01-.022.5 1 1 0 01-.25.433l2.1-2.159a.983.983 0 00.248-.433 1 1 0 00.021-.5l-.618-3.018a1 1 0 01.021-.5 1.012 1.012 0 01.251-.434l1.651-1.681a1.007 1.007 0 00-.251.43 1.059 1.059 0 00-.018.5l.619 3.026a1.044 1.044 0 01-.019.5 1.014 1.014 0 01-.245.427l1.884-1.94a1.07 1.07 0 00.248-.433 1.023 1.023 0 00.021-.5l-.619-3.013a1.034 1.034 0 01.021-.5 1.019 1.019 0 01.251-.433l1.65-1.684a1.021 1.021 0 00-.251.43 1.043 1.043 0 00-.018.5l.622 3.022a1.046 1.046 0 01-.022.5 1.006 1.006 0 01-.244.424l1.872-1.944a.977.977 0 00.248-.433 1.008 1.008 0 00.021-.5l-.3-1.479a3.7 3.7 0 012.774-3.781 2.205 2.205 0 00.254-1.018c0-1.693-2.015-3.067-4.507-3.067a5.75 5.75 0 00-3.132.863c.325.968.394 1.944-2.8 2.4-2.531.362-4.759.855-6.453 2.29-2.61 2.211-2.4 5.17-3.882 6.29a5.482 5.482 0 002.4-.03 6.854 6.854 0 001.556-.543 3.515 3.515 0 01-1.75 1.4 3.92 3.92 0 01-2.458 2.5 3.6 3.6 0 01-2.228.134l-3.055-.883a4.317 4.317 0 00-1.177-.162 4.466 4.466 0 00-4.384 3.978 2.185 2.185 0 00-1.576 3.273 5.921 5.921 0 012.7-1.577 3.673 3.673 0 013.53-2.67zm.218 17.235a2.035 2.035 0 01.009-.815 1.166 1.166 0 111.992 1.042c.218.021.445.033.675.033a6.424 6.424 0 001.673-.209 1.925 1.925 0 00-.5-3.784 1.685 1.685 0 00-.173.009 2.187 2.187 0 01.875-.179 2.24 2.24 0 012.237 2.237c0 .065 0 .128-.009.191 3.333-.071 7.09-3.111 7.911-4.274a15.436 15.436 0 01-7.14-.1 18.492 18.492 0 00-4.492-.678c-4.088 0-7.4 2.667-7.4 5.958 0 2.721 2.246 5.092 5.358 5.728 7.08 1.448 15.41-2.759 22.445-4.217a22.99 22.99 0 016.03-4.24 3.238 3.238 0 01-.1-.8v-.021c-9.336 1.535-17.737 6.325-25.322 6.289-2.127-.011-3.793-.826-4.062-2.171zm50.2-20.755a2.6 2.6 0 00.191-.977 2.558 2.558 0 00-2.556-2.562h-2.586a1.026 1.026 0 01-.487-.123 1 1 0 01-.373-.331l-1.3-1.915a.992.992 0 00.373.332 1.022 1.022 0 00.487.122h3.408a1.023 1.023 0 01.487.123 1.008 1.008 0 01.373.328l-1.565-2.291a.988.988 0 00-.376-.33 1.02 1.02 0 00-.484-.123h-3.38a1.007 1.007 0 01-.485-.119 1.035 1.035 0 01-.375-.332l-1.47-2.166a1.035 1.035 0 00.373.335 1.066 1.066 0 00.487.12h3.393a1.041 1.041 0 01.86.452l-1.565-2.291a1.01 1.01 0 00-.376-.332 1.031 1.031 0 00-.484-.122h-2.7a1 1 0 01-.487-.119 1.053 1.053 0 01-.373-.332l-1.813-2.661c3.665-.439 6.621-2.425 7.209-5.158.765-3.55-2.766-6.994-7.872-7.743a1.775 1.775 0 01-.367-3.417 4.51 4.51 0 00-1.8-.367 3.877 3.877 0 00-4.092 3.616 3.217 3.217 0 00.174 1.036 18.726 18.726 0 00-6.6 5.128 22.853 22.853 0 015.916-.77 3.202 3.202 0 01-.015-.29 2.772 2.772 0 012.772-2.774h.038a2.552 2.552 0 00-1.553 2.129 1.433 1.433 0 001.431 1.431 1.41 1.41 0 00.827-.264 1.954 1.954 0 01-.084-.567 1.986 1.986 0 011.986-1.986 1.821 1.821 0 01.287.021 2.224 2.224 0 00.941 4.238 2.3 2.3 0 00.382-.033 1.507 1.507 0 01-.054-.406 1.594 1.594 0 013.187 0c0 1.915-2.126 2.093-3.674 1.646a30.107 30.107 0 00-12.549-1.281c-5.13.719-13.534 4.187-22.451 3.9a27.737 27.737 0 01-6.368-1 5.732 5.732 0 01.556.675 4.466 4.466 0 01.4 4.546c.021-1.992-1.621-3.629-3-4.632-.555-.4-.778-.786-.686-1.3l.406-2.294a1.042 1.042 0 00.3.92l.857.839a8.9 8.9 0 00-1.583-6.489 8.445 8.445 0 00.287-5.024 2.707 2.707 0 01-1.359 2.156 1.785 1.785 0 00-.705 2.593c-.914-.466-2.18-2.166-1.449-3.16.789-1.072 2.948-.568 3.214-2.407a6.243 6.243 0 00-3.282-.012 4.151 4.151 0 00-3.3-1.416 5.171 5.171 0 00-4.177-1.221 5.175 5.175 0 00-4.176 1.221 4.151 4.151 0 00-3.3 1.416 6.252 6.252 0 00-3.284.012c.266 1.839 2.425 1.335 3.213 2.407.732.994-.531 2.694-1.448 3.16a1.785 1.785 0 00-.7-2.593 2.706 2.706 0 01-1.362-2.156 8.461 8.461 0 00.287 5.024 8.9 8.9 0 00-1.583 6.489l.86-.839a1.048 1.048 0 00.263-.424 1.007 1.007 0 00.032-.5l.407 2.294c.092.519-.129.9-.684 1.3-1.38 1-3.022 2.64-3 4.632a4.485 4.485 0 01.4-4.546 19.119 19.119 0 01-4.975-4.16 2.435 2.435 0 01.029-3.121c1.382-1.977 1.712-4.086-.024-5.525a2.9 2.9 0 00.018-.322 2.7 2.7 0 00-2.171-2.649 2.293 2.293 0 01-.1 2.631 1.908 1.908 0 01-.287 2.616 3.036 3.036 0 00.062-.624 2.827 2.827 0 00-1.968-2.787 2.111 2.111 0 00-3.6-1.077 1.676 1.676 0 011.532 1.484 2.838 2.838 0 00-.89 1.147h.051a2.5 2.5 0 012.5 2.5 2.572 2.572 0 01-.041.46 2.774 2.774 0 00-.777-1.5 2.738 2.738 0 00-2.939-.523 2.112 2.112 0 00-3.449.2 2.411 2.411 0 011.858 1 3.344 3.344 0 00.012 4.4 2.727 2.727 0 002.837.558.613.613 0 01.212-.035.667.667 0 11-.424 1.179 1.466 1.466 0 00-2.4 1.129 1.1 1.1 0 00.012.18 1.528 1.528 0 01-.436.065 1.443 1.443 0 01-1.016-.418 1.965 1.965 0 001.744 2.452 3.075 3.075 0 004.629 1.361 1.346 1.346 0 111.07 2.416l-1.049.233a1.045 1.045 0 01-.5-.014 1.033 1.033 0 01-.434-.246l2.4 2.277a1.006 1.006 0 00.436.244 1.024 1.024 0 00.5.016l1.962-.437a1.035 1.035 0 01.5.015 1.052 1.052 0 01.436.244l1.645 1.566a1.05 1.05 0 00-.436-.245 1.032 1.032 0 00-.5-.015l-1.963.436a1.056 1.056 0 01-.5-.015 1.032 1.032 0 01-.436-.245l2.2 2.085a1.037 1.037 0 00.935.259l1.965-.43a1 1 0 01.5.015 1.019 1.019 0 01.436.245l1.645 1.562a1 1 0 00-.436-.241.967.967 0 00-.5-.016l-1.959.43a1.063 1.063 0 01-.938-.256l2.2 2.084a1.05 1.05 0 00.938.26l2.375-.522q-3.459 1.956-7.362 4.422a5.442 5.442 0 01-5.152.412 5.927 5.927 0 00-2.876-.34 3.142 3.142 0 00-2.168 1.5 3.133 3.133 0 013.372.687 4.292 4.292 0 00-3.1-.018 3.687 3.687 0 00-2.631 4.175 1.928 1.928 0 00-.654 3.177 1.974 1.974 0 011.854-1.541 3.6 3.6 0 001.3.523 2.817 2.817 0 01.535-.659 3.567 3.567 0 01-.033-.476 3.206 3.206 0 013.205-3.207 3.434 3.434 0 01.433.03 3.208 3.208 0 00-2.455 3.117 3.149 3.149 0 00.051.562 2.018 2.018 0 00-.822 3.181 3.59 3.59 0 012.849-1.935A5.264 5.264 0 00112.3 97a5.365 5.365 0 00.938-.083 2.492 2.492 0 012.058-3.9 2.917 2.917 0 01.352.023c-1.317.559-2.123 1.706-1.845 2.745a2.129 2.129 0 001.792 1.419 3.174 3.174 0 01-.424 1.522 3.206 3.206 0 002.637-1.767c1.361-.544 2.2-1.714 1.92-2.775a1.748 1.748 0 00-.657-.941c0-.035-.006-.071-.006-.107a1.323 1.323 0 112.645 0 1.308 1.308 0 01-.348.893h2.768a.967.967 0 00.483-.123 1.011 1.011 0 00.374-.331l1.776-2.634a.716.716 0 01.586-.311h2.174a.689.689 0 00-.331.084.68.68 0 00-.254.227l-1.782 2.634a1.011 1.011 0 01-.374.331.968.968 0 01-.484.123h3.309a.968.968 0 00.484-.123.986.986 0 00.373-.331l1.995-2.945c-1.376-.752-1.941-2.066-1.941-3.879a22.975 22.975 0 01.729-3.237l.039-.328a1.036 1.036 0 00-.064-.5 1.6 1.6 0 00-.247-.426l1.7 1.744a1.006 1.006 0 01.287.408 1.017 1.017 0 01.066.5l-.051.4c-.081.694-.953 2.187.665 3.554a4.884 4.884 0 00.473.332l1.149.723v-4.243h1.61V90.4a1.035 1.035 0 00.134.485 1.047 1.047 0 00.344.364l1.574 1a1.027 1.027 0 00.475.158 1.015 1.015 0 00.492-.08l2.9-1.257a1.069 1.069 0 01-.493.08 1.024 1.024 0 01-.475-.158l-3.325-2.125c1.619-1.367.745-2.86.663-3.554l-.047-.4a1.028 1.028 0 01.063-.5 1.046 1.046 0 01.287-.408l1.7-1.744a1.611 1.611 0 00-.244.426 1.023 1.023 0 00-.063.5l.035.328c.139 1.179 1.333 3.318.338 4.512l3.044 1.93a1.023 1.023 0 00.474.158 1.06 1.06 0 00.5-.081l3.031-1.32a1.044 1.044 0 01-.967-.077l-3.292-2.094c.717-1.466.114-3.8-.581-5.152l-.1-.2a1 1 0 01-.108-.486.973.973 0 01.129-.484l1.128-2.037a1 1 0 00-.125.478 1.022 1.022 0 00.108.49l.414.806a8.789 8.789 0 01.532 1.108c1.852-1.669 2.264-3.28 1.084-4.65l-.352-.412a1.054 1.054 0 01-.224-.448.984.984 0 01.009-.5l.6-2.249a1.042 1.042 0 00.218.944l1.159 1.353c2.252 2.541.89 5.823-1.8 8.323a4.6 4.6 0 01.17 1.863l3.57 2.268a1.05 1.05 0 00.477.155.985.985 0 00.493-.081l2.58-1.12a1.22 1.22 0 01-.478.1 1.2 1.2 0 01-.364-2.35c9.852-3 18.922-10.73 24.877-10.712 2.894.009 5.241 1.759 5.241 3.93a3.039 3.039 0 01-.176 1.016c-1.269 3.565.579 6.97 5.462 8.284a1.828 1.828 0 011.35 1.761 1.877 1.877 0 01-.063.479c.111.008.224.015.341.015a3.971 3.971 0 003.252-1.694 29.07 29.07 0 002.691-.152 2.947 2.947 0 01.256.764c.2 1.028-.155 1.954-.785 2.16-1.12.361-2.494-.072-3.553-.063a3.664 3.664 0 00-3.63 3.662 3.394 3.394 0 00.031.465 2.22 2.22 0 00-.762 2.978 5.484 5.484 0 012.338-1.6 3.316 3.316 0 014.1-3.067 3.66 3.66 0 00-3.2 3.631 3.812 3.812 0 00.024.4 1.56 1.56 0 00-.358 1 1.577 1.577 0 00.553 1.2 3.738 3.738 0 012.224-1.8 3.931 3.931 0 012-.17 2.765 2.765 0 01-.141-.887 2.884 2.884 0 012.882-2.885 2.942 2.942 0 01.433.033 2.276 2.276 0 00-1.012 4.106v.122a1.984 1.984 0 00.738 1.55 2.26 2.26 0 012.222-1.833 7.556 7.556 0 002.306-.311 2.434 2.434 0 00.821-4.2 12.217 12.217 0 00-.2-4.907 1.992 1.992 0 01.26-.017 1.971 1.971 0 011.645.89zm-77.456-8.443l.412-.806a1.036 1.036 0 00-.018-.968l1.132 2.037a1.052 1.052 0 01.129.484.981.981 0 01-.111.486l-.1.2c-.7 1.354-1.343 3.88-.624 5.346a3.011 3.011 0 01-2.052-3.312c-3.157-3-3.954-6.032-1.7-8.577L125.5 73.5a1.059 1.059 0 00.218-.944l.6 2.248a1.018 1.018 0 01.009.5 1.054 1.054 0 01-.224.448l-.352.412c-1.18 1.371-.863 3.232.985 4.9a9.074 9.074 0 01.533-1.105zm4.2-16.252h-.743c-.807 0-1.52-1.081-1.52-2.052a1.905 1.905 0 001.541.707h3.41a.837.837 0 01.741.628 2.906 2.906 0 01-.012 1.137.67.67 0 00-.636-.42h-.777a1.3 1.3 0 11-2 0zm.858-6.156l1.416 1.8c.316.383.414.637.788.69h-1.189A1.68 1.68 0 01132 59.4l-1.36-1.774a1.777 1.777 0 00-.692-.606h1.344a1.282 1.282 0 011.039.531zm3.939-.442l1.738 2.446a1.942 1.942 0 00.907.774h-1.591a1.352 1.352 0 01-1.248-.723l-1.368-2.1c-.523-.786-.729-.979-1.329-1.2h1.478a1.826 1.826 0 011.429.803zm6.215 2.933H141.3a1.683 1.683 0 01-1.35-.645l-1.359-1.774a1.78 1.78 0 00-.693-.606h1.344a1.282 1.282 0 011.043.534l1.415 1.8c.313.384.411.638.785.691zm.451 1.613c0 .971-.711 2.052-1.521 2.052h-.74a1.3 1.3 0 11-2 0h-.777a.67.67 0 00-.635.42 2.928 2.928 0 01-.013-1.137.839.839 0 01.741-.628h3.425a1.9 1.9 0 001.538-.707zm-1.048 7.38a.475.475 0 00-.392.448 2.2 2.2 0 01-1.544 2.174 12.413 12.413 0 01-.562 3.616c1.025 2.141.24 3.638-.59 3.96-.792.3-1.813-.107-2.718-.107s-1.941.412-2.733.107c-.834-.322-1.616-1.819-.591-3.96a12.38 12.38 0 01-.562-3.616 2.2 2.2 0 01-1.546-2.174.476.476 0 00-.389-.448c-3.405-.935-3.727-5.164-2-6.359-.153 1.893-.317 4.563 3.553 4.922-.062 2.219.9 2.813 1.887 2.816a2.888 2.888 0 001.476-.368c.717-.381.224-.967.039-1.14a1.949 1.949 0 01-.628-1.774c.022-.116.066-.179.176-.179h2.623c.11 0 .158.063.179.179a1.961 1.961 0 01-.627 1.774c-.185.173-.681.759.038 1.14a2.877 2.877 0 001.476.368c.988 0 1.95-.6 1.888-2.816 3.87-.359 3.706-3.029 3.553-4.922 1.723 1.2 1.4 5.424-2 6.359zm-3.429 8.15c.1-1.132-1.186-1.533-2.386-1.533s-2.485.4-2.387 1.533c.123 1.382 1.413.723 2.387.728s2.279.654 2.402-.728zm-.4-2.686a13.153 13.153 0 00.227-2.9l-.893 1.049a8.038 8.038 0 00-.412-.881c-.1-.17-.182-.284-.3-.3a1.037 1.037 0 01-.248.1 3.165 3.165 0 01-.728 0 1.072 1.072 0 01-.246-.1c-.119.021-.2.135-.3.3a7.853 7.853 0 00-.412.881l-.9-1.049a13.163 13.163 0 00.231 2.9 10.175 10.175 0 013.975 0zm39.919-9.688a23.02 23.02 0 016.03-4.24 3.22 3.22 0 01-.1-.8v-.02c-9.336 1.535-17.737 6.324-25.322 6.289-2.127-.012-3.793-.827-4.062-2.172a2.035 2.035 0 01.009-.815 1.166 1.166 0 111.992 1.043c.218.02.445.032.675.032a6.51 6.51 0 001.673-.209 1.925 1.925 0 00-.5-3.783 1.685 1.685 0 00-.173.009 2.2 2.2 0 01.875-.179 2.239 2.239 0 012.237 2.237c0 .066 0 .128-.009.191 3.333-.072 7.09-3.112 7.911-4.271a15.116 15.116 0 01-3.36.367 14.8 14.8 0 01-3.78-.469 18.69 18.69 0 00-4.492-.678c-4.088 0-7.4 2.668-7.4 5.958 0 2.721 2.246 5.092 5.358 5.728 7.08 1.448 15.41-2.759 22.445-4.217zm-30.2 120.826a2.187 2.187 0 00.3 1.111 5.953 5.953 0 012.7-1.58 3.671 3.671 0 013.53-2.666 3.874 3.874 0 01.421.023 4.672 4.672 0 00-3.049 2.79 2.183 2.183 0 00-1.126 3.288 5.97 5.97 0 012.873-1.777 3.816 3.816 0 013.335-3.043 4.04 4.04 0 00-2.117 5.387 2.188 2.188 0 012.106-1.6 2.11 2.11 0 01.72.122 2.935 2.935 0 003.775-3.679 1.849 1.849 0 011.012 2.813 3.732 3.732 0 004.354-3.216 8.587 8.587 0 002.518-2.091l.508 2.476a1.018 1.018 0 01-.022.5 1 1 0 01-.25.433l2.1-2.159a.977.977 0 00.248-.433 1 1 0 00.021-.5l-.618-3.02a1 1 0 01.021-.5 1.012 1.012 0 01.251-.432l1.651-1.682a1.012 1.012 0 00-.251.43 1.056 1.056 0 00-.018.5l.619 3.026a1.047 1.047 0 01-.019.5 1.014 1.014 0 01-.245.427l1.89-1.943a1.09 1.09 0 00.248-.433 1.022 1.022 0 00.021-.5l-.619-3.016a1.045 1.045 0 01.272-.932l1.652-1.682a1.04 1.04 0 00-.251.43 1.051 1.051 0 00-.018.5l.622 3.022a1.03 1.03 0 01-.022.5 1 1 0 01-.244.427l1.872-1.944a.983.983 0 00.248-.433 1.02 1.02 0 00.021-.5l-.3-1.476a3.707 3.707 0 012.774-3.784 2.184 2.184 0 00.254-1.015c0-1.693-2.015-3.067-4.507-3.067a5.75 5.75 0 00-3.132.863c.325.965.394 1.944-2.8 2.4-2.531.361-4.759.852-6.453 2.287-2.61 2.214-2.4 5.174-3.882 6.293a5.486 5.486 0 002.4-.033 6.663 6.663 0 001.556-.54 3.512 3.512 0 01-1.75 1.4 3.92 3.92 0 01-2.458 2.508 3.606 3.606 0 01-2.228.135l-3.055-.885a4.241 4.241 0 00-1.177-.164 4.468 4.468 0 00-4.384 3.978 2.189 2.189 0 00-1.879 2.165z" data-name="636628712"/>
    </g>
    <path fill="none" d="M0 0h595.276v257.953H0z"/>
  </g>
</svg>
