<?xml version="1.0" standalone="no"?>
<!DOCTYPE svg PUBLIC "-//W3C//DTD SVG 20010904//EN"
 "http://www.w3.org/TR/2001/REC-SVG-20010904/DTD/svg10.dtd">
<svg version="1.0" xmlns="http://www.w3.org/2000/svg"
 width="770.000000pt" height="335.000000pt" viewBox="0 0 770.000000 335.000000"
 preserveAspectRatio="xMidYMid meet">

<g transform="translate(0.000000,335.000000) scale(0.100000,-0.100000)"
fill="#000000" stroke="none">
<path d="M6435 2350 c-136 -15 -272 -75 -369 -162 -31 -28 -55 -53 -52 -55 3
-3 29 16 57 41 79 71 212 132 334 152 84 14 113 15 188 5 255 -34 467 -203
547 -436 42 -122 46 -220 15 -410 l-5 -30 15 31 c8 18 19 71 25 119 52 419
-327 794 -755 745z"/>
<path d="M6099 2259 l-24 -20 28 17 c15 9 27 18 27 20 0 8 -8 4 -31 -17z"/>
<path d="M6007 2186 c-151 -149 -226 -342 -214 -551 7 -119 27 -195 74 -290
95 -192 260 -322 474 -376 152 -39 357 -16 499 56 128 65 250 189 313 318 46
95 68 181 72 291 l4 91 -9 -95 c-11 -117 -47 -234 -97 -320 -40 -68 -171 -209
-213 -229 -15 -8 -10 0 15 20 74 61 147 144 186 214 21 39 39 77 39 85 0 8
-15 -11 -33 -42 -121 -213 -302 -338 -533 -367 -196 -24 -393 42 -541 183
-126 118 -193 251 -213 415 -18 142 6 271 72 389 16 30 28 56 25 58 -2 2 -16
-18 -31 -46 -46 -85 -51 -67 -5 21 28 54 68 110 113 157 80 84 83 96 3 18z"/>
<path d="M6520 2215 c-7 -9 -8 -15 -2 -15 5 0 12 7 16 15 3 8 4 15 2 15 -2 0
-9 -7 -16 -15z"/>
<path d="M6579 2187 c6 -8 9 -17 6 -21 -3 -3 0 -2 6 3 12 10 4 31 -13 31 -7 0
-7 -4 1 -13z"/>
<path d="M6435 2160 c-3 -5 0 -7 8 -4 8 3 17 -2 21 -12 4 -11 10 -13 19 -6 6
6 25 8 40 5 22 -4 25 -8 15 -15 -10 -8 -10 -9 2 -5 8 2 15 10 15 18 0 10 -12
14 -42 13 -24 0 -43 3 -43 8 0 11 -28 10 -35 -2z"/>
<path d="M6320 2150 c0 -5 5 -10 10 -10 6 0 10 5 10 10 0 6 -4 10 -10 10 -5 0
-10 -4 -10 -10z"/>
<path d="M6690 2140 c-13 -8 -13 -10 1 -10 23 0 71 -61 65 -82 -2 -10 0 -18 5
-18 20 0 6 47 -24 82 -24 29 -36 35 -47 28z"/>
<path d="M6610 2123 c0 -16 2 -16 10 -3 9 13 13 11 30 -9 11 -13 23 -22 25
-19 8 7 -35 48 -50 48 -8 0 -15 -8 -15 -17z"/>
<path d="M6268 2105 c-12 -16 -16 -33 -12 -54 10 -47 27 -51 22 -5 -3 24 1 47
10 62 19 30 2 28 -20 -3z"/>
<path d="M6354 2118 c-5 -7 -3 -8 6 -3 10 6 12 4 6 -10 -5 -15 -4 -16 9 -5 8
7 12 16 9 21 -7 12 -21 11 -30 -3z"/>
<path d="M6304 2095 c-10 -26 1 -35 13 -10 6 14 7 25 2 25 -5 0 -12 -7 -15
-15z"/>
<path d="M6565 2100 c28 -12 37 -12 30 0 -3 6 -16 10 -28 9 -21 0 -21 -1 -2
-9z"/>
<path d="M6329 2088 c-7 -26 -6 -48 2 -54 7 -4 10 -1 7 7 -3 8 -1 22 4 32 5
11 5 17 -2 17 -5 0 -10 -1 -11 -2z"/>
<path d="M6385 2080 c-3 -5 -4 -10 -1 -10 2 0 11 -3 20 -6 11 -4 16 -1 16 10
0 18 -25 22 -35 6z"/>
<path d="M6623 2073 c-21 -8 -15 -22 7 -16 14 4 20 0 20 -11 0 -10 4 -15 10
-11 22 13 -11 47 -37 38z"/>
<path d="M6469 2061 c9 -6 10 -11 2 -15 -14 -9 -15 -36 -1 -36 6 0 10 9 10 20
0 11 5 20 11 20 5 0 7 5 4 10 -3 6 -14 10 -23 10 -13 0 -14 -2 -3 -9z"/>
<path d="M6536 2053 c-3 -3 9 -13 26 -23 22 -11 35 -28 41 -51 10 -37 23 -23
13 15 -6 24 -69 70 -80 59z"/>
<path d="M3032 1760 c-2 -253 -5 -292 -16 -277 -12 16 -15 16 -23 4 -7 -13
-10 -13 -21 -1 -10 12 -10 14 2 14 8 0 18 5 22 11 4 8 0 9 -15 4 -14 -4 -21
-2 -22 7 -2 29 -17 -40 -18 -84 -1 -26 -6 -50 -11 -53 -6 -4 -48 -7 -94 -8
-76 -2 -85 0 -119 26 -96 73 -107 231 -22 306 61 53 146 51 217 -6 l33 -27
-25 28 c-32 36 -78 56 -130 56 -95 0 -170 -85 -170 -194 0 -47 -14 -69 -25
-37 -4 12 -12 17 -24 14 -13 -3 -21 1 -23 14 -3 12 -7 6 -12 -18 -22 -104 68
-224 188 -249 52 -11 265 2 304 18 16 6 17 38 12 377 l-5 370 -3 -295z m-454
-244 c-7 -8 -16 -12 -21 -9 -11 7 2 23 19 23 12 0 12 -2 2 -14z"/>
<path d="M3314 1930 c0 -69 1 -97 3 -62 2 34 2 90 0 125 -2 34 -3 6 -3 -63z"/>
<path d="M5184 1830 c0 -124 2 -174 3 -112 2 61 2 163 0 225 -1 61 -3 11 -3
-113z"/>
<path d="M6698 2043 c13 -3 22 -12 22 -23 0 -10 5 -22 11 -25 7 -5 9 3 7 21
-2 24 -8 29 -33 31 -20 1 -23 0 -7 -4z"/>
<path d="M6367 2033 c-13 -12 -7 -25 7 -14 11 9 13 6 10 -19 -2 -19 0 -29 6
-25 15 9 12 65 -3 65 -8 0 -17 -3 -20 -7z"/>
<path d="M6210 2021 c0 -5 7 -11 14 -14 10 -4 13 -1 9 9 -6 15 -23 19 -23 5z"/>
<path d="M5928 1993 c-46 -52 -79 -187 -79 -321 1 -128 17 -197 72 -311 72
-147 220 -272 384 -324 58 -18 93 -22 205 -22 122 0 143 3 218 29 100 34 212
106 279 179 51 56 122 177 104 177 -6 0 -11 -4 -11 -10 0 -5 -11 -10 -23 -10
-13 0 -27 -3 -31 -7 -16 -16 -71 -10 -98 10 -24 18 -31 19 -54 8 -15 -6 -24
-14 -21 -18 4 -3 13 0 21 6 20 17 53 5 73 -25 12 -19 13 -28 4 -37 -8 -8 -11
-7 -11 5 0 24 -39 49 -59 39 -9 -5 -22 -6 -28 -4 -23 8 -14 -42 10 -65 26 -24
47 -27 80 -11 21 10 21 10 3 -5 -27 -22 -58 -20 -85 5 -23 22 -23 22 -17 1 4
-11 2 -23 -4 -27 -5 -3 -10 1 -10 9 0 18 -31 21 -47 5 -7 -7 -13 -7 -17 -1 -9
15 31 41 53 35 15 -4 18 0 14 21 -5 26 -7 26 -73 24 -37 -2 -66 -6 -64 -9 2
-4 -15 -1 -39 6 -27 8 -42 18 -41 28 1 9 -3 15 -8 14 -6 -1 -12 3 -14 8 -3 6
13 9 39 7 24 -2 55 -2 68 0 20 3 15 8 -34 31 -39 18 -60 34 -67 52 -14 37 -12
78 4 100 13 18 14 17 30 -13 17 -33 22 -35 68 -32 15 1 33 -2 40 -6 24 -15 92
-13 110 3 14 13 19 13 40 -1 24 -15 98 -12 98 4 0 4 11 8 25 8 13 0 42 8 62
18 34 17 36 19 15 22 -13 2 -28 -1 -35 -6 -7 -5 -54 -8 -106 -5 -79 3 -97 1
-115 -14 -18 -16 -19 -16 -8 -1 12 15 9 18 -23 24 -20 3 -34 9 -31 12 9 8 56
11 51 2 -3 -4 2 -11 11 -14 13 -5 15 -1 12 18 -3 17 -1 23 8 19 7 -2 11 -10 8
-17 -6 -15 67 -16 78 -2 4 6 13 4 23 -4 15 -13 17 -12 13 5 -3 17 -10 20 -54
17 -37 -3 -55 1 -68 13 -9 9 -16 12 -16 7 0 -11 -45 -21 -69 -15 -9 2 -24 17
-33 34 -9 16 -23 29 -30 29 -9 0 -9 -3 0 -12 7 -7 12 -15 12 -20 0 -4 -11 4
-25 18 -14 14 -23 30 -20 35 11 16 25 10 18 -8 -6 -16 -5 -16 10 -4 15 12 15
15 -7 32 -29 23 -43 25 -26 4 10 -12 10 -15 -2 -15 -22 0 -29 12 -17 27 15 17
44 17 59 -2 15 -19 30 -19 30 -2 0 15 -41 37 -68 37 -9 0 -37 -19 -61 -42 -25
-24 -38 -33 -28 -22 15 18 16 26 6 48 -7 14 -16 26 -21 26 -13 0 -9 -18 5 -23
6 -2 8 -8 4 -13 -5 -5 -15 -1 -23 10 -13 19 -14 19 -36 0 l-22 -19 17 28 c12
19 14 26 5 25 -7 -2 -18 -14 -25 -28 -16 -32 -17 -9 -1 25 9 19 9 28 0 37 -7
7 -12 22 -12 35 0 14 -6 23 -15 23 -8 0 -15 -4 -15 -9 0 -5 -12 -17 -27 -26
-23 -16 -25 -16 -20 -1 4 9 2 16 -3 16 -6 0 -10 -5 -10 -12 0 -8 -6 -6 -17 4
-15 15 -18 16 -28 2 -10 -14 -15 -14 -48 0 -42 17 -45 22 -17 29 11 3 18 1 14
-4 -3 -5 2 -9 10 -9 9 0 16 -4 16 -10 0 -19 18 -10 23 11 3 12 3 18 0 15 -4
-3 -15 1 -25 11 -15 13 -22 14 -45 4 -24 -11 -25 -11 -12 5 8 10 9 15 3 11
-12 -7 -51 29 -41 39 3 3 15 0 27 -6 18 -10 25 -8 43 7 20 17 20 17 14 -1 -8
-20 8 -46 27 -46 6 0 3 5 -6 11 -19 11 -24 29 -9 29 5 0 17 -8 26 -17 16 -16
17 -15 13 2 -2 11 -13 24 -25 30 -11 6 -28 17 -37 24 -13 11 -19 11 -33 0 -9
-8 -24 -13 -34 -11 -22 4 -35 -16 -20 -31 20 -20 12 -27 -26 -22 -21 3 -43 12
-50 21 -9 12 -16 13 -31 5 -12 -6 -28 -8 -36 -5 -13 5 -16 -1 -16 -26 0 -24
-4 -31 -14 -27 -19 7 -28 -17 -17 -46 6 -15 4 -26 -6 -35 -21 -20 -12 -56 14
-60 14 -2 20 -8 16 -18 -7 -18 -16 -18 -39 4 -11 9 -18 25 -16 35 2 10 -2 25
-9 33 -6 8 -9 17 -6 20 3 4 0 13 -8 21 -8 8 -15 28 -15 44 0 16 -6 32 -13 34
-7 3 -12 20 -11 40 2 40 2 41 -18 18z m382 -7 c0 -2 -7 -7 -16 -10 -8 -3 -12
-2 -9 4 6 10 25 14 25 6z m-50 -74 c0 -9 -72 -32 -82 -26 -13 8 -9 26 5 21 7
-3 24 1 37 8 24 13 40 11 40 -3z m-130 -24 c0 -6 -7 -5 -15 2 -8 7 -15 17 -15
22 0 6 7 5 15 -2 8 -7 15 -17 15 -22z m110 -29 c0 -7 -9 -9 -21 -6 -12 3 -22
0 -26 -9 -3 -8 -9 -11 -15 -8 -12 8 22 33 45 34 9 0 17 -5 17 -11z m246 -65
c-21 -20 -37 -17 -71 12 l-30 26 30 -19 c30 -19 65 -20 65 -2 0 5 -10 9 -22 9
-21 0 -21 0 -2 18 18 18 19 18 31 -6 10 -19 10 -26 -1 -38z m-372 21 c-4 -8
-8 -15 -10 -15 -2 0 -4 7 -4 15 0 8 4 15 10 15 5 0 7 -7 4 -15z m314 -47 c25
-18 51 -36 56 -40 6 -4 7 -10 4 -13 -7 -8 -127 66 -128 78 0 15 23 6 68 -25z
m-268 18 c0 -3 -4 -8 -10 -11 -5 -3 -10 -1 -10 4 0 6 5 11 10 11 6 0 10 -2 10
-4z m110 -14 c0 -4 -5 -13 -12 -20 -14 -14 -62 -16 -53 -2 3 6 15 10 26 10 10
0 19 5 19 10 0 6 5 10 10 10 6 0 10 -4 10 -8z m-273 -44 c1 -10 0 -18 -1 -18
-2 0 -10 8 -19 18 -15 16 -15 18 1 18 10 0 19 -8 19 -18z m98 -18 c-9 -10 -14
-24 -9 -31 4 -8 3 -10 -4 -5 -14 9 -16 36 -3 36 5 0 13 10 17 23 4 13 9 17 12
9 2 -7 -4 -22 -13 -32z m471 11 c-10 -16 -36 -13 -36 3 0 17 21 27 34 16 4 -5
5 -13 2 -19z m-181 -22 c5 -5 1 -9 -12 -9 -12 0 -28 -7 -37 -15 -8 -8 -19 -15
-25 -15 -19 0 -60 23 -55 31 2 5 16 3 29 -3 30 -13 59 -3 51 18 -5 12 -1 14
17 9 12 -4 26 -11 32 -16z m-228 -9 c2 -20 -8 -26 -20 -13 -4 3 -2 12 4 20 15
17 14 17 16 -7z m495 -2 c-12 -12 -35 -1 -27 12 3 5 13 6 21 3 10 -4 12 -9 6
-15z m62 -45 c12 -16 14 -23 5 -18 -23 13 -49 38 -49 46 0 15 24 -1 44 -28z
m-764 17 c0 -5 -2 -10 -4 -10 -3 0 -8 5 -11 10 -3 6 -1 10 4 10 6 0 11 -4 11
-10z m176 -19 c-4 -5 0 -11 6 -14 7 -2 10 -8 6 -12 -4 -4 -15 -2 -23 5 -13 11
-13 15 -3 21 17 11 20 11 14 0z m71 -23 c-3 -7 -5 -2 -5 12 0 14 2 19 5 13 2
-7 2 -19 0 -25z m-197 -3 c-13 -15 -30 -12 -30 6 0 6 4 8 9 4 5 -3 13 0 16 6
4 5 9 8 12 5 3 -3 0 -12 -7 -21z m80 4 c0 -4 10 -17 22 -29 19 -17 19 -20 5
-20 -10 0 -22 11 -27 25 -5 14 -14 25 -20 25 -5 0 -10 4 -10 10 0 5 7 7 15 4
8 -4 15 -10 15 -15z m450 -6 l35 -5 -3 -53 c-3 -34 2 -63 12 -84 14 -25 14
-30 2 -25 -19 7 -36 57 -36 105 0 32 -4 39 -19 39 -10 0 -29 9 -42 21 -21 18
-21 20 -4 13 11 -4 36 -9 55 -11z m-255 -12 c-3 -6 -11 -11 -17 -11 -6 0 -6 6
2 15 14 17 26 13 15 -4z m103 1 c9 9 12 1 12 -34 0 -62 -15 -102 -36 -94 -9 4
-22 2 -29 -4 -10 -8 -15 -6 -19 7 -5 15 -19 19 -73 21 -37 2 -73 8 -78 12 -6
5 -22 7 -36 4 l-24 -5 24 11 c16 7 27 7 37 0 7 -6 32 -10 56 -8 34 2 43 7 42
20 -1 10 3 15 9 11 18 -11 80 -4 95 11 12 12 11 16 -7 25 -11 7 -21 16 -21 22
0 6 6 6 18 0 13 -7 23 -6 30 1z m367 -12 c3 -5 -3 -10 -14 -10 -12 0 -21 5
-21 10 0 6 6 10 14 10 8 0 18 -4 21 -10z m-715 -26 c0 -8 -5 -12 -10 -9 -6 4
-8 11 -5 16 9 14 15 11 15 -7z m185 6 c-3 -5 -15 -10 -25 -10 -10 0 -22 5 -25
10 -4 6 7 10 25 10 18 0 29 -4 25 -10z m772 -14 c3 -3 -8 -6 -25 -6 -17 0 -33
4 -36 9 -6 10 51 8 61 -3z m-465 -83 c7 -9 7 -13 0 -13 -18 0 -34 39 -25 63 7
20 8 20 11 -8 2 -16 8 -36 14 -42z m-62 -7 c0 -3 -4 -8 -10 -11 -5 -3 -10 -1
-10 4 0 6 5 11 10 11 6 0 10 -2 10 -4z m-100 -11 c0 -2 -9 -9 -20 -15 -24 -13
-50 -2 -29 11 15 9 49 12 49 4z m-82 -35 c-7 -10 -14 -17 -17 -15 -4 4 18 35
25 35 2 0 -1 -9 -8 -20z m109 -39 c0 -11 -5 -17 -9 -15 -5 3 -6 9 -3 14 3 5
-14 11 -37 13 l-43 4 47 1 c41 2 47 -1 45 -17z m-243 -23 c21 -30 9 -38 -13
-9 -12 16 -24 22 -35 18 -10 -4 -15 -3 -11 3 11 17 43 11 59 -12z m451 2 c23
-12 30 -18 15 -14 -111 26 -120 27 -163 10 -59 -22 -72 -19 -17 4 58 25 115
24 165 0z m-477 -46 l2 -29 -14 25 c-19 31 -20 43 -3 38 6 -3 13 -18 15 -34z
m-40 1 c14 -29 -2 -34 -18 -6 -12 24 -13 31 -2 31 5 0 14 -11 20 -25z m860 -2
c4 -27 -14 -30 -40 -6 -26 23 -22 35 10 31 19 -2 28 -9 30 -25z m-738 -11 c0
-5 -14 -21 -31 -38 l-31 -29 24 37 c22 35 38 48 38 30z m57 -83 c2 -40 0 -40
-13 0 -3 11 -7 11 -19 1 -13 -11 -14 -10 -9 4 3 9 10 16 15 16 4 0 6 7 2 16
-4 12 -2 15 8 12 9 -3 15 -21 16 -49z m518 -5 c28 -37 28 -58 0 -30 -9 9 -13
16 -9 16 3 0 1 7 -7 16 -7 8 -21 13 -31 11 -18 -5 -24 4 -11 16 14 15 32 6 58
-29z m119 28 c2 -4 -6 -12 -19 -18 -22 -11 -23 -10 -12 7 13 20 23 24 31 11z
m-581 -9 c3 -5 -3 -16 -13 -26 -17 -17 -17 -17 -13 8 5 24 17 33 26 18z m95
-35 c8 -10 1 -13 -33 -13 -34 0 -41 3 -33 13 6 6 21 12 33 12 12 0 27 -6 33
-12z m265 -33 c9 -25 12 -45 7 -45 -5 0 -14 16 -20 35 -7 21 -18 35 -28 35
-15 0 -15 2 -2 10 24 15 27 13 43 -35z m69 23 c-6 -6 -16 -7 -22 -3 -9 6 -9 9
1 16 17 10 34 0 21 -13z m-212 -8 c0 -5 -15 -10 -34 -10 -19 0 -38 5 -41 10
-4 6 10 10 34 10 23 0 41 -4 41 -10z m236 -23 c4 -4 -2 -7 -14 -7 -12 0 -22 4
-22 9 0 10 26 9 36 -2z m-241 -17 c-3 -5 -12 -10 -20 -10 -8 0 -17 5 -20 10
-4 6 5 10 20 10 15 0 24 -4 20 -10z m-155 -22 c0 -13 -23 -5 -28 10 -2 7 2 10
12 6 9 -3 16 -11 16 -16z m35 2 c3 -5 -1 -10 -10 -10 -9 0 -13 5 -10 10 3 6 8
10 10 10 2 0 7 -4 10 -10z m125 -20 c0 -5 -11 -10 -25 -10 -14 0 -25 5 -25 10
0 6 11 10 25 10 14 0 25 -4 25 -10z"/>
<path d="M6900 1326 c0 -2 7 -7 16 -10 8 -3 12 -2 9 4 -6 10 -25 14 -25 6z"/>
<path d="M6172 1997 c-7 -8 -7 -18 -2 -27 10 -17 15 -13 24 18 8 24 -5 30 -22
9z"/>
<path d="M6667 1994 c-3 -4 1 -13 9 -21 17 -18 29 -11 21 12 -7 16 -19 20 -30
9z"/>
<path d="M6770 1979 c0 -5 5 -7 12 -3 8 5 9 2 4 -11 -5 -15 -4 -16 9 -5 8 7
12 16 9 21 -7 13 -34 11 -34 -2z"/>
<path d="M660 1955 c-48 -22 -70 -52 -70 -101 0 -30 6 -46 22 -60 l22 -19 -17
25 c-33 48 -15 111 40 139 43 22 116 13 187 -23 l67 -33 30 43 c16 24 26 44
20 44 -5 0 -19 -16 -31 -35 -12 -20 -25 -34 -29 -32 -114 61 -185 76 -241 52z"/>
<path d="M6196 1961 c-4 -7 -5 -15 -2 -18 9 -9 19 4 14 18 -4 11 -6 11 -12 0z"/>
<path d="M6410 1954 c0 -5 12 -20 26 -34 22 -20 26 -21 23 -6 -4 19 -49 56
-49 40z"/>
<path d="M6642 1943 c-7 -11 -6 -21 3 -30 18 -17 25 -16 25 3 0 8 -4 12 -10 9
-14 -9 -13 8 2 23 9 9 9 12 0 12 -6 0 -15 -8 -20 -17z"/>
<path d="M6720 1943 c1 -21 19 -30 57 -29 54 1 57 16 3 16 -22 0 -40 5 -40 10
0 6 -4 10 -10 10 -5 0 -10 -3 -10 -7z"/>
<path d="M6840 1940 c-12 -8 -9 -10 11 -10 28 0 59 -27 59 -53 0 -9 5 -19 10
-22 6 -3 10 5 10 19 0 15 -12 34 -31 50 -34 29 -38 30 -59 16z"/>
<path d="M6520 1935 c0 -3 7 -17 16 -31 13 -19 20 -22 30 -13 20 16 17 -1 -3
-24 -17 -19 -17 -20 3 -9 39 20 43 65 5 55 -11 -3 -21 2 -24 11 -6 15 -27 23
-27 11z"/>
<path d="M6400 1923 c0 -5 10 -18 23 -29 l22 -19 -20 25 c-11 14 -21 27 -22
29 -2 2 -3 0 -3 -6z"/>
<path d="M6700 1915 c-7 -9 -11 -18 -8 -20 3 -3 11 1 18 10 7 9 11 18 8 20 -3
3 -11 -1 -18 -10z"/>
<path d="M6970 1892 c0 -12 -4 -22 -10 -22 -5 0 -10 -5 -10 -12 0 -7 10 -2 22
10 17 17 20 24 10 34 -9 9 -12 7 -12 -10z"/>
<path d="M6847 1893 c-11 -10 -8 -35 3 -28 6 3 10 1 10 -4 0 -6 5 -11 10 -11
6 0 10 6 10 14 0 17 -24 38 -33 29z"/>
<path d="M6780 1869 c0 -5 5 -7 11 -3 8 4 9 -1 5 -17 -7 -23 -6 -23 8 -5 9 10
13 23 10 27 -7 13 -34 11 -34 -2z"/>
<path d="M6521 1859 c-1 -19 26 -45 36 -35 3 3 1 6 -6 6 -6 0 -16 10 -21 23
-6 15 -9 17 -9 6z"/>
<path d="M6590 1835 c-5 -14 -14 -25 -20 -25 -6 0 -8 -5 -5 -10 4 -6 13 -7 23
-1 9 4 23 6 30 4 6 -3 12 -1 12 4 0 4 3 18 6 31 9 33 -33 31 -46 -3z"/>
<path d="M6697 1853 c-11 -10 -8 -25 3 -18 6 3 10 -2 10 -11 0 -14 3 -15 11
-7 7 7 9 19 6 27 -7 17 -19 21 -30 9z"/>
<path d="M1822 1823 c-5 -10 -24 -63 -42 -118 -33 -104 -49 -141 -50 -116 0 7
-6 11 -14 8 -15 -6 -30 19 -20 34 3 5 1 9 -4 9 -5 0 -21 -40 -36 -90 -18 -57
-33 -90 -42 -90 -8 0 -14 6 -14 13 1 19 -104 357 -111 357 -3 0 9 -51 27 -112
19 -62 34 -115 34 -117 0 -2 -8 3 -17 10 -11 10 -14 10 -9 2 4 -7 2 -13 -3
-13 -6 0 -11 5 -11 10 0 5 -3 9 -7 9 -19 -3 -33 2 -33 12 0 5 5 7 10 4 6 -3
10 -2 10 4 0 15 -20 24 -21 9 0 -7 -4 -2 -10 10 -12 31 -31 23 -43 -16 -5 -18
-13 -32 -18 -32 -5 0 -6 -5 -2 -12 4 -7 3 -8 -5 -4 -6 4 -9 12 -6 17 4 5 -1
12 -9 15 -9 3 -13 10 -10 15 3 5 9 7 14 4 4 -3 11 2 14 11 4 9 2 13 -5 8 -6
-4 -15 -1 -19 6 -4 7 -23 -32 -46 -99 -22 -61 -45 -111 -51 -111 -7 0 -13 8
-13 17 0 25 -93 354 -98 348 -2 -2 3 -36 13 -74 16 -68 15 -91 -6 -91 -6 0 -7
5 -3 12 4 7 3 8 -4 4 -6 -4 -9 -13 -5 -22 5 -13 8 -13 24 2 18 16 19 16 19 -5
0 -18 -5 -21 -30 -19 -23 2 -32 8 -37 26 -4 18 -8 21 -14 10 -7 -10 -9 -8 -10
7 0 11 -2 16 -5 10 -2 -5 23 -95 55 -200 l58 -190 51 -3 51 -3 55 174 c31 96
56 179 56 185 0 6 4 13 9 16 4 3 35 -80 67 -184 l59 -190 51 0 51 0 63 203
c103 327 109 347 105 347 -3 0 -8 -8 -13 -17z"/>
<path d="M5444 1735 c-55 -58 -101 -111 -103 -118 -2 -6 5 -3 16 8 10 11 59
62 108 112 49 51 86 95 83 98 -3 3 -50 -42 -104 -100z"/>
<path d="M6895 1820 c-3 -6 1 -7 9 -4 9 3 16 1 16 -5 0 -6 4 -11 10 -11 5 0 7
7 4 15 -7 17 -30 20 -39 5z"/>
<path d="M6980 1811 c-7 -15 -7 -21 0 -21 12 0 25 28 17 36 -3 3 -10 -4 -17
-15z"/>
<path d="M6750 1800 c-12 -8 -11 -10 8 -10 12 0 25 0 29 -1 4 0 9 4 11 10 5
14 -28 14 -48 1z"/>
<path d="M6823 1786 c-15 -13 -25 -28 -20 -32 4 -4 14 2 23 14 18 26 36 29 27
5 -4 -11 -3 -14 5 -9 14 9 16 33 3 41 -5 3 -22 -6 -38 -19z"/>
<path d="M6929 1774 c-12 -15 -12 -17 1 -12 16 5 50 -20 50 -38 0 -7 -6 -15
-12 -17 -7 -3 -3 -6 10 -6 30 -1 28 21 -6 59 -27 29 -30 30 -43 14z"/>
<path d="M500 1766 c0 -5 9 -23 20 -41 25 -40 91 -75 204 -110 67 -20 98 -35
123 -60 74 -74 16 -175 -102 -175 -45 0 -126 31 -172 66 l-36 27 -38 -41 -39
-41 46 -31 c110 -76 266 -96 368 -46 73 36 108 88 114 167 5 73 -17 140 -57
169 -16 10 -31 17 -34 14 -3 -3 -16 1 -29 9 -25 17 -200 69 -207 62 -4 -5 45
-26 74 -32 30 -5 41 -21 26 -35 -7 -7 -12 -8 -11 -3 5 22 -1 27 -15 15 -11 -9
-21 -9 -45 4 -17 8 -38 12 -46 9 -18 -7 -46 16 -37 31 3 6 3 8 -2 4 -4 -4 -14
-3 -21 3 -9 8 -12 6 -9 -8 2 -10 4 -21 4 -25 1 -5 4 -7 9 -6 4 0 23 -6 42 -15
19 -9 29 -16 21 -17 -31 0 -103 44 -126 78 -14 20 -25 33 -25 28z m314 -89
c14 -10 15 -14 4 -14 -7 0 -19 6 -26 14 -7 7 -9 13 -4 13 4 0 16 -6 26 -13z
m111 -37 c10 -11 16 -20 13 -20 -3 0 -13 9 -23 20 -10 11 -16 20 -13 20 3 0
13 -9 23 -20z"/>
<path d="M2091 1753 c-36 -18 -76 -71 -86 -115 -5 -18 -14 -28 -26 -28 -10 0
-19 -4 -19 -9 0 -4 11 -6 25 -3 17 3 27 13 31 31 32 133 187 168 255 56 11
-16 19 -25 19 -18 0 18 -49 72 -81 88 -36 19 -76 19 -118 -2z"/>
<path d="M2355 1725 c16 -31 28 -76 32 -118 l6 -69 -171 4 c-111 2 -172 7
-172 13 0 7 47 11 133 10 95 0 130 3 123 11 -7 6 -69 11 -164 11 -124 1 -152
-1 -152 -13 0 -8 -5 -14 -11 -14 -5 0 -7 5 -4 10 8 13 -1 13 -26 0 -17 -10
-19 -7 -20 27 -1 28 -4 20 -12 -30 -16 -115 24 -197 124 -252 47 -26 64 -30
134 -29 65 0 90 4 137 26 l57 26 -15 40 -16 39 -37 -18 c-87 -42 -183 -34
-234 19 -29 30 -60 96 -50 106 4 4 93 6 198 6 l190 -1 -3 53 c-3 64 -25 134
-52 168 -16 19 -15 14 5 -25z"/>
<path d="M3368 1740 c-62 -33 -68 -50 -68 -182 0 -65 -3 -118 -7 -118 -4 0
-22 17 -40 37 l-33 37 -1 -30 c0 -16 -3 -61 -7 -101 -9 -85 -21 -77 147 -93
193 -18 276 15 336 135 26 52 30 70 29 140 0 44 -5 91 -11 104 -6 16 -8 -3 -5
-67 5 -102 -11 -167 -54 -217 -25 -29 -25 -29 -8 -2 9 15 14 30 10 34 -3 3 0
13 7 21 8 11 8 14 0 9 -6 -4 -13 -4 -16 0 -2 5 -2 2 0 -6 2 -8 -2 -11 -12 -7
-8 3 -15 1 -15 -5 0 -6 -8 -9 -18 -7 -9 1 -35 -8 -56 -22 -46 -28 -131 -38
-191 -21 l-40 10 3 150 c3 148 3 151 29 171 68 53 151 50 216 -8 41 -37 41
-37 19 -6 -43 62 -141 82 -214 44z"/>
<path d="M4015 1754 c-69 -16 -105 -28 -105 -34 0 -4 23 -1 51 7 31 9 75 14
110 11 48 -3 65 -10 90 -34 27 -24 30 -25 20 -7 -20 40 -109 70 -166 57z"/>
<path d="M4266 1747 c3 -10 9 -15 12 -12 3 3 0 11 -7 18 -10 9 -11 8 -5 -6z"/>
<path d="M4578 1749 c-16 -9 -18 -29 -19 -177 -1 -149 -12 -300 -19 -247 -1
11 -2 28 -1 38 1 9 -2 17 -8 17 -6 0 -8 -7 -5 -15 4 -8 1 -15 -6 -15 -6 0 -8
-5 -4 -11 4 -7 1 -10 -7 -7 -8 3 -14 14 -14 26 0 11 -4 24 -8 28 -8 8 -13 -8
-20 -56 l-5 -35 54 0 54 0 0 221 0 222 31 6 c61 12 123 6 157 -14 17 -11 32
-17 32 -15 0 3 -15 14 -32 25 -36 22 -149 28 -180 9z"/>
<path d="M7010 1732 c0 -5 7 -13 16 -16 10 -4 14 -1 12 6 -5 15 -28 23 -28 10z"/>
<path d="M7060 1715 c0 -8 -16 -19 -40 -25 -24 -6 -40 -17 -40 -25 0 -8 1 -15
3 -15 11 0 82 42 89 52 11 18 10 28 -2 28 -5 0 -10 -7 -10 -15z"/>
<path d="M675 1700 c3 -5 13 -10 21 -10 8 0 12 5 9 10 -3 6 -13 10 -21 10 -8
0 -12 -4 -9 -10z"/>
<path d="M4912 1513 l-2 -203 -35 0 c-25 0 -35 4 -35 16 0 8 4 13 8 10 4 -2
14 0 22 5 13 9 13 10 0 6 -8 -2 -20 3 -27 12 -11 14 -12 11 -13 -16 0 -17 -6
-33 -12 -36 -7 -2 13 -6 46 -8 34 -2 60 0 62 6 3 6 0 100 -4 210 l-9 200 -1
-202z"/>
<path d="M6840 1696 c-9 -12 -7 -13 9 -9 16 4 23 -2 32 -23 7 -17 13 -24 16
-16 12 33 -35 73 -57 48z"/>
<path d="M4290 1511 c-4 -138 -8 -185 -18 -187 -7 -1 -8 0 -2 3 5 2 10 13 10
23 0 13 -7 17 -25 16 -14 0 -25 -5 -25 -9 0 -5 -6 -5 -12 0 -7 4 -56 6 -110 4
-75 -2 -104 1 -132 14 -20 10 -36 22 -36 28 0 5 10 2 23 -9 22 -19 22 -19 5 2
-10 11 -21 34 -24 52 -5 26 -1 36 23 61 38 38 90 48 166 32 68 -14 86 -9 32 9
-21 7 -68 10 -107 8 -65 -3 -73 -6 -100 -37 -25 -27 -29 -40 -26 -72 2 -22 3
-39 1 -39 -1 0 -9 7 -17 16 -11 10 -16 11 -16 3 0 -6 8 -18 18 -25 15 -12 15
-13 1 -14 -16 0 -36 17 -38 33 -1 4 -4 7 -8 6 -4 0 -10 8 -14 18 -4 13 -8 7
-13 -21 -6 -31 -3 -45 11 -64 54 -73 109 -86 285 -71 72 6 138 14 147 17 14 6
15 28 11 197 l-5 190 -5 -184z m-414 -101 c0 -12 -4 -16 -9 -11 -5 5 -6 14 -3
20 10 15 12 14 12 -9z"/>
<path d="M6767 1684 c-9 -10 4 -34 19 -34 8 0 14 -4 14 -10 0 -5 4 -10 9 -10
4 0 8 10 7 23 -1 17 -7 21 -24 20 -13 -2 -21 1 -17 7 7 11 2 14 -8 4z"/>
<path d="M6936 1665 c25 -19 40 -19 24 0 -7 8 -20 15 -28 15 -13 0 -12 -3 4
-15z"/>
<path d="M1496 1634 c-5 -14 -4 -15 9 -4 17 14 19 20 6 20 -5 0 -12 -7 -15
-16z"/>
<path d="M7036 1613 c-11 -12 -6 -19 14 -20 11 -1 20 2 20 7 0 10 -26 20 -34
13z"/>
<path d="M2348 1563 c7 -3 16 -2 19 1 4 3 -2 6 -13 5 -11 0 -14 -3 -6 -6z"/>
<path d="M5218 1496 c-36 -41 -38 -46 -38 -115 l0 -71 -52 0 c-66 0 -59 -7 11
-11 l54 -3 -1 75 c-2 73 -2 74 38 118 30 33 44 41 52 33 6 -6 43 -59 82 -118
l71 -107 63 -1 c34 0 62 0 62 2 0 5 -102 157 -113 167 -14 14 -1 -9 43 -75 20
-30 40 -61 44 -67 5 -10 -6 -13 -43 -13 l-50 0 -78 112 c-43 62 -85 114 -93
115 -8 1 -32 -18 -52 -41z"/>
<path d="M6640 1503 c0 -15 28 -43 43 -43 7 0 4 5 -5 11 -10 5 -22 17 -27 27
-6 9 -11 12 -11 5z"/>
<path d="M3601 1459 c-15 -26 -10 -33 12 -16 10 7 13 17 9 24 -6 9 -11 6 -21
-8z"/>
<path d="M6720 1446 c0 -2 8 -10 18 -17 15 -13 16 -12 3 4 -13 16 -21 21 -21
13z"/>
<path d="M4210 1402 c0 -18 5 -32 10 -32 6 0 8 12 6 26 -7 39 -16 42 -16 6z"/>
<path d="M4241 1401 c-9 -6 -10 -11 -2 -15 6 -4 11 -2 11 4 0 6 5 8 10 5 6 -3
10 -1 10 4 0 13 -10 14 -29 2z"/>
<path d="M5101 1334 c0 -11 3 -14 6 -6 3 7 2 16 -1 19 -3 4 -6 -2 -5 -13z"/>
</g>
</svg>
